M48
; DRILL file {KiCad 9.0.4} date 2026-02-27T16:14:00-0700
; FORMAT={-:-/ absolute / metric / decimal}
; #@! TF.CreationDate,2026-02-27T16:14:00-07:00
; #@! TF.GenerationSoftware,Kicad,Pcbnew,9.0.4
; #@! TF.FileFunction,Plated,1,4,PTH
FMAT,2
METRIC
; #@! TA.AperFunction,Plated,PTH,ViaDrill
T1C0.300
; #@! TA.AperFunction,Plated,PTH,ComponentDrill
T2C0.700
; #@! TA.AperFunction,Plated,PTH,ComponentDrill
T3C0.900
; #@! TA.AperFunction,Plated,PTH,ComponentDrill
T4C1.200
; #@! TA.AperFunction,Plated,PTH,ComponentDrill
T5C1.700
%
G90
G05
T1
X146.5Y-49.0
X159.5Y-40.75
X159.5Y-43.25
X160.5Y-42.5
X163.0Y-38.8
X163.0Y-44.75
X163.655Y-43.311
X164.75Y-59.5
X165.374Y-48.874
X166.5Y-59.75
X168.0Y-51.75
X168.5Y-45.75
X170.75Y-61.75
X171.25Y-57.25
X172.0Y-48.5
X172.0Y-53.0
X172.75Y-58.5
X172.75Y-60.0
X172.814Y-50.326
X174.662Y-57.85
X178.25Y-52.75
X179.0Y-57.85
X179.225Y-53.7
X179.25Y-54.5
X179.25Y-56.451
X179.512Y-57.235
X179.626Y-49.474
X179.75Y-48.25
X179.75Y-55.25
X180.697Y-53.622
X181.799Y-50.799
X182.5Y-59.25
X183.2Y-54.75
X183.25Y-58.25
X184.0Y-54.75
X184.0Y-59.0
X184.75Y-59.5
X185.25Y-49.75
X186.5Y-51.75
X188.25Y-56.701
X188.25Y-59.156
X188.75Y-55.5
X189.0Y-57.956
X189.701Y-58.556
X189.75Y-55.75
X189.75Y-60.0
X191.25Y-51.75
X191.85Y-60.0
X193.75Y-51.0
X193.75Y-57.25
X194.264Y-59.157
X194.499Y-50.399
X196.25Y-46.75
X197.15Y-46.75
X197.25Y-49.0
X197.5Y-41.0
X197.75Y-61.0
X198.0Y-55.0
X198.5Y-57.5
X198.676Y-47.35
X198.75Y-52.026
X199.24Y-48.397
X199.25Y-60.4
X199.303Y-49.748
X199.303Y-49.748
X199.5Y-47.25
X200.75Y-60.0
X201.674Y-47.174
X202.65Y-49.231
X202.753Y-50.025
X203.15Y-47.972
X204.0Y-49.45
X204.75Y-47.75
X204.9Y-45.708
X205.75Y-41.5
X206.5Y-51.25
X207.5Y-45.0
X207.62Y-40.903
X208.35Y-53.75
X209.0Y-49.0
X210.0Y-55.0
X211.0Y-48.5
X219.25Y-45.25
T2
X177.035Y-45.23
X177.035Y-46.5
X178.305Y-45.23
X178.305Y-46.5
X179.575Y-45.23
X179.575Y-46.5
X180.845Y-45.23
X180.845Y-46.5
X182.115Y-45.23
X182.115Y-46.5
X183.385Y-45.23
X183.385Y-46.5
X184.655Y-45.23
X184.655Y-46.5
X185.925Y-45.23
X185.925Y-46.5
X187.195Y-45.23
X187.195Y-46.5
X188.465Y-45.23
X188.465Y-46.5
T3
X152.9Y-55.0
X160.5Y-55.0
T4
X153.0Y-41.5
X156.5Y-41.5
T5
X213.557Y-44.712
X217.517Y-44.712
M30
