%TF.GenerationSoftware,KiCad,Pcbnew,9.0.4*%
%TF.CreationDate,2026-02-27T16:14:11-07:00*%
%TF.ProjectId,Ashurs PCB,41736875-7273-4205-9043-422e6b696361,rev?*%
%TF.SameCoordinates,Original*%
%TF.FileFunction,Copper,L3,Inr*%
%TF.FilePolarity,Positive*%
%FSLAX46Y46*%
G04 Gerber Fmt 4.6, Leading zero omitted, Abs format (unit mm)*
G04 Created by KiCad (PCBNEW 9.0.4) date 2026-02-27 16:14:11*
%MOMM*%
%LPD*%
G01*
G04 APERTURE LIST*
%TA.AperFunction,ComponentPad*%
%ADD10R,1.800000X1.800000*%
%TD*%
%TA.AperFunction,ComponentPad*%
%ADD11C,1.800000*%
%TD*%
%TA.AperFunction,ComponentPad*%
%ADD12R,1.000000X1.000000*%
%TD*%
%TA.AperFunction,ComponentPad*%
%ADD13C,1.000000*%
%TD*%
%TA.AperFunction,ComponentPad*%
%ADD14R,2.050000X2.050000*%
%TD*%
%TA.AperFunction,ComponentPad*%
%ADD15C,2.050000*%
%TD*%
%TA.AperFunction,ComponentPad*%
%ADD16C,1.408000*%
%TD*%
%TA.AperFunction,ViaPad*%
%ADD17C,0.600000*%
%TD*%
G04 APERTURE END LIST*
D10*
%TO.N,Net-(U6-+)*%
%TO.C,J3*%
X153000000Y-41500000D03*
D11*
%TO.N,VIN*%
X156500000Y-41500000D03*
%TD*%
D12*
%TO.N,+3V3*%
%TO.C,J1*%
X188465000Y-46500000D03*
D13*
X188465000Y-45230000D03*
%TO.N,GND*%
X187195000Y-46500000D03*
X187195000Y-45230000D03*
X185925000Y-46500000D03*
X185925000Y-45230000D03*
%TO.N,PROG_SWDIO*%
X184655000Y-46500000D03*
%TO.N,GND*%
X184655000Y-45230000D03*
%TO.N,PROG_SWCLK*%
X183385000Y-46500000D03*
%TO.N,GND*%
X183385000Y-45230000D03*
%TO.N,unconnected-(J1-Pad11)*%
X182115000Y-46500000D03*
%TO.N,GND*%
X182115000Y-45230000D03*
%TO.N,PROG_SWO*%
X180845000Y-46500000D03*
%TO.N,GND*%
X180845000Y-45230000D03*
%TO.N,NRST*%
X179575000Y-46500000D03*
%TO.N,GND*%
X179575000Y-45230000D03*
%TO.N,unconnected-(J1-Pad17)*%
X178305000Y-46500000D03*
%TO.N,GND*%
X178305000Y-45230000D03*
%TO.N,unconnected-(J1-Pad19)*%
X177035000Y-46500000D03*
%TO.N,GND*%
X177035000Y-45230000D03*
%TD*%
D14*
%TO.N,LIPO_POWER*%
%TO.C,J4*%
X213557500Y-44712500D03*
D15*
%TO.N,GND*%
X217517500Y-44712500D03*
%TD*%
D16*
%TO.N,Net-(Q1-D)*%
%TO.C,LS1*%
X160500000Y-55000000D03*
%TO.N,+3V3*%
X152900000Y-55000000D03*
%TD*%
D17*
%TO.N,USB_RXD*%
X193750000Y-51000000D03*
%TO.N,USB_TXD*%
X194498943Y-50399000D03*
%TO.N,GND*%
X160500000Y-42500000D03*
X202753210Y-50024675D03*
X146500000Y-49000000D03*
X200750000Y-60000000D03*
X207620000Y-40903493D03*
X163655387Y-43310674D03*
X197250000Y-49000000D03*
X198750000Y-52026000D03*
X159500000Y-40750000D03*
X197500000Y-41000000D03*
X170750000Y-61750000D03*
X189750000Y-60000000D03*
X204750000Y-47750000D03*
X193750000Y-57250000D03*
X207500000Y-45000000D03*
X172750000Y-58500000D03*
X219250000Y-45250000D03*
X210000000Y-55000000D03*
X185250000Y-49750000D03*
X194264004Y-59156638D03*
%TO.N,+3V3*%
X206500000Y-51250000D03*
X159500000Y-43250000D03*
X191250000Y-51750000D03*
X165374297Y-48874289D03*
X198675734Y-47350000D03*
X205750000Y-41500000D03*
X186500000Y-51750000D03*
X166500000Y-59750000D03*
X179625735Y-49474265D03*
X172000000Y-48500000D03*
X172750000Y-60000000D03*
%TO.N,VIN*%
X163000000Y-44750000D03*
X211000000Y-48500000D03*
%TO.N,NRST*%
X179225375Y-53700377D03*
X178250000Y-52750000D03*
%TO.N,Net-(D1-K)*%
X209000000Y-49000000D03*
X208350000Y-53750000D03*
%TO.N,VBUS*%
X204000000Y-49450000D03*
X201673899Y-47173899D03*
X204900000Y-45707771D03*
%TO.N,Net-(J2-DN1)*%
X199240182Y-48396811D03*
X203150000Y-47971772D03*
%TO.N,Net-(J2-DP1)*%
X199302703Y-49747619D03*
X202650000Y-49231358D03*
X199302703Y-49747619D03*
%TO.N,PROG_SWO*%
X179750000Y-48250000D03*
X181799265Y-50799265D03*
%TO.N,Net-(U6-+)*%
X163000000Y-38800000D03*
%TO.N,Buzzer*%
X164750000Y-59500000D03*
X183250000Y-58250000D03*
%TO.N,Altimeter_SDA*%
X180697404Y-53621802D03*
X188750000Y-55500000D03*
X184000000Y-54750000D03*
X172814299Y-50326460D03*
%TO.N,Altimeter_SCL*%
X183199997Y-54750000D03*
X189750000Y-55750000D03*
X172000000Y-53000000D03*
%TO.N,Net-(U5-VBUS)*%
X199500000Y-47250000D03*
X197150000Y-46750000D03*
%TO.N,SWITCH*%
X168500000Y-45750000D03*
X182500000Y-59250000D03*
%TO.N,IMU_nRESET*%
X174662025Y-57849999D03*
X179000000Y-57849999D03*
%TO.N,IMU_nBOOTLOADPIN*%
X179512149Y-57235421D03*
X171250000Y-57250000D03*
%TO.N,IMU_BL_IND*%
X168000000Y-51750000D03*
X179250000Y-56451000D03*
%TO.N,Flash_SO*%
X198500000Y-57500000D03*
X189000000Y-57956297D03*
%TO.N,Flash_WP*%
X184000000Y-59000000D03*
X199250000Y-60400000D03*
%TO.N,Flash_Hold*%
X184750000Y-59500000D03*
X197750000Y-61000000D03*
%TO.N,Flash_CE*%
X198000000Y-55000000D03*
X188250000Y-59156297D03*
%TO.N,Flash_SCK*%
X189700735Y-58556297D03*
X191850000Y-60000000D03*
%TO.N,USB_RXD*%
X179750000Y-55250000D03*
%TO.N,USB_RSTB*%
X196250000Y-46750000D03*
X188250000Y-56701000D03*
%TO.N,USB_TXD*%
X179250000Y-54500000D03*
%TD*%
%TA.AperFunction,Conductor*%
%TO.N,+3V3*%
G36*
X162159336Y-38520185D02*
G01*
X162205091Y-38572989D01*
X162215035Y-38642147D01*
X162213914Y-38648691D01*
X162199500Y-38721153D01*
X162199500Y-38878846D01*
X162230261Y-39033489D01*
X162230264Y-39033501D01*
X162290602Y-39179172D01*
X162290609Y-39179185D01*
X162378210Y-39310288D01*
X162378213Y-39310292D01*
X162489707Y-39421786D01*
X162489711Y-39421789D01*
X162620814Y-39509390D01*
X162620827Y-39509397D01*
X162766498Y-39569735D01*
X162766503Y-39569737D01*
X162921153Y-39600499D01*
X162921156Y-39600500D01*
X162921158Y-39600500D01*
X163078844Y-39600500D01*
X163078845Y-39600499D01*
X163233497Y-39569737D01*
X163379179Y-39509394D01*
X163510289Y-39421789D01*
X163621789Y-39310289D01*
X163709394Y-39179179D01*
X163769737Y-39033497D01*
X163800500Y-38878842D01*
X163800500Y-38721158D01*
X163800500Y-38721155D01*
X163800499Y-38721153D01*
X163786086Y-38648691D01*
X163792313Y-38579100D01*
X163835176Y-38523922D01*
X163901066Y-38500678D01*
X163907703Y-38500500D01*
X219875500Y-38500500D01*
X219942539Y-38520185D01*
X219988294Y-38572989D01*
X219999500Y-38624500D01*
X219999500Y-44568059D01*
X219979815Y-44635098D01*
X219927011Y-44680853D01*
X219857853Y-44690797D01*
X219794297Y-44661772D01*
X219787819Y-44655740D01*
X219760292Y-44628213D01*
X219760288Y-44628210D01*
X219629185Y-44540609D01*
X219629172Y-44540602D01*
X219483501Y-44480264D01*
X219483489Y-44480261D01*
X219328845Y-44449500D01*
X219328842Y-44449500D01*
X219171158Y-44449500D01*
X219171157Y-44449500D01*
X219151452Y-44453419D01*
X219081861Y-44447190D01*
X219026685Y-44404325D01*
X219008256Y-44359601D01*
X219006572Y-44360006D01*
X219005437Y-44355277D01*
X218967886Y-44239707D01*
X218931236Y-44126911D01*
X218931234Y-44126908D01*
X218931234Y-44126906D01*
X218832159Y-43932463D01*
X218822224Y-43912964D01*
X218681086Y-43718704D01*
X218511296Y-43548914D01*
X218317036Y-43407776D01*
X218281199Y-43389516D01*
X218103093Y-43298765D01*
X217874722Y-43224563D01*
X217637559Y-43187000D01*
X217397441Y-43187000D01*
X217278859Y-43205781D01*
X217160277Y-43224563D01*
X216931906Y-43298765D01*
X216717963Y-43407776D01*
X216523701Y-43548916D01*
X216353916Y-43718701D01*
X216212776Y-43912963D01*
X216103765Y-44126906D01*
X216029563Y-44355277D01*
X216000210Y-44540606D01*
X215992000Y-44592441D01*
X215992000Y-44832559D01*
X216013396Y-44967646D01*
X216029563Y-45069722D01*
X216103765Y-45298093D01*
X216193535Y-45474274D01*
X216212776Y-45512036D01*
X216353914Y-45706296D01*
X216523704Y-45876086D01*
X216717964Y-46017224D01*
X216819043Y-46068726D01*
X216931906Y-46126234D01*
X216931908Y-46126234D01*
X216931911Y-46126236D01*
X217160278Y-46200437D01*
X217397441Y-46238000D01*
X217397442Y-46238000D01*
X217637558Y-46238000D01*
X217637559Y-46238000D01*
X217874722Y-46200437D01*
X218103089Y-46126236D01*
X218317036Y-46017224D01*
X218511296Y-45876086D01*
X218539970Y-45847410D01*
X218601289Y-45813927D01*
X218670981Y-45818909D01*
X218715332Y-45847411D01*
X218739707Y-45871786D01*
X218739711Y-45871789D01*
X218870814Y-45959390D01*
X218870827Y-45959397D01*
X219010436Y-46017224D01*
X219016503Y-46019737D01*
X219171153Y-46050499D01*
X219171156Y-46050500D01*
X219171158Y-46050500D01*
X219328844Y-46050500D01*
X219328845Y-46050499D01*
X219483497Y-46019737D01*
X219629179Y-45959394D01*
X219760289Y-45871789D01*
X219769291Y-45862787D01*
X219787819Y-45844260D01*
X219849142Y-45810775D01*
X219918834Y-45815759D01*
X219974767Y-45857631D01*
X219999184Y-45923095D01*
X219999500Y-45931941D01*
X219999500Y-62375500D01*
X219979815Y-62442539D01*
X219927011Y-62488294D01*
X219875500Y-62499500D01*
X171431941Y-62499500D01*
X171364902Y-62479815D01*
X171319147Y-62427011D01*
X171309203Y-62357853D01*
X171338228Y-62294297D01*
X171344260Y-62287819D01*
X171371786Y-62260292D01*
X171371789Y-62260289D01*
X171459394Y-62129179D01*
X171519737Y-61983497D01*
X171550500Y-61828842D01*
X171550500Y-61671158D01*
X171550500Y-61671155D01*
X171550499Y-61671153D01*
X171519738Y-61516510D01*
X171519737Y-61516503D01*
X171513545Y-61501555D01*
X171459397Y-61370827D01*
X171459390Y-61370814D01*
X171371789Y-61239711D01*
X171371786Y-61239707D01*
X171260292Y-61128213D01*
X171260288Y-61128210D01*
X171129185Y-61040609D01*
X171129172Y-61040602D01*
X170983501Y-60980264D01*
X170983489Y-60980261D01*
X170828845Y-60949500D01*
X170828842Y-60949500D01*
X170671158Y-60949500D01*
X170671155Y-60949500D01*
X170516510Y-60980261D01*
X170516498Y-60980264D01*
X170370827Y-61040602D01*
X170370814Y-61040609D01*
X170239711Y-61128210D01*
X170239707Y-61128213D01*
X170128213Y-61239707D01*
X170128210Y-61239711D01*
X170040609Y-61370814D01*
X170040602Y-61370827D01*
X169980264Y-61516498D01*
X169980261Y-61516510D01*
X169949500Y-61671153D01*
X169949500Y-61828846D01*
X169980261Y-61983489D01*
X169980264Y-61983501D01*
X170040602Y-62129172D01*
X170040609Y-62129185D01*
X170128210Y-62260288D01*
X170128213Y-62260292D01*
X170155740Y-62287819D01*
X170189225Y-62349142D01*
X170184241Y-62418834D01*
X170142369Y-62474767D01*
X170076905Y-62499184D01*
X170068059Y-62499500D01*
X146124500Y-62499500D01*
X146057461Y-62479815D01*
X146011706Y-62427011D01*
X146000500Y-62375500D01*
X146000500Y-60143713D01*
X146899500Y-60143713D01*
X146899500Y-60356287D01*
X146902973Y-60378213D01*
X146932502Y-60564657D01*
X146932754Y-60566243D01*
X146979265Y-60709390D01*
X146998444Y-60768414D01*
X147094951Y-60957820D01*
X147219890Y-61129786D01*
X147370213Y-61280109D01*
X147542179Y-61405048D01*
X147542181Y-61405049D01*
X147542184Y-61405051D01*
X147731588Y-61501557D01*
X147933757Y-61567246D01*
X148143713Y-61600500D01*
X148143714Y-61600500D01*
X148356286Y-61600500D01*
X148356287Y-61600500D01*
X148566243Y-61567246D01*
X148768412Y-61501557D01*
X148957816Y-61405051D01*
X149004940Y-61370814D01*
X149129786Y-61280109D01*
X149129788Y-61280106D01*
X149129792Y-61280104D01*
X149280104Y-61129792D01*
X149280106Y-61129788D01*
X149280109Y-61129786D01*
X149405048Y-60957820D01*
X149405047Y-60957820D01*
X149405051Y-60957816D01*
X149423732Y-60921153D01*
X196949500Y-60921153D01*
X196949500Y-61078846D01*
X196980261Y-61233489D01*
X196980264Y-61233501D01*
X197040602Y-61379172D01*
X197040609Y-61379185D01*
X197128210Y-61510288D01*
X197128213Y-61510292D01*
X197239707Y-61621786D01*
X197239711Y-61621789D01*
X197370814Y-61709390D01*
X197370827Y-61709397D01*
X197516498Y-61769735D01*
X197516503Y-61769737D01*
X197671153Y-61800499D01*
X197671156Y-61800500D01*
X197671158Y-61800500D01*
X197828844Y-61800500D01*
X197828845Y-61800499D01*
X197983497Y-61769737D01*
X198129179Y-61709394D01*
X198260289Y-61621789D01*
X198371789Y-61510289D01*
X198459394Y-61379179D01*
X198462854Y-61370827D01*
X198517163Y-61239711D01*
X198519737Y-61233497D01*
X198546510Y-61098901D01*
X198578895Y-61036990D01*
X198639610Y-61002416D01*
X198709380Y-61006155D01*
X198737018Y-61019990D01*
X198870814Y-61109390D01*
X198870827Y-61109397D01*
X199016498Y-61169735D01*
X199016503Y-61169737D01*
X199171153Y-61200499D01*
X199171156Y-61200500D01*
X199171158Y-61200500D01*
X199328844Y-61200500D01*
X199328845Y-61200499D01*
X199483497Y-61169737D01*
X199629179Y-61109394D01*
X199760289Y-61021789D01*
X199871789Y-60910289D01*
X199959394Y-60779179D01*
X200016578Y-60641122D01*
X200060416Y-60586723D01*
X200126710Y-60564657D01*
X200194409Y-60581935D01*
X200218818Y-60600897D01*
X200239707Y-60621786D01*
X200239711Y-60621789D01*
X200370814Y-60709390D01*
X200370827Y-60709397D01*
X200508683Y-60766498D01*
X200516503Y-60769737D01*
X200671153Y-60800499D01*
X200671156Y-60800500D01*
X200671158Y-60800500D01*
X200828844Y-60800500D01*
X200828845Y-60800499D01*
X200983497Y-60769737D01*
X201129179Y-60709394D01*
X201260289Y-60621789D01*
X201371789Y-60510289D01*
X201459394Y-60379179D01*
X201519737Y-60233497D01*
X201533064Y-60166498D01*
X201537596Y-60143713D01*
X216399500Y-60143713D01*
X216399500Y-60356287D01*
X216402973Y-60378213D01*
X216432502Y-60564657D01*
X216432754Y-60566243D01*
X216479265Y-60709390D01*
X216498444Y-60768414D01*
X216594951Y-60957820D01*
X216719890Y-61129786D01*
X216870213Y-61280109D01*
X217042179Y-61405048D01*
X217042181Y-61405049D01*
X217042184Y-61405051D01*
X217231588Y-61501557D01*
X217433757Y-61567246D01*
X217643713Y-61600500D01*
X217643714Y-61600500D01*
X217856286Y-61600500D01*
X217856287Y-61600500D01*
X218066243Y-61567246D01*
X218268412Y-61501557D01*
X218457816Y-61405051D01*
X218504940Y-61370814D01*
X218629786Y-61280109D01*
X218629788Y-61280106D01*
X218629792Y-61280104D01*
X218780104Y-61129792D01*
X218780106Y-61129788D01*
X218780109Y-61129786D01*
X218905048Y-60957820D01*
X218905047Y-60957820D01*
X218905051Y-60957816D01*
X219001557Y-60768412D01*
X219067246Y-60566243D01*
X219100500Y-60356287D01*
X219100500Y-60143713D01*
X219067246Y-59933757D01*
X219001557Y-59731588D01*
X218905051Y-59542184D01*
X218905049Y-59542181D01*
X218905048Y-59542179D01*
X218780109Y-59370213D01*
X218629786Y-59219890D01*
X218457820Y-59094951D01*
X218268414Y-58998444D01*
X218268413Y-58998443D01*
X218268412Y-58998443D01*
X218066243Y-58932754D01*
X218066241Y-58932753D01*
X218066240Y-58932753D01*
X217904957Y-58907208D01*
X217856287Y-58899500D01*
X217643713Y-58899500D01*
X217595042Y-58907208D01*
X217433760Y-58932753D01*
X217231585Y-58998444D01*
X217042179Y-59094951D01*
X216870213Y-59219890D01*
X216719890Y-59370213D01*
X216594951Y-59542179D01*
X216498444Y-59731585D01*
X216432753Y-59933760D01*
X216409774Y-60078844D01*
X216399500Y-60143713D01*
X201537596Y-60143713D01*
X201543378Y-60114649D01*
X201543378Y-60114648D01*
X201550499Y-60078846D01*
X201550500Y-60078844D01*
X201550500Y-59921155D01*
X201550499Y-59921153D01*
X201542148Y-59879172D01*
X201519737Y-59766503D01*
X201478492Y-59666927D01*
X201459397Y-59620827D01*
X201459390Y-59620814D01*
X201371789Y-59489711D01*
X201371786Y-59489707D01*
X201260292Y-59378213D01*
X201260288Y-59378210D01*
X201129185Y-59290609D01*
X201129172Y-59290602D01*
X200983501Y-59230264D01*
X200983489Y-59230261D01*
X200828845Y-59199500D01*
X200828842Y-59199500D01*
X200671158Y-59199500D01*
X200671155Y-59199500D01*
X200516510Y-59230261D01*
X200516498Y-59230264D01*
X200370827Y-59290602D01*
X200370814Y-59290609D01*
X200239711Y-59378210D01*
X200239707Y-59378213D01*
X200128213Y-59489707D01*
X200128210Y-59489711D01*
X200040609Y-59620814D01*
X200040602Y-59620827D01*
X199983423Y-59758873D01*
X199939582Y-59813277D01*
X199873288Y-59835342D01*
X199805589Y-59818063D01*
X199781181Y-59799102D01*
X199760292Y-59778213D01*
X199760288Y-59778210D01*
X199629185Y-59690609D01*
X199629172Y-59690602D01*
X199483501Y-59630264D01*
X199483489Y-59630261D01*
X199328845Y-59599500D01*
X199328842Y-59599500D01*
X199171158Y-59599500D01*
X199171155Y-59599500D01*
X199016510Y-59630261D01*
X199016498Y-59630264D01*
X198870827Y-59690602D01*
X198870814Y-59690609D01*
X198739711Y-59778210D01*
X198739707Y-59778213D01*
X198628213Y-59889707D01*
X198628210Y-59889711D01*
X198540609Y-60020814D01*
X198540602Y-60020827D01*
X198480264Y-60166498D01*
X198480261Y-60166508D01*
X198453489Y-60301099D01*
X198421104Y-60363010D01*
X198360388Y-60397584D01*
X198290618Y-60393843D01*
X198262981Y-60380009D01*
X198129185Y-60290609D01*
X198129172Y-60290602D01*
X197983501Y-60230264D01*
X197983489Y-60230261D01*
X197828845Y-60199500D01*
X197828842Y-60199500D01*
X197671158Y-60199500D01*
X197671155Y-60199500D01*
X197516510Y-60230261D01*
X197516498Y-60230264D01*
X197370827Y-60290602D01*
X197370814Y-60290609D01*
X197239711Y-60378210D01*
X197239707Y-60378213D01*
X197128213Y-60489707D01*
X197128210Y-60489711D01*
X197040609Y-60620814D01*
X197040602Y-60620827D01*
X196980264Y-60766498D01*
X196980261Y-60766510D01*
X196949500Y-60921153D01*
X149423732Y-60921153D01*
X149501557Y-60768412D01*
X149567246Y-60566243D01*
X149600500Y-60356287D01*
X149600500Y-60143713D01*
X149567246Y-59933757D01*
X149501557Y-59731588D01*
X149405051Y-59542184D01*
X149405049Y-59542181D01*
X149365649Y-59487950D01*
X149365648Y-59487949D01*
X149317118Y-59421153D01*
X163949500Y-59421153D01*
X163949500Y-59578846D01*
X163980261Y-59733489D01*
X163980264Y-59733501D01*
X164040602Y-59879172D01*
X164040609Y-59879185D01*
X164128210Y-60010288D01*
X164128213Y-60010292D01*
X164239707Y-60121786D01*
X164239711Y-60121789D01*
X164370814Y-60209390D01*
X164370827Y-60209397D01*
X164516498Y-60269735D01*
X164516503Y-60269737D01*
X164671153Y-60300499D01*
X164671156Y-60300500D01*
X164671158Y-60300500D01*
X164828844Y-60300500D01*
X164828845Y-60300499D01*
X164983497Y-60269737D01*
X165129179Y-60209394D01*
X165260289Y-60121789D01*
X165371789Y-60010289D01*
X165459394Y-59879179D01*
X165460276Y-59877051D01*
X165492563Y-59799102D01*
X165519737Y-59733497D01*
X165550500Y-59578842D01*
X165550500Y-59421158D01*
X165550500Y-59421155D01*
X165550499Y-59421153D01*
X165544329Y-59390135D01*
X165519737Y-59266503D01*
X165506887Y-59235480D01*
X165459397Y-59120827D01*
X165459390Y-59120814D01*
X165371789Y-58989711D01*
X165371786Y-58989707D01*
X165260292Y-58878213D01*
X165260288Y-58878210D01*
X165129185Y-58790609D01*
X165129172Y-58790602D01*
X164983501Y-58730264D01*
X164983489Y-58730261D01*
X164828845Y-58699500D01*
X164828842Y-58699500D01*
X164671158Y-58699500D01*
X164671155Y-58699500D01*
X164516510Y-58730261D01*
X164516498Y-58730264D01*
X164370827Y-58790602D01*
X164370814Y-58790609D01*
X164239711Y-58878210D01*
X164239707Y-58878213D01*
X164128213Y-58989707D01*
X164128210Y-58989711D01*
X164040609Y-59120814D01*
X164040602Y-59120827D01*
X163980264Y-59266498D01*
X163980261Y-59266510D01*
X163949500Y-59421153D01*
X149317118Y-59421153D01*
X149280109Y-59370214D01*
X149280105Y-59370209D01*
X149129786Y-59219890D01*
X148957820Y-59094951D01*
X148768414Y-58998444D01*
X148768413Y-58998443D01*
X148768412Y-58998443D01*
X148566243Y-58932754D01*
X148566241Y-58932753D01*
X148566240Y-58932753D01*
X148404957Y-58907208D01*
X148356287Y-58899500D01*
X148143713Y-58899500D01*
X148095042Y-58907208D01*
X147933760Y-58932753D01*
X147731585Y-58998444D01*
X147542179Y-59094951D01*
X147370213Y-59219890D01*
X147219890Y-59370213D01*
X147094951Y-59542179D01*
X146998444Y-59731585D01*
X146932753Y-59933760D01*
X146909774Y-60078844D01*
X146899500Y-60143713D01*
X146000500Y-60143713D01*
X146000500Y-58421153D01*
X171949500Y-58421153D01*
X171949500Y-58578846D01*
X171980261Y-58733489D01*
X171980264Y-58733501D01*
X172040602Y-58879172D01*
X172040609Y-58879185D01*
X172128210Y-59010288D01*
X172128213Y-59010292D01*
X172239707Y-59121786D01*
X172239711Y-59121789D01*
X172370814Y-59209390D01*
X172370827Y-59209397D01*
X172516498Y-59269735D01*
X172516503Y-59269737D01*
X172671153Y-59300499D01*
X172671156Y-59300500D01*
X172671158Y-59300500D01*
X172828844Y-59300500D01*
X172828845Y-59300499D01*
X172983497Y-59269737D01*
X173129179Y-59209394D01*
X173186411Y-59171153D01*
X181699500Y-59171153D01*
X181699500Y-59328846D01*
X181730261Y-59483489D01*
X181730264Y-59483501D01*
X181790602Y-59629172D01*
X181790609Y-59629185D01*
X181878210Y-59760288D01*
X181878213Y-59760292D01*
X181989707Y-59871786D01*
X181989711Y-59871789D01*
X182120814Y-59959390D01*
X182120827Y-59959397D01*
X182266498Y-60019735D01*
X182266503Y-60019737D01*
X182421153Y-60050499D01*
X182421156Y-60050500D01*
X182421158Y-60050500D01*
X182578844Y-60050500D01*
X182578845Y-60050499D01*
X182733497Y-60019737D01*
X182879179Y-59959394D01*
X183010289Y-59871789D01*
X183121789Y-59760289D01*
X183209394Y-59629179D01*
X183222643Y-59597192D01*
X183266483Y-59542790D01*
X183332776Y-59520724D01*
X183400476Y-59538002D01*
X183424885Y-59556964D01*
X183489707Y-59621786D01*
X183489711Y-59621789D01*
X183620814Y-59709390D01*
X183620827Y-59709397D01*
X183758683Y-59766498D01*
X183766503Y-59769737D01*
X183914130Y-59799102D01*
X183921153Y-59800499D01*
X183921156Y-59800500D01*
X183921158Y-59800500D01*
X183925162Y-59800500D01*
X183927183Y-59801093D01*
X183927218Y-59801097D01*
X183927217Y-59801103D01*
X183992201Y-59820185D01*
X184037956Y-59872989D01*
X184039715Y-59877029D01*
X184040606Y-59879179D01*
X184040607Y-59879180D01*
X184040609Y-59879185D01*
X184128210Y-60010288D01*
X184128213Y-60010292D01*
X184239707Y-60121786D01*
X184239711Y-60121789D01*
X184370814Y-60209390D01*
X184370827Y-60209397D01*
X184516498Y-60269735D01*
X184516503Y-60269737D01*
X184671153Y-60300499D01*
X184671156Y-60300500D01*
X184671158Y-60300500D01*
X184828844Y-60300500D01*
X184828845Y-60300499D01*
X184983497Y-60269737D01*
X185129179Y-60209394D01*
X185260289Y-60121789D01*
X185371789Y-60010289D01*
X185459394Y-59879179D01*
X185460276Y-59877051D01*
X185492563Y-59799102D01*
X185519737Y-59733497D01*
X185550500Y-59578842D01*
X185550500Y-59421158D01*
X185550500Y-59421155D01*
X185550499Y-59421153D01*
X185544329Y-59390135D01*
X185519737Y-59266503D01*
X185506887Y-59235480D01*
X185459397Y-59120827D01*
X185459390Y-59120814D01*
X185371789Y-58989711D01*
X185371786Y-58989707D01*
X185260292Y-58878213D01*
X185260288Y-58878210D01*
X185129185Y-58790609D01*
X185129172Y-58790602D01*
X184983501Y-58730264D01*
X184983489Y-58730261D01*
X184828845Y-58699500D01*
X184828842Y-58699500D01*
X184824838Y-58699500D01*
X184822816Y-58698906D01*
X184822782Y-58698903D01*
X184822782Y-58698896D01*
X184757799Y-58679815D01*
X184712044Y-58627011D01*
X184710275Y-58622949D01*
X184709394Y-58620821D01*
X184709391Y-58620816D01*
X184709390Y-58620814D01*
X184621789Y-58489711D01*
X184621786Y-58489707D01*
X184510292Y-58378213D01*
X184510288Y-58378210D01*
X184379185Y-58290609D01*
X184379172Y-58290602D01*
X184233501Y-58230264D01*
X184233491Y-58230261D01*
X184136463Y-58210961D01*
X184074552Y-58178576D01*
X184039978Y-58117860D01*
X184039038Y-58113535D01*
X184025605Y-58046004D01*
X184019737Y-58016503D01*
X184008902Y-57990345D01*
X183959397Y-57870827D01*
X183959390Y-57870814D01*
X183871789Y-57739711D01*
X183871786Y-57739707D01*
X183760292Y-57628213D01*
X183760288Y-57628210D01*
X183629185Y-57540609D01*
X183629172Y-57540602D01*
X183483501Y-57480264D01*
X183483489Y-57480261D01*
X183328845Y-57449500D01*
X183328842Y-57449500D01*
X183171158Y-57449500D01*
X183171155Y-57449500D01*
X183016510Y-57480261D01*
X183016498Y-57480264D01*
X182870827Y-57540602D01*
X182870814Y-57540609D01*
X182739711Y-57628210D01*
X182739707Y-57628213D01*
X182628213Y-57739707D01*
X182628210Y-57739711D01*
X182540609Y-57870814D01*
X182540602Y-57870827D01*
X182480264Y-58016498D01*
X182480261Y-58016510D01*
X182449500Y-58171153D01*
X182449500Y-58328846D01*
X182449596Y-58329823D01*
X182449500Y-58330328D01*
X182449500Y-58334934D01*
X182448626Y-58334934D01*
X182436567Y-58398468D01*
X182388495Y-58449171D01*
X182350383Y-58463577D01*
X182266508Y-58480261D01*
X182266498Y-58480264D01*
X182120827Y-58540602D01*
X182120814Y-58540609D01*
X181989711Y-58628210D01*
X181989707Y-58628213D01*
X181878213Y-58739707D01*
X181878210Y-58739711D01*
X181790609Y-58870814D01*
X181790602Y-58870827D01*
X181730264Y-59016498D01*
X181730261Y-59016510D01*
X181699500Y-59171153D01*
X173186411Y-59171153D01*
X173260289Y-59121789D01*
X173261264Y-59120814D01*
X173304694Y-59077385D01*
X173371786Y-59010292D01*
X173371789Y-59010289D01*
X173459394Y-58879179D01*
X173462854Y-58870827D01*
X173473067Y-58846166D01*
X173519737Y-58733497D01*
X173550500Y-58578842D01*
X173550500Y-58421158D01*
X173550500Y-58421155D01*
X173550499Y-58421153D01*
X173543618Y-58386560D01*
X173519737Y-58266503D01*
X173517944Y-58262174D01*
X173459397Y-58120827D01*
X173459390Y-58120814D01*
X173371789Y-57989711D01*
X173371786Y-57989707D01*
X173260292Y-57878213D01*
X173245257Y-57868167D01*
X173245255Y-57868165D01*
X173129185Y-57790609D01*
X173129172Y-57790602D01*
X173082215Y-57771152D01*
X173861525Y-57771152D01*
X173861525Y-57928845D01*
X173892286Y-58083488D01*
X173892289Y-58083500D01*
X173952627Y-58229171D01*
X173952634Y-58229184D01*
X174040235Y-58360287D01*
X174040238Y-58360291D01*
X174151732Y-58471785D01*
X174151736Y-58471788D01*
X174282839Y-58559389D01*
X174282852Y-58559396D01*
X174428523Y-58619734D01*
X174428528Y-58619736D01*
X174562300Y-58646345D01*
X174583178Y-58650498D01*
X174583181Y-58650499D01*
X174583183Y-58650499D01*
X174740869Y-58650499D01*
X174740870Y-58650498D01*
X174895522Y-58619736D01*
X175041204Y-58559393D01*
X175172314Y-58471788D01*
X175283814Y-58360288D01*
X175371419Y-58229178D01*
X175379613Y-58209397D01*
X175395451Y-58171158D01*
X175431762Y-58083496D01*
X175462525Y-57928841D01*
X175462525Y-57771157D01*
X175462525Y-57771154D01*
X175462524Y-57771152D01*
X175454390Y-57730261D01*
X175431762Y-57616502D01*
X175421957Y-57592830D01*
X175371422Y-57470826D01*
X175371415Y-57470813D01*
X175283814Y-57339710D01*
X175283811Y-57339706D01*
X175172317Y-57228212D01*
X175172313Y-57228209D01*
X175041210Y-57140608D01*
X175041197Y-57140601D01*
X174895526Y-57080263D01*
X174895514Y-57080260D01*
X174740870Y-57049499D01*
X174740867Y-57049499D01*
X174583183Y-57049499D01*
X174583180Y-57049499D01*
X174428535Y-57080260D01*
X174428523Y-57080263D01*
X174282852Y-57140601D01*
X174282839Y-57140608D01*
X174151736Y-57228209D01*
X174151732Y-57228212D01*
X174040238Y-57339706D01*
X174040235Y-57339710D01*
X173952634Y-57470813D01*
X173952627Y-57470826D01*
X173892289Y-57616497D01*
X173892286Y-57616509D01*
X173861525Y-57771152D01*
X173082215Y-57771152D01*
X172983501Y-57730264D01*
X172983489Y-57730261D01*
X172828845Y-57699500D01*
X172828842Y-57699500D01*
X172671158Y-57699500D01*
X172671155Y-57699500D01*
X172516510Y-57730261D01*
X172516498Y-57730264D01*
X172370827Y-57790602D01*
X172370814Y-57790609D01*
X172239711Y-57878210D01*
X172239707Y-57878213D01*
X172128213Y-57989707D01*
X172128210Y-57989711D01*
X172040609Y-58120814D01*
X172040602Y-58120827D01*
X171980264Y-58266498D01*
X171980261Y-58266510D01*
X171949500Y-58421153D01*
X146000500Y-58421153D01*
X146000500Y-57171153D01*
X170449500Y-57171153D01*
X170449500Y-57328846D01*
X170480261Y-57483489D01*
X170480264Y-57483501D01*
X170540602Y-57629172D01*
X170540609Y-57629185D01*
X170628210Y-57760288D01*
X170628213Y-57760292D01*
X170739707Y-57871786D01*
X170739711Y-57871789D01*
X170870814Y-57959390D01*
X170870827Y-57959397D01*
X171008683Y-58016498D01*
X171016503Y-58019737D01*
X171171153Y-58050499D01*
X171171156Y-58050500D01*
X171171158Y-58050500D01*
X171328844Y-58050500D01*
X171328845Y-58050499D01*
X171483497Y-58019737D01*
X171629179Y-57959394D01*
X171760289Y-57871789D01*
X171871789Y-57760289D01*
X171959394Y-57629179D01*
X172019737Y-57483497D01*
X172050500Y-57328842D01*
X172050500Y-57171158D01*
X172050500Y-57171155D01*
X172050499Y-57171153D01*
X172044422Y-57140601D01*
X172019737Y-57016503D01*
X172010704Y-56994696D01*
X171959397Y-56870827D01*
X171959390Y-56870814D01*
X171871789Y-56739711D01*
X171871786Y-56739707D01*
X171760292Y-56628213D01*
X171760288Y-56628210D01*
X171629185Y-56540609D01*
X171629172Y-56540602D01*
X171483501Y-56480264D01*
X171483489Y-56480261D01*
X171328845Y-56449500D01*
X171328842Y-56449500D01*
X171171158Y-56449500D01*
X171171155Y-56449500D01*
X171016510Y-56480261D01*
X171016498Y-56480264D01*
X170870827Y-56540602D01*
X170870814Y-56540609D01*
X170739711Y-56628210D01*
X170739707Y-56628213D01*
X170628213Y-56739707D01*
X170628210Y-56739711D01*
X170540609Y-56870814D01*
X170540602Y-56870827D01*
X170480264Y-57016498D01*
X170480261Y-57016510D01*
X170449500Y-57171153D01*
X146000500Y-57171153D01*
X146000500Y-54905237D01*
X151696000Y-54905237D01*
X151696000Y-55094762D01*
X151725645Y-55281937D01*
X151784210Y-55462178D01*
X151870246Y-55631033D01*
X151889253Y-55657192D01*
X151889253Y-55657193D01*
X152457861Y-55088584D01*
X152480667Y-55173694D01*
X152539910Y-55276306D01*
X152623694Y-55360090D01*
X152726306Y-55419333D01*
X152811414Y-55442137D01*
X152242806Y-56010745D01*
X152242806Y-56010746D01*
X152268966Y-56029752D01*
X152437821Y-56115789D01*
X152618062Y-56174354D01*
X152805238Y-56204000D01*
X152994762Y-56204000D01*
X153181937Y-56174354D01*
X153362182Y-56115788D01*
X153362184Y-56115787D01*
X153531027Y-56029756D01*
X153531043Y-56029746D01*
X153557192Y-56010746D01*
X153557193Y-56010745D01*
X152988585Y-55442137D01*
X153073694Y-55419333D01*
X153176306Y-55360090D01*
X153260090Y-55276306D01*
X153319333Y-55173694D01*
X153342137Y-55088585D01*
X153910745Y-55657193D01*
X153910746Y-55657192D01*
X153929746Y-55631043D01*
X153929756Y-55631027D01*
X154015787Y-55462184D01*
X154015788Y-55462182D01*
X154074354Y-55281937D01*
X154104000Y-55094762D01*
X154104000Y-54905237D01*
X154103994Y-54905199D01*
X159295500Y-54905199D01*
X159295500Y-55094800D01*
X159321711Y-55260292D01*
X159325158Y-55282055D01*
X159353998Y-55370814D01*
X159383747Y-55462372D01*
X159428651Y-55550500D01*
X159469819Y-55631296D01*
X159581259Y-55784679D01*
X159715321Y-55918741D01*
X159868704Y-56030181D01*
X159948515Y-56070846D01*
X160037627Y-56116252D01*
X160037629Y-56116252D01*
X160037632Y-56116254D01*
X160217945Y-56174842D01*
X160311574Y-56189671D01*
X160405200Y-56204500D01*
X160405204Y-56204500D01*
X160594800Y-56204500D01*
X160681884Y-56190707D01*
X160782055Y-56174842D01*
X160962368Y-56116254D01*
X161131296Y-56030181D01*
X161284679Y-55918741D01*
X161418741Y-55784679D01*
X161530181Y-55631296D01*
X161616254Y-55462368D01*
X161674842Y-55282055D01*
X161692407Y-55171153D01*
X161704500Y-55094800D01*
X161704500Y-54905199D01*
X161686349Y-54790602D01*
X161674842Y-54717945D01*
X161616254Y-54537632D01*
X161616252Y-54537629D01*
X161616252Y-54537627D01*
X161566887Y-54440743D01*
X161530181Y-54368704D01*
X161418741Y-54215321D01*
X161284679Y-54081259D01*
X161131296Y-53969819D01*
X161091418Y-53949500D01*
X160962372Y-53883747D01*
X160903905Y-53864750D01*
X160782055Y-53825158D01*
X160782051Y-53825157D01*
X160782050Y-53825157D01*
X160594800Y-53795500D01*
X160594796Y-53795500D01*
X160405204Y-53795500D01*
X160405200Y-53795500D01*
X160217949Y-53825157D01*
X160217946Y-53825157D01*
X160217945Y-53825158D01*
X160206595Y-53828846D01*
X160037627Y-53883747D01*
X159868703Y-53969819D01*
X159715319Y-54081260D01*
X159581260Y-54215319D01*
X159469819Y-54368703D01*
X159383747Y-54537627D01*
X159325157Y-54717949D01*
X159295500Y-54905199D01*
X154103994Y-54905199D01*
X154074354Y-54718062D01*
X154015789Y-54537821D01*
X153929752Y-54368966D01*
X153910745Y-54342806D01*
X153342137Y-54911414D01*
X153319333Y-54826306D01*
X153260090Y-54723694D01*
X153176306Y-54639910D01*
X153073694Y-54580667D01*
X152988584Y-54557861D01*
X153557193Y-53989253D01*
X153531033Y-53970246D01*
X153362178Y-53884210D01*
X153181937Y-53825645D01*
X152994762Y-53796000D01*
X152805238Y-53796000D01*
X152618062Y-53825645D01*
X152437821Y-53884210D01*
X152268969Y-53970245D01*
X152242806Y-53989253D01*
X152811415Y-54557861D01*
X152726306Y-54580667D01*
X152623694Y-54639910D01*
X152539910Y-54723694D01*
X152480667Y-54826306D01*
X152457861Y-54911414D01*
X151889253Y-54342806D01*
X151870245Y-54368969D01*
X151784210Y-54537821D01*
X151725645Y-54718062D01*
X151696000Y-54905237D01*
X146000500Y-54905237D01*
X146000500Y-52921153D01*
X171199500Y-52921153D01*
X171199500Y-53078846D01*
X171230261Y-53233489D01*
X171230264Y-53233501D01*
X171290602Y-53379172D01*
X171290609Y-53379185D01*
X171378210Y-53510288D01*
X171378213Y-53510292D01*
X171489707Y-53621786D01*
X171489711Y-53621789D01*
X171620814Y-53709390D01*
X171620827Y-53709397D01*
X171766498Y-53769735D01*
X171766503Y-53769737D01*
X171898535Y-53796000D01*
X171921153Y-53800499D01*
X171921156Y-53800500D01*
X171921158Y-53800500D01*
X172078844Y-53800500D01*
X172078845Y-53800499D01*
X172233497Y-53769737D01*
X172379179Y-53709394D01*
X172510289Y-53621789D01*
X172621789Y-53510289D01*
X172709394Y-53379179D01*
X172712854Y-53370827D01*
X172765957Y-53242623D01*
X172769737Y-53233497D01*
X172800500Y-53078842D01*
X172800500Y-52921158D01*
X172800500Y-52921155D01*
X172800499Y-52921153D01*
X172798760Y-52912411D01*
X172769737Y-52766503D01*
X172730242Y-52671153D01*
X177449500Y-52671153D01*
X177449500Y-52828846D01*
X177480261Y-52983489D01*
X177480264Y-52983501D01*
X177540602Y-53129172D01*
X177540609Y-53129185D01*
X177628210Y-53260288D01*
X177628213Y-53260292D01*
X177739707Y-53371786D01*
X177739711Y-53371789D01*
X177870814Y-53459390D01*
X177870827Y-53459397D01*
X178008683Y-53516498D01*
X178016503Y-53519737D01*
X178171153Y-53550499D01*
X178171156Y-53550500D01*
X178300875Y-53550500D01*
X178367914Y-53570185D01*
X178413669Y-53622989D01*
X178424875Y-53674500D01*
X178424875Y-53779223D01*
X178455636Y-53933866D01*
X178455639Y-53933878D01*
X178517184Y-54082461D01*
X178524653Y-54151930D01*
X178517184Y-54177365D01*
X178480264Y-54266498D01*
X178480261Y-54266510D01*
X178449500Y-54421153D01*
X178449500Y-54578846D01*
X178480261Y-54733489D01*
X178480264Y-54733501D01*
X178540602Y-54879172D01*
X178540609Y-54879185D01*
X178628210Y-55010288D01*
X178628213Y-55010292D01*
X178739710Y-55121789D01*
X178817392Y-55173694D01*
X178870821Y-55209394D01*
X178872945Y-55210274D01*
X178873885Y-55211031D01*
X178876192Y-55212264D01*
X178875958Y-55212701D01*
X178927349Y-55254107D01*
X178949421Y-55320399D01*
X178949500Y-55324837D01*
X178949500Y-55328846D01*
X178980261Y-55483489D01*
X178980264Y-55483501D01*
X179008038Y-55550553D01*
X179015507Y-55620022D01*
X178984232Y-55682501D01*
X178940929Y-55712566D01*
X178870827Y-55741602D01*
X178870814Y-55741609D01*
X178739711Y-55829210D01*
X178739707Y-55829213D01*
X178628213Y-55940707D01*
X178628210Y-55940711D01*
X178540609Y-56071814D01*
X178540602Y-56071827D01*
X178480264Y-56217498D01*
X178480261Y-56217510D01*
X178449500Y-56372153D01*
X178449500Y-56529846D01*
X178480261Y-56684489D01*
X178480264Y-56684501D01*
X178540602Y-56830172D01*
X178540609Y-56830185D01*
X178628210Y-56961288D01*
X178632076Y-56965999D01*
X178630458Y-56967326D01*
X178659387Y-57020304D01*
X178654403Y-57089996D01*
X178612531Y-57145929D01*
X178607112Y-57149764D01*
X178489711Y-57228209D01*
X178489707Y-57228212D01*
X178378213Y-57339706D01*
X178378210Y-57339710D01*
X178290609Y-57470813D01*
X178290602Y-57470826D01*
X178230264Y-57616497D01*
X178230261Y-57616509D01*
X178199500Y-57771152D01*
X178199500Y-57928845D01*
X178230261Y-58083488D01*
X178230264Y-58083500D01*
X178290602Y-58229171D01*
X178290609Y-58229184D01*
X178378210Y-58360287D01*
X178378213Y-58360291D01*
X178489707Y-58471785D01*
X178489711Y-58471788D01*
X178620814Y-58559389D01*
X178620827Y-58559396D01*
X178766498Y-58619734D01*
X178766503Y-58619736D01*
X178900275Y-58646345D01*
X178921153Y-58650498D01*
X178921156Y-58650499D01*
X178921158Y-58650499D01*
X179078844Y-58650499D01*
X179078845Y-58650498D01*
X179233497Y-58619736D01*
X179379179Y-58559393D01*
X179510289Y-58471788D01*
X179621789Y-58360288D01*
X179709394Y-58229178D01*
X179769737Y-58083496D01*
X179775951Y-58052253D01*
X179808335Y-57990345D01*
X179850114Y-57961885D01*
X179891328Y-57944815D01*
X180022438Y-57857210D01*
X180133938Y-57745710D01*
X180221543Y-57614600D01*
X180281886Y-57468918D01*
X180312649Y-57314263D01*
X180312649Y-57156579D01*
X180312649Y-57156576D01*
X180312648Y-57156574D01*
X180309471Y-57140601D01*
X180281886Y-57001924D01*
X180267555Y-56967326D01*
X180221546Y-56856248D01*
X180221539Y-56856235D01*
X180133938Y-56725132D01*
X180133935Y-56725128D01*
X180078809Y-56670002D01*
X180052681Y-56622153D01*
X187449500Y-56622153D01*
X187449500Y-56779846D01*
X187480261Y-56934489D01*
X187480264Y-56934501D01*
X187540602Y-57080172D01*
X187540609Y-57080185D01*
X187628210Y-57211288D01*
X187628213Y-57211292D01*
X187739707Y-57322786D01*
X187739711Y-57322789D01*
X187870814Y-57410390D01*
X187870827Y-57410397D01*
X188012121Y-57468922D01*
X188016503Y-57470737D01*
X188156981Y-57498680D01*
X188162260Y-57499730D01*
X188224171Y-57532115D01*
X188258745Y-57592830D01*
X188255006Y-57662600D01*
X188252633Y-57668791D01*
X188230263Y-57722800D01*
X188230262Y-57722803D01*
X188230262Y-57722804D01*
X188230261Y-57722807D01*
X188199500Y-57877450D01*
X188199500Y-58035143D01*
X188230261Y-58189786D01*
X188230263Y-58189794D01*
X188231469Y-58192705D01*
X188231646Y-58194352D01*
X188232031Y-58195621D01*
X188231790Y-58195694D01*
X188238938Y-58262174D01*
X188207663Y-58324654D01*
X188147574Y-58360306D01*
X188141100Y-58361775D01*
X188016508Y-58386558D01*
X188016498Y-58386561D01*
X187870827Y-58446899D01*
X187870814Y-58446906D01*
X187739711Y-58534507D01*
X187739707Y-58534510D01*
X187628213Y-58646004D01*
X187628210Y-58646008D01*
X187540609Y-58777111D01*
X187540602Y-58777124D01*
X187480264Y-58922795D01*
X187480261Y-58922807D01*
X187449500Y-59077450D01*
X187449500Y-59235143D01*
X187480261Y-59389786D01*
X187480264Y-59389798D01*
X187540602Y-59535469D01*
X187540609Y-59535482D01*
X187628210Y-59666585D01*
X187628213Y-59666589D01*
X187739707Y-59778083D01*
X187739711Y-59778086D01*
X187870814Y-59865687D01*
X187870827Y-59865694D01*
X188004719Y-59921153D01*
X188016503Y-59926034D01*
X188171153Y-59956796D01*
X188171156Y-59956797D01*
X188171158Y-59956797D01*
X188328844Y-59956797D01*
X188328845Y-59956796D01*
X188483497Y-59926034D01*
X188628356Y-59866032D01*
X188629172Y-59865694D01*
X188629172Y-59865693D01*
X188629179Y-59865691D01*
X188760289Y-59778086D01*
X188760290Y-59778084D01*
X188762412Y-59776667D01*
X188829089Y-59755789D01*
X188896469Y-59774273D01*
X188943160Y-59826252D01*
X188954336Y-59895222D01*
X188952921Y-59903959D01*
X188949500Y-59921158D01*
X188949500Y-60078846D01*
X188980261Y-60233489D01*
X188980264Y-60233501D01*
X189040602Y-60379172D01*
X189040609Y-60379185D01*
X189128210Y-60510288D01*
X189128213Y-60510292D01*
X189239707Y-60621786D01*
X189239711Y-60621789D01*
X189370814Y-60709390D01*
X189370827Y-60709397D01*
X189508683Y-60766498D01*
X189516503Y-60769737D01*
X189671153Y-60800499D01*
X189671156Y-60800500D01*
X189671158Y-60800500D01*
X189828844Y-60800500D01*
X189828845Y-60800499D01*
X189983497Y-60769737D01*
X190129179Y-60709394D01*
X190260289Y-60621789D01*
X190371789Y-60510289D01*
X190459394Y-60379179D01*
X190519737Y-60233497D01*
X190550500Y-60078842D01*
X190550500Y-59921158D01*
X190550500Y-59921155D01*
X190550499Y-59921153D01*
X191049500Y-59921153D01*
X191049500Y-60078846D01*
X191080261Y-60233489D01*
X191080264Y-60233501D01*
X191140602Y-60379172D01*
X191140609Y-60379185D01*
X191228210Y-60510288D01*
X191228213Y-60510292D01*
X191339707Y-60621786D01*
X191339711Y-60621789D01*
X191470814Y-60709390D01*
X191470827Y-60709397D01*
X191608683Y-60766498D01*
X191616503Y-60769737D01*
X191771153Y-60800499D01*
X191771156Y-60800500D01*
X191771158Y-60800500D01*
X191928844Y-60800500D01*
X191928845Y-60800499D01*
X191939179Y-60798443D01*
X191964287Y-60793450D01*
X191964292Y-60793449D01*
X192049800Y-60776439D01*
X192083497Y-60769737D01*
X192229179Y-60709394D01*
X192360289Y-60621789D01*
X192471789Y-60510289D01*
X192559394Y-60379179D01*
X192619737Y-60233497D01*
X192650500Y-60078842D01*
X192650500Y-59921158D01*
X192650500Y-59921155D01*
X192650499Y-59921153D01*
X192642148Y-59879172D01*
X192619737Y-59766503D01*
X192578492Y-59666927D01*
X192559397Y-59620827D01*
X192559390Y-59620814D01*
X192471789Y-59489711D01*
X192471786Y-59489707D01*
X192360292Y-59378213D01*
X192360288Y-59378210D01*
X192229185Y-59290609D01*
X192229172Y-59290602D01*
X192083501Y-59230264D01*
X192083489Y-59230261D01*
X191928845Y-59199500D01*
X191928842Y-59199500D01*
X191771158Y-59199500D01*
X191771155Y-59199500D01*
X191616510Y-59230261D01*
X191616498Y-59230264D01*
X191470827Y-59290602D01*
X191470814Y-59290609D01*
X191339711Y-59378210D01*
X191339707Y-59378213D01*
X191228213Y-59489707D01*
X191228210Y-59489711D01*
X191140609Y-59620814D01*
X191140602Y-59620827D01*
X191080264Y-59766498D01*
X191080261Y-59766510D01*
X191049500Y-59921153D01*
X190550499Y-59921153D01*
X190542148Y-59879172D01*
X190519737Y-59766503D01*
X190478492Y-59666927D01*
X190459397Y-59620827D01*
X190459390Y-59620814D01*
X190371789Y-59489711D01*
X190371786Y-59489707D01*
X190260292Y-59378213D01*
X190260286Y-59378208D01*
X190236420Y-59362261D01*
X190225625Y-59349344D01*
X190211477Y-59340222D01*
X190203684Y-59323090D01*
X190191615Y-59308648D01*
X190189517Y-59291943D01*
X190182548Y-59276622D01*
X190185254Y-59257997D01*
X190182909Y-59239323D01*
X190190242Y-59223667D01*
X190192595Y-59207479D01*
X190208620Y-59184434D01*
X190211721Y-59177816D01*
X190214556Y-59174553D01*
X190311319Y-59077791D01*
X193463504Y-59077791D01*
X193463504Y-59235484D01*
X193494265Y-59390127D01*
X193494268Y-59390139D01*
X193554606Y-59535810D01*
X193554613Y-59535823D01*
X193642214Y-59666926D01*
X193642217Y-59666930D01*
X193753711Y-59778424D01*
X193753715Y-59778427D01*
X193884818Y-59866028D01*
X193884831Y-59866035D01*
X194017912Y-59921158D01*
X194030507Y-59926375D01*
X194183443Y-59956796D01*
X194185157Y-59957137D01*
X194185160Y-59957138D01*
X194185162Y-59957138D01*
X194342848Y-59957138D01*
X194342849Y-59957137D01*
X194497501Y-59926375D01*
X194643183Y-59866032D01*
X194774293Y-59778427D01*
X194885793Y-59666927D01*
X194973398Y-59535817D01*
X195033741Y-59390135D01*
X195064504Y-59235480D01*
X195064504Y-59077796D01*
X195064504Y-59077793D01*
X195064503Y-59077791D01*
X195052311Y-59016498D01*
X195033741Y-58923141D01*
X195015534Y-58879185D01*
X194973401Y-58777465D01*
X194973394Y-58777452D01*
X194885793Y-58646349D01*
X194885790Y-58646345D01*
X194774296Y-58534851D01*
X194774292Y-58534848D01*
X194643189Y-58447247D01*
X194643176Y-58447240D01*
X194497505Y-58386902D01*
X194497493Y-58386899D01*
X194342849Y-58356138D01*
X194342846Y-58356138D01*
X194185162Y-58356138D01*
X194185159Y-58356138D01*
X194030514Y-58386899D01*
X194030502Y-58386902D01*
X193884831Y-58447240D01*
X193884818Y-58447247D01*
X193753715Y-58534848D01*
X193753711Y-58534851D01*
X193642217Y-58646345D01*
X193642214Y-58646349D01*
X193554613Y-58777452D01*
X193554606Y-58777465D01*
X193494268Y-58923136D01*
X193494265Y-58923148D01*
X193463504Y-59077791D01*
X190311319Y-59077791D01*
X190322524Y-59066586D01*
X190410129Y-58935476D01*
X190411257Y-58932754D01*
X190470134Y-58790609D01*
X190470472Y-58789794D01*
X190501235Y-58635139D01*
X190501235Y-58477455D01*
X190501235Y-58477452D01*
X190501234Y-58477450D01*
X190483223Y-58386902D01*
X190470472Y-58322800D01*
X190432143Y-58230264D01*
X190410132Y-58177124D01*
X190410125Y-58177111D01*
X190322524Y-58046008D01*
X190322521Y-58046004D01*
X190211027Y-57934510D01*
X190211023Y-57934507D01*
X190079920Y-57846906D01*
X190079907Y-57846899D01*
X189934236Y-57786561D01*
X189934226Y-57786558D01*
X189848753Y-57769556D01*
X189786842Y-57737171D01*
X189758384Y-57695391D01*
X189709397Y-57577124D01*
X189709390Y-57577111D01*
X189621789Y-57446008D01*
X189621786Y-57446004D01*
X189510292Y-57334510D01*
X189510288Y-57334507D01*
X189411005Y-57268168D01*
X189379185Y-57246906D01*
X189379172Y-57246899D01*
X189233501Y-57186561D01*
X189233491Y-57186558D01*
X189156045Y-57171153D01*
X192949500Y-57171153D01*
X192949500Y-57328846D01*
X192980261Y-57483489D01*
X192980264Y-57483501D01*
X193040602Y-57629172D01*
X193040609Y-57629185D01*
X193128210Y-57760288D01*
X193128213Y-57760292D01*
X193239707Y-57871786D01*
X193239711Y-57871789D01*
X193370814Y-57959390D01*
X193370827Y-57959397D01*
X193508683Y-58016498D01*
X193516503Y-58019737D01*
X193671153Y-58050499D01*
X193671156Y-58050500D01*
X193671158Y-58050500D01*
X193828844Y-58050500D01*
X193828845Y-58050499D01*
X193983497Y-58019737D01*
X194129179Y-57959394D01*
X194260289Y-57871789D01*
X194371789Y-57760289D01*
X194459394Y-57629179D01*
X194519737Y-57483497D01*
X194532138Y-57421153D01*
X197699500Y-57421153D01*
X197699500Y-57578846D01*
X197730261Y-57733489D01*
X197730264Y-57733501D01*
X197790602Y-57879172D01*
X197790609Y-57879185D01*
X197878210Y-58010288D01*
X197878213Y-58010292D01*
X197989707Y-58121786D01*
X197989711Y-58121789D01*
X198120814Y-58209390D01*
X198120827Y-58209397D01*
X198248244Y-58262174D01*
X198266503Y-58269737D01*
X198421153Y-58300499D01*
X198421156Y-58300500D01*
X198421158Y-58300500D01*
X198578844Y-58300500D01*
X198578845Y-58300499D01*
X198733497Y-58269737D01*
X198879179Y-58209394D01*
X199010289Y-58121789D01*
X199121789Y-58010289D01*
X199209394Y-57879179D01*
X199212854Y-57870827D01*
X199223067Y-57846166D01*
X199269737Y-57733497D01*
X199300500Y-57578842D01*
X199300500Y-57421158D01*
X199300500Y-57421155D01*
X199300499Y-57421153D01*
X199284298Y-57339706D01*
X199269737Y-57266503D01*
X199261620Y-57246906D01*
X199209397Y-57120827D01*
X199209390Y-57120814D01*
X199121789Y-56989711D01*
X199121786Y-56989707D01*
X199010292Y-56878213D01*
X199010288Y-56878210D01*
X198879185Y-56790609D01*
X198879172Y-56790602D01*
X198733501Y-56730264D01*
X198733489Y-56730261D01*
X198578845Y-56699500D01*
X198578842Y-56699500D01*
X198421158Y-56699500D01*
X198421155Y-56699500D01*
X198266510Y-56730261D01*
X198266498Y-56730264D01*
X198120827Y-56790602D01*
X198120814Y-56790609D01*
X197989711Y-56878210D01*
X197989707Y-56878213D01*
X197878213Y-56989707D01*
X197878210Y-56989711D01*
X197790609Y-57120814D01*
X197790602Y-57120827D01*
X197730264Y-57266498D01*
X197730261Y-57266510D01*
X197699500Y-57421153D01*
X194532138Y-57421153D01*
X194538161Y-57390874D01*
X194550500Y-57328844D01*
X194550500Y-57171155D01*
X194550499Y-57171153D01*
X194544422Y-57140601D01*
X194519737Y-57016503D01*
X194510704Y-56994696D01*
X194459397Y-56870827D01*
X194459390Y-56870814D01*
X194371789Y-56739711D01*
X194371786Y-56739707D01*
X194260292Y-56628213D01*
X194260288Y-56628210D01*
X194129185Y-56540609D01*
X194129172Y-56540602D01*
X193983501Y-56480264D01*
X193983489Y-56480261D01*
X193828845Y-56449500D01*
X193828842Y-56449500D01*
X193671158Y-56449500D01*
X193671155Y-56449500D01*
X193516510Y-56480261D01*
X193516498Y-56480264D01*
X193370827Y-56540602D01*
X193370814Y-56540609D01*
X193239711Y-56628210D01*
X193239707Y-56628213D01*
X193128213Y-56739707D01*
X193128210Y-56739711D01*
X193040609Y-56870814D01*
X193040602Y-56870827D01*
X192980264Y-57016498D01*
X192980261Y-57016510D01*
X192949500Y-57171153D01*
X189156045Y-57171153D01*
X189087738Y-57157566D01*
X189025828Y-57125181D01*
X188991253Y-57064465D01*
X188994993Y-56994696D01*
X188997350Y-56988542D01*
X189019737Y-56934497D01*
X189050500Y-56779842D01*
X189050500Y-56622158D01*
X189050500Y-56622155D01*
X189021099Y-56474349D01*
X189027326Y-56404757D01*
X189070189Y-56349580D01*
X189136079Y-56326335D01*
X189204076Y-56342403D01*
X189230397Y-56362476D01*
X189239707Y-56371786D01*
X189239711Y-56371789D01*
X189370814Y-56459390D01*
X189370827Y-56459397D01*
X189516498Y-56519735D01*
X189516503Y-56519737D01*
X189671153Y-56550499D01*
X189671156Y-56550500D01*
X189671158Y-56550500D01*
X189828844Y-56550500D01*
X189828845Y-56550499D01*
X189983497Y-56519737D01*
X190129179Y-56459394D01*
X190260289Y-56371789D01*
X190371789Y-56260289D01*
X190459394Y-56129179D01*
X190464749Y-56116252D01*
X190500576Y-56029756D01*
X190519737Y-55983497D01*
X190550500Y-55828842D01*
X190550500Y-55671158D01*
X190550500Y-55671155D01*
X190550499Y-55671153D01*
X190542571Y-55631296D01*
X190519737Y-55516503D01*
X190497557Y-55462955D01*
X190459397Y-55370827D01*
X190459390Y-55370814D01*
X190371789Y-55239711D01*
X190371786Y-55239707D01*
X190260292Y-55128213D01*
X190260288Y-55128210D01*
X190129185Y-55040609D01*
X190129173Y-55040602D01*
X190102674Y-55029627D01*
X189983501Y-54980264D01*
X189983489Y-54980261D01*
X189828845Y-54949500D01*
X189828842Y-54949500D01*
X189671158Y-54949500D01*
X189671155Y-54949500D01*
X189516511Y-54980260D01*
X189516501Y-54980263D01*
X189484041Y-54993709D01*
X189414571Y-55001178D01*
X189352092Y-54969902D01*
X189348908Y-54966829D01*
X189303232Y-54921153D01*
X197199500Y-54921153D01*
X197199500Y-55078846D01*
X197230261Y-55233489D01*
X197230264Y-55233501D01*
X197290602Y-55379172D01*
X197290609Y-55379185D01*
X197378210Y-55510288D01*
X197378213Y-55510292D01*
X197489707Y-55621786D01*
X197489711Y-55621789D01*
X197620814Y-55709390D01*
X197620827Y-55709397D01*
X197766498Y-55769735D01*
X197766503Y-55769737D01*
X197921153Y-55800499D01*
X197921156Y-55800500D01*
X197921158Y-55800500D01*
X198078844Y-55800500D01*
X198078845Y-55800499D01*
X198233497Y-55769737D01*
X198379179Y-55709394D01*
X198510289Y-55621789D01*
X198621789Y-55510289D01*
X198709394Y-55379179D01*
X198712854Y-55370827D01*
X198749626Y-55282050D01*
X198769737Y-55233497D01*
X198800500Y-55078842D01*
X198800500Y-54921158D01*
X198800500Y-54921155D01*
X198800499Y-54921153D01*
X209199500Y-54921153D01*
X209199500Y-55078846D01*
X209230261Y-55233489D01*
X209230264Y-55233501D01*
X209290602Y-55379172D01*
X209290609Y-55379185D01*
X209378210Y-55510288D01*
X209378213Y-55510292D01*
X209489707Y-55621786D01*
X209489711Y-55621789D01*
X209620814Y-55709390D01*
X209620827Y-55709397D01*
X209766498Y-55769735D01*
X209766503Y-55769737D01*
X209921153Y-55800499D01*
X209921156Y-55800500D01*
X209921158Y-55800500D01*
X210078844Y-55800500D01*
X210078845Y-55800499D01*
X210233497Y-55769737D01*
X210379179Y-55709394D01*
X210510289Y-55621789D01*
X210621789Y-55510289D01*
X210709394Y-55379179D01*
X210712854Y-55370827D01*
X210749626Y-55282050D01*
X210769737Y-55233497D01*
X210800500Y-55078842D01*
X210800500Y-54921158D01*
X210800500Y-54921155D01*
X210800499Y-54921153D01*
X210797333Y-54905237D01*
X210769737Y-54766503D01*
X210758640Y-54739712D01*
X210709397Y-54620827D01*
X210709390Y-54620814D01*
X210621789Y-54489711D01*
X210621786Y-54489707D01*
X210510292Y-54378213D01*
X210510288Y-54378210D01*
X210379185Y-54290609D01*
X210379172Y-54290602D01*
X210233501Y-54230264D01*
X210233489Y-54230261D01*
X210078845Y-54199500D01*
X210078842Y-54199500D01*
X209921158Y-54199500D01*
X209921155Y-54199500D01*
X209766510Y-54230261D01*
X209766498Y-54230264D01*
X209620827Y-54290602D01*
X209620814Y-54290609D01*
X209489711Y-54378210D01*
X209489707Y-54378213D01*
X209378213Y-54489707D01*
X209378210Y-54489711D01*
X209290609Y-54620814D01*
X209290602Y-54620827D01*
X209230264Y-54766498D01*
X209230261Y-54766510D01*
X209199500Y-54921153D01*
X198800499Y-54921153D01*
X198797333Y-54905237D01*
X198769737Y-54766503D01*
X198758640Y-54739712D01*
X198709397Y-54620827D01*
X198709390Y-54620814D01*
X198621789Y-54489711D01*
X198621786Y-54489707D01*
X198510292Y-54378213D01*
X198510288Y-54378210D01*
X198379185Y-54290609D01*
X198379172Y-54290602D01*
X198233501Y-54230264D01*
X198233489Y-54230261D01*
X198078845Y-54199500D01*
X198078842Y-54199500D01*
X197921158Y-54199500D01*
X197921155Y-54199500D01*
X197766510Y-54230261D01*
X197766498Y-54230264D01*
X197620827Y-54290602D01*
X197620814Y-54290609D01*
X197489711Y-54378210D01*
X197489707Y-54378213D01*
X197378213Y-54489707D01*
X197378210Y-54489711D01*
X197290609Y-54620814D01*
X197290602Y-54620827D01*
X197230264Y-54766498D01*
X197230261Y-54766510D01*
X197199500Y-54921153D01*
X189303232Y-54921153D01*
X189260292Y-54878213D01*
X189260288Y-54878210D01*
X189129185Y-54790609D01*
X189129172Y-54790602D01*
X188983501Y-54730264D01*
X188983489Y-54730261D01*
X188828845Y-54699500D01*
X188828842Y-54699500D01*
X188671158Y-54699500D01*
X188671155Y-54699500D01*
X188516510Y-54730261D01*
X188516498Y-54730264D01*
X188370827Y-54790602D01*
X188370814Y-54790609D01*
X188239711Y-54878210D01*
X188239707Y-54878213D01*
X188128213Y-54989707D01*
X188128210Y-54989711D01*
X188040609Y-55120814D01*
X188040602Y-55120827D01*
X187980264Y-55266498D01*
X187980261Y-55266510D01*
X187949500Y-55421153D01*
X187949500Y-55578846D01*
X187980261Y-55733489D01*
X187980264Y-55733501D01*
X188008038Y-55800553D01*
X188015507Y-55870022D01*
X187984232Y-55932501D01*
X187940929Y-55962566D01*
X187870827Y-55991602D01*
X187870814Y-55991609D01*
X187739711Y-56079210D01*
X187739707Y-56079213D01*
X187628213Y-56190707D01*
X187628210Y-56190711D01*
X187540609Y-56321814D01*
X187540602Y-56321827D01*
X187480264Y-56467498D01*
X187480261Y-56467510D01*
X187449500Y-56622153D01*
X180052681Y-56622153D01*
X180045324Y-56608679D01*
X180044873Y-56558129D01*
X180050500Y-56529842D01*
X180050500Y-56372158D01*
X180050500Y-56372155D01*
X180050499Y-56372153D01*
X180028248Y-56260292D01*
X180019737Y-56217503D01*
X179991960Y-56150444D01*
X179984492Y-56080978D01*
X180015767Y-56018498D01*
X180059065Y-55988435D01*
X180129179Y-55959394D01*
X180260289Y-55871789D01*
X180371789Y-55760289D01*
X180459394Y-55629179D01*
X180519737Y-55483497D01*
X180550500Y-55328842D01*
X180550500Y-55171158D01*
X180550500Y-55171155D01*
X180550499Y-55171153D01*
X180535311Y-55094800D01*
X180519737Y-55016503D01*
X180512901Y-54999999D01*
X180459397Y-54870827D01*
X180459390Y-54870814D01*
X180371790Y-54739712D01*
X180371784Y-54739705D01*
X180303232Y-54671153D01*
X182399497Y-54671153D01*
X182399497Y-54828846D01*
X182430258Y-54983489D01*
X182430261Y-54983501D01*
X182490599Y-55129172D01*
X182490606Y-55129185D01*
X182578207Y-55260288D01*
X182578210Y-55260292D01*
X182689704Y-55371786D01*
X182689708Y-55371789D01*
X182820811Y-55459390D01*
X182820824Y-55459397D01*
X182958680Y-55516498D01*
X182966500Y-55519737D01*
X183121150Y-55550499D01*
X183121153Y-55550500D01*
X183121155Y-55550500D01*
X183278841Y-55550500D01*
X183278842Y-55550499D01*
X183433494Y-55519737D01*
X183552547Y-55470423D01*
X183622014Y-55462955D01*
X183647447Y-55470422D01*
X183766503Y-55519737D01*
X183921153Y-55550499D01*
X183921156Y-55550500D01*
X183921158Y-55550500D01*
X184078844Y-55550500D01*
X184078845Y-55550499D01*
X184233497Y-55519737D01*
X184370582Y-55462955D01*
X184379172Y-55459397D01*
X184379172Y-55459396D01*
X184379179Y-55459394D01*
X184510289Y-55371789D01*
X184621789Y-55260289D01*
X184709394Y-55129179D01*
X184712854Y-55120827D01*
X184738362Y-55059244D01*
X184769737Y-54983497D01*
X184800500Y-54828842D01*
X184800500Y-54671158D01*
X184800500Y-54671155D01*
X184800499Y-54671153D01*
X184774530Y-54540601D01*
X184769737Y-54516503D01*
X184761192Y-54495873D01*
X184709397Y-54370827D01*
X184709390Y-54370814D01*
X184621789Y-54239711D01*
X184621786Y-54239707D01*
X184510292Y-54128213D01*
X184510288Y-54128210D01*
X184379185Y-54040609D01*
X184379172Y-54040602D01*
X184233501Y-53980264D01*
X184233489Y-53980261D01*
X184078845Y-53949500D01*
X184078842Y-53949500D01*
X183921158Y-53949500D01*
X183921155Y-53949500D01*
X183766510Y-53980261D01*
X183766498Y-53980264D01*
X183647450Y-54029575D01*
X183577980Y-54037044D01*
X183552546Y-54029575D01*
X183433498Y-53980264D01*
X183433486Y-53980261D01*
X183278842Y-53949500D01*
X183278839Y-53949500D01*
X183121155Y-53949500D01*
X183121152Y-53949500D01*
X182966507Y-53980261D01*
X182966495Y-53980264D01*
X182820824Y-54040602D01*
X182820811Y-54040609D01*
X182689708Y-54128210D01*
X182689704Y-54128213D01*
X182578210Y-54239707D01*
X182578207Y-54239711D01*
X182490606Y-54370814D01*
X182490599Y-54370827D01*
X182430261Y-54516498D01*
X182430258Y-54516510D01*
X182399497Y-54671153D01*
X180303232Y-54671153D01*
X180260292Y-54628213D01*
X180260288Y-54628210D01*
X180129185Y-54540609D01*
X180129169Y-54540601D01*
X180127038Y-54539718D01*
X180126094Y-54538957D01*
X180123809Y-54537736D01*
X180124040Y-54537302D01*
X180117460Y-54531998D01*
X180105717Y-54528335D01*
X180090767Y-54510484D01*
X180072638Y-54495873D01*
X180067655Y-54482888D01*
X180060856Y-54474770D01*
X180056460Y-54453714D01*
X180051483Y-54440743D01*
X180050500Y-54432982D01*
X180050500Y-54421158D01*
X180046376Y-54400425D01*
X180045828Y-54396099D01*
X180050714Y-54365745D01*
X180053454Y-54335120D01*
X180056216Y-54331563D01*
X180056932Y-54327118D01*
X180077453Y-54304223D01*
X180096316Y-54279941D01*
X180100562Y-54278442D01*
X180103568Y-54275090D01*
X180133207Y-54266925D01*
X180162205Y-54256695D01*
X180166587Y-54257730D01*
X180170928Y-54256535D01*
X180200272Y-54265689D01*
X180230202Y-54272761D01*
X180237610Y-54277337D01*
X180237628Y-54277343D01*
X180237637Y-54277353D01*
X180237736Y-54277415D01*
X180257472Y-54290602D01*
X180318225Y-54331196D01*
X180318227Y-54331197D01*
X180318231Y-54331199D01*
X180431730Y-54378211D01*
X180463907Y-54391539D01*
X180612786Y-54421153D01*
X180618557Y-54422301D01*
X180618560Y-54422302D01*
X180618562Y-54422302D01*
X180776248Y-54422302D01*
X180776249Y-54422301D01*
X180930901Y-54391539D01*
X181076583Y-54331196D01*
X181207693Y-54243591D01*
X181319193Y-54132091D01*
X181406798Y-54000981D01*
X181467141Y-53855299D01*
X181497904Y-53700644D01*
X181497904Y-53671153D01*
X207549500Y-53671153D01*
X207549500Y-53828846D01*
X207580261Y-53983489D01*
X207580264Y-53983501D01*
X207640602Y-54129172D01*
X207640609Y-54129185D01*
X207728210Y-54260288D01*
X207728213Y-54260292D01*
X207839707Y-54371786D01*
X207839711Y-54371789D01*
X207970814Y-54459390D01*
X207970827Y-54459397D01*
X208094164Y-54510484D01*
X208116503Y-54519737D01*
X208268644Y-54550000D01*
X208271153Y-54550499D01*
X208271156Y-54550500D01*
X208271158Y-54550500D01*
X208428844Y-54550500D01*
X208428845Y-54550499D01*
X208583497Y-54519737D01*
X208729179Y-54459394D01*
X208860289Y-54371789D01*
X208971789Y-54260289D01*
X209059394Y-54129179D01*
X209119737Y-53983497D01*
X209150500Y-53828842D01*
X209150500Y-53671158D01*
X209150500Y-53671155D01*
X209150499Y-53671153D01*
X209119737Y-53516503D01*
X209066639Y-53388312D01*
X209059397Y-53370827D01*
X209059390Y-53370814D01*
X208971789Y-53239711D01*
X208971786Y-53239707D01*
X208860292Y-53128213D01*
X208860288Y-53128210D01*
X208729185Y-53040609D01*
X208729172Y-53040602D01*
X208583501Y-52980264D01*
X208583489Y-52980261D01*
X208428845Y-52949500D01*
X208428842Y-52949500D01*
X208271158Y-52949500D01*
X208271155Y-52949500D01*
X208116510Y-52980261D01*
X208116498Y-52980264D01*
X207970827Y-53040602D01*
X207970814Y-53040609D01*
X207839711Y-53128210D01*
X207839707Y-53128213D01*
X207728213Y-53239707D01*
X207728210Y-53239711D01*
X207640609Y-53370814D01*
X207640602Y-53370827D01*
X207580264Y-53516498D01*
X207580261Y-53516510D01*
X207549500Y-53671153D01*
X181497904Y-53671153D01*
X181497904Y-53542960D01*
X181497904Y-53542957D01*
X181497903Y-53542955D01*
X181481282Y-53459397D01*
X181467141Y-53388305D01*
X181460299Y-53371786D01*
X181406801Y-53242629D01*
X181406794Y-53242616D01*
X181319193Y-53111513D01*
X181319190Y-53111509D01*
X181207696Y-53000015D01*
X181207692Y-53000012D01*
X181076589Y-52912411D01*
X181076576Y-52912404D01*
X180930905Y-52852066D01*
X180930893Y-52852063D01*
X180776249Y-52821302D01*
X180776246Y-52821302D01*
X180618562Y-52821302D01*
X180618559Y-52821302D01*
X180463914Y-52852063D01*
X180463902Y-52852066D01*
X180318231Y-52912404D01*
X180318218Y-52912411D01*
X180187115Y-53000012D01*
X180187111Y-53000015D01*
X180075615Y-53111511D01*
X180036579Y-53169932D01*
X179982966Y-53214736D01*
X179913641Y-53223442D01*
X179850614Y-53193286D01*
X179845797Y-53188720D01*
X179735667Y-53078590D01*
X179735663Y-53078587D01*
X179604560Y-52990986D01*
X179604547Y-52990979D01*
X179458876Y-52930641D01*
X179458864Y-52930638D01*
X179304220Y-52899877D01*
X179304217Y-52899877D01*
X179174500Y-52899877D01*
X179107461Y-52880192D01*
X179061706Y-52827388D01*
X179050500Y-52775877D01*
X179050500Y-52671155D01*
X179050499Y-52671153D01*
X179023673Y-52536292D01*
X179019737Y-52516503D01*
X179019735Y-52516498D01*
X178959397Y-52370827D01*
X178959390Y-52370814D01*
X178871789Y-52239711D01*
X178871786Y-52239707D01*
X178760292Y-52128213D01*
X178760288Y-52128210D01*
X178634511Y-52044168D01*
X178634509Y-52044166D01*
X178629190Y-52040612D01*
X178629172Y-52040602D01*
X178483501Y-51980264D01*
X178483489Y-51980261D01*
X178328845Y-51949500D01*
X178328842Y-51949500D01*
X178171158Y-51949500D01*
X178171155Y-51949500D01*
X178016510Y-51980261D01*
X178016498Y-51980264D01*
X177870827Y-52040602D01*
X177870814Y-52040609D01*
X177739711Y-52128210D01*
X177739707Y-52128213D01*
X177628213Y-52239707D01*
X177628210Y-52239711D01*
X177540609Y-52370814D01*
X177540602Y-52370827D01*
X177480264Y-52516498D01*
X177480261Y-52516510D01*
X177449500Y-52671153D01*
X172730242Y-52671153D01*
X172729933Y-52670408D01*
X172709397Y-52620827D01*
X172709390Y-52620814D01*
X172621789Y-52489711D01*
X172621786Y-52489707D01*
X172510292Y-52378213D01*
X172510288Y-52378210D01*
X172379185Y-52290609D01*
X172379172Y-52290602D01*
X172233501Y-52230264D01*
X172233489Y-52230261D01*
X172078845Y-52199500D01*
X172078842Y-52199500D01*
X171921158Y-52199500D01*
X171921155Y-52199500D01*
X171766510Y-52230261D01*
X171766498Y-52230264D01*
X171620827Y-52290602D01*
X171620814Y-52290609D01*
X171489711Y-52378210D01*
X171489707Y-52378213D01*
X171378213Y-52489707D01*
X171378210Y-52489711D01*
X171290609Y-52620814D01*
X171290602Y-52620827D01*
X171230264Y-52766498D01*
X171230261Y-52766510D01*
X171199500Y-52921153D01*
X146000500Y-52921153D01*
X146000500Y-51671153D01*
X167199500Y-51671153D01*
X167199500Y-51828846D01*
X167230261Y-51983489D01*
X167230264Y-51983501D01*
X167290602Y-52129172D01*
X167290609Y-52129185D01*
X167378210Y-52260288D01*
X167378213Y-52260292D01*
X167489707Y-52371786D01*
X167489711Y-52371789D01*
X167620814Y-52459390D01*
X167620827Y-52459397D01*
X167694013Y-52489711D01*
X167766503Y-52519737D01*
X167921153Y-52550499D01*
X167921156Y-52550500D01*
X167921158Y-52550500D01*
X168078844Y-52550500D01*
X168078845Y-52550499D01*
X168233497Y-52519737D01*
X168379179Y-52459394D01*
X168510289Y-52371789D01*
X168621789Y-52260289D01*
X168709394Y-52129179D01*
X168769737Y-51983497D01*
X168776966Y-51947153D01*
X197949500Y-51947153D01*
X197949500Y-52104846D01*
X197980261Y-52259489D01*
X197980264Y-52259501D01*
X198040602Y-52405172D01*
X198040609Y-52405185D01*
X198128210Y-52536288D01*
X198128213Y-52536292D01*
X198239707Y-52647786D01*
X198239711Y-52647789D01*
X198370814Y-52735390D01*
X198370827Y-52735397D01*
X198445925Y-52766503D01*
X198516503Y-52795737D01*
X198645026Y-52821302D01*
X198671153Y-52826499D01*
X198671156Y-52826500D01*
X198671158Y-52826500D01*
X198828844Y-52826500D01*
X198828845Y-52826499D01*
X198983497Y-52795737D01*
X199129179Y-52735394D01*
X199260289Y-52647789D01*
X199371789Y-52536289D01*
X199459394Y-52405179D01*
X199519737Y-52259497D01*
X199550500Y-52104842D01*
X199550500Y-51947158D01*
X199550500Y-51947155D01*
X199550499Y-51947153D01*
X199526966Y-51828846D01*
X199519737Y-51792503D01*
X199485314Y-51709397D01*
X199459397Y-51646827D01*
X199459390Y-51646814D01*
X199371789Y-51515711D01*
X199371786Y-51515707D01*
X199260292Y-51404213D01*
X199260288Y-51404210D01*
X199129185Y-51316609D01*
X199129172Y-51316602D01*
X198983501Y-51256264D01*
X198983489Y-51256261D01*
X198828845Y-51225500D01*
X198828842Y-51225500D01*
X198671158Y-51225500D01*
X198671155Y-51225500D01*
X198516510Y-51256261D01*
X198516498Y-51256264D01*
X198370827Y-51316602D01*
X198370814Y-51316609D01*
X198239711Y-51404210D01*
X198239707Y-51404213D01*
X198128213Y-51515707D01*
X198128210Y-51515711D01*
X198040609Y-51646814D01*
X198040602Y-51646827D01*
X197980264Y-51792498D01*
X197980261Y-51792510D01*
X197949500Y-51947153D01*
X168776966Y-51947153D01*
X168800500Y-51828842D01*
X168800500Y-51671158D01*
X168800500Y-51671155D01*
X168800499Y-51671153D01*
X168769738Y-51516510D01*
X168769737Y-51516503D01*
X168730200Y-51421051D01*
X168709397Y-51370827D01*
X168709390Y-51370814D01*
X168621789Y-51239711D01*
X168621786Y-51239707D01*
X168510292Y-51128213D01*
X168510288Y-51128210D01*
X168379185Y-51040609D01*
X168379172Y-51040602D01*
X168233501Y-50980264D01*
X168233489Y-50980261D01*
X168078845Y-50949500D01*
X168078842Y-50949500D01*
X167921158Y-50949500D01*
X167921155Y-50949500D01*
X167766510Y-50980261D01*
X167766498Y-50980264D01*
X167620827Y-51040602D01*
X167620814Y-51040609D01*
X167489711Y-51128210D01*
X167489707Y-51128213D01*
X167378213Y-51239707D01*
X167378210Y-51239711D01*
X167290609Y-51370814D01*
X167290602Y-51370827D01*
X167230264Y-51516498D01*
X167230261Y-51516510D01*
X167199500Y-51671153D01*
X146000500Y-51671153D01*
X146000500Y-50247613D01*
X172013799Y-50247613D01*
X172013799Y-50405306D01*
X172044560Y-50559949D01*
X172044563Y-50559961D01*
X172104901Y-50705632D01*
X172104908Y-50705645D01*
X172192509Y-50836748D01*
X172192512Y-50836752D01*
X172304006Y-50948246D01*
X172304010Y-50948249D01*
X172435113Y-51035850D01*
X172435126Y-51035857D01*
X172580797Y-51096195D01*
X172580802Y-51096197D01*
X172735452Y-51126959D01*
X172735455Y-51126960D01*
X172735457Y-51126960D01*
X172893143Y-51126960D01*
X172893144Y-51126959D01*
X173047796Y-51096197D01*
X173193478Y-51035854D01*
X173324588Y-50948249D01*
X173436088Y-50836749D01*
X173513818Y-50720418D01*
X180998765Y-50720418D01*
X180998765Y-50878111D01*
X181029526Y-51032754D01*
X181029529Y-51032766D01*
X181089867Y-51178437D01*
X181089874Y-51178450D01*
X181177475Y-51309553D01*
X181177478Y-51309557D01*
X181288972Y-51421051D01*
X181288976Y-51421054D01*
X181420079Y-51508655D01*
X181420092Y-51508662D01*
X181565763Y-51569000D01*
X181565768Y-51569002D01*
X181720418Y-51599764D01*
X181720421Y-51599765D01*
X181720423Y-51599765D01*
X181878109Y-51599765D01*
X181878110Y-51599764D01*
X182032762Y-51569002D01*
X182161419Y-51515711D01*
X182178437Y-51508662D01*
X182178437Y-51508661D01*
X182178444Y-51508659D01*
X182309554Y-51421054D01*
X182421054Y-51309554D01*
X182508659Y-51178444D01*
X182569002Y-51032762D01*
X182585813Y-50948249D01*
X182591203Y-50921153D01*
X192949500Y-50921153D01*
X192949500Y-51078846D01*
X192980261Y-51233489D01*
X192980264Y-51233501D01*
X193040602Y-51379172D01*
X193040609Y-51379185D01*
X193128210Y-51510288D01*
X193128213Y-51510292D01*
X193239707Y-51621786D01*
X193239711Y-51621789D01*
X193370814Y-51709390D01*
X193370827Y-51709397D01*
X193516498Y-51769735D01*
X193516503Y-51769737D01*
X193630930Y-51792498D01*
X193671153Y-51800499D01*
X193671156Y-51800500D01*
X193671158Y-51800500D01*
X193828844Y-51800500D01*
X193828845Y-51800499D01*
X193983497Y-51769737D01*
X194129179Y-51709394D01*
X194260289Y-51621789D01*
X194371789Y-51510289D01*
X194459394Y-51379179D01*
X194504508Y-51270261D01*
X194548345Y-51215862D01*
X194594874Y-51196100D01*
X194732440Y-51168737D01*
X194878122Y-51108394D01*
X195009232Y-51020789D01*
X195120732Y-50909289D01*
X195208337Y-50778179D01*
X195268680Y-50632497D01*
X195299443Y-50477842D01*
X195299443Y-50320158D01*
X195299443Y-50320155D01*
X195299442Y-50320153D01*
X195287113Y-50258172D01*
X195268680Y-50165503D01*
X195253634Y-50129179D01*
X195208340Y-50019827D01*
X195208333Y-50019814D01*
X195120732Y-49888711D01*
X195120729Y-49888707D01*
X195009235Y-49777213D01*
X195009231Y-49777210D01*
X194878128Y-49689609D01*
X194878115Y-49689602D01*
X194732444Y-49629264D01*
X194732432Y-49629261D01*
X194577788Y-49598500D01*
X194577785Y-49598500D01*
X194420101Y-49598500D01*
X194420098Y-49598500D01*
X194265453Y-49629261D01*
X194265441Y-49629264D01*
X194119770Y-49689602D01*
X194119757Y-49689609D01*
X193988654Y-49777210D01*
X193988650Y-49777213D01*
X193877156Y-49888707D01*
X193877153Y-49888711D01*
X193789552Y-50019814D01*
X193789545Y-50019827D01*
X193744436Y-50128734D01*
X193700596Y-50183138D01*
X193654067Y-50202899D01*
X193516508Y-50230261D01*
X193516498Y-50230264D01*
X193370827Y-50290602D01*
X193370814Y-50290609D01*
X193239711Y-50378210D01*
X193239707Y-50378213D01*
X193128213Y-50489707D01*
X193128210Y-50489711D01*
X193040609Y-50620814D01*
X193040602Y-50620827D01*
X192980264Y-50766498D01*
X192980261Y-50766510D01*
X192949500Y-50921153D01*
X182591203Y-50921153D01*
X182597226Y-50890874D01*
X182597226Y-50890873D01*
X182599764Y-50878111D01*
X182599765Y-50878109D01*
X182599765Y-50720420D01*
X182599764Y-50720418D01*
X182589114Y-50666876D01*
X182569002Y-50565768D01*
X182562678Y-50550500D01*
X182508662Y-50420092D01*
X182508655Y-50420079D01*
X182421054Y-50288976D01*
X182421051Y-50288972D01*
X182309557Y-50177478D01*
X182309553Y-50177475D01*
X182178450Y-50089874D01*
X182178437Y-50089867D01*
X182032766Y-50029529D01*
X182032754Y-50029526D01*
X181878110Y-49998765D01*
X181878107Y-49998765D01*
X181720423Y-49998765D01*
X181720420Y-49998765D01*
X181565775Y-50029526D01*
X181565763Y-50029529D01*
X181420092Y-50089867D01*
X181420079Y-50089874D01*
X181288976Y-50177475D01*
X181288972Y-50177478D01*
X181177478Y-50288972D01*
X181177475Y-50288976D01*
X181089874Y-50420079D01*
X181089867Y-50420092D01*
X181029529Y-50565763D01*
X181029526Y-50565775D01*
X180998765Y-50720418D01*
X173513818Y-50720418D01*
X173523693Y-50705639D01*
X173584036Y-50559957D01*
X173614799Y-50405302D01*
X173614799Y-50247618D01*
X173614799Y-50247615D01*
X173614798Y-50247613D01*
X173605228Y-50199500D01*
X173584036Y-50092963D01*
X173557760Y-50029526D01*
X173523696Y-49947287D01*
X173523689Y-49947274D01*
X173436088Y-49816171D01*
X173436085Y-49816167D01*
X173324591Y-49704673D01*
X173324587Y-49704670D01*
X173274426Y-49671153D01*
X184449500Y-49671153D01*
X184449500Y-49828846D01*
X184480261Y-49983489D01*
X184480264Y-49983501D01*
X184540602Y-50129172D01*
X184540609Y-50129185D01*
X184628210Y-50260288D01*
X184628213Y-50260292D01*
X184739707Y-50371786D01*
X184739711Y-50371789D01*
X184870814Y-50459390D01*
X184870827Y-50459397D01*
X185010757Y-50517357D01*
X185016503Y-50519737D01*
X185159183Y-50548118D01*
X185171153Y-50550499D01*
X185171156Y-50550500D01*
X185171158Y-50550500D01*
X185328844Y-50550500D01*
X185328845Y-50550499D01*
X185483497Y-50519737D01*
X185629179Y-50459394D01*
X185760289Y-50371789D01*
X185871789Y-50260289D01*
X185959394Y-50129179D01*
X186019737Y-49983497D01*
X186050500Y-49828842D01*
X186050500Y-49671158D01*
X186050500Y-49671155D01*
X186050499Y-49671153D01*
X186042167Y-49629264D01*
X186019737Y-49516503D01*
X185998341Y-49464847D01*
X185959397Y-49370827D01*
X185959390Y-49370814D01*
X185871789Y-49239711D01*
X185871786Y-49239707D01*
X185760292Y-49128213D01*
X185760288Y-49128210D01*
X185629185Y-49040609D01*
X185629173Y-49040602D01*
X185602674Y-49029627D01*
X185483501Y-48980264D01*
X185483489Y-48980261D01*
X185328845Y-48949500D01*
X185328842Y-48949500D01*
X185171158Y-48949500D01*
X185171155Y-48949500D01*
X185016510Y-48980261D01*
X185016498Y-48980264D01*
X184870827Y-49040602D01*
X184870814Y-49040609D01*
X184739711Y-49128210D01*
X184739707Y-49128213D01*
X184628213Y-49239707D01*
X184628210Y-49239711D01*
X184540609Y-49370814D01*
X184540602Y-49370827D01*
X184480264Y-49516498D01*
X184480261Y-49516510D01*
X184449500Y-49671153D01*
X173274426Y-49671153D01*
X173193484Y-49617069D01*
X173193471Y-49617062D01*
X173047800Y-49556724D01*
X173047788Y-49556721D01*
X172893144Y-49525960D01*
X172893141Y-49525960D01*
X172735457Y-49525960D01*
X172735454Y-49525960D01*
X172580809Y-49556721D01*
X172580797Y-49556724D01*
X172435126Y-49617062D01*
X172435113Y-49617069D01*
X172304010Y-49704670D01*
X172304006Y-49704673D01*
X172192512Y-49816167D01*
X172192509Y-49816171D01*
X172104908Y-49947274D01*
X172104901Y-49947287D01*
X172044563Y-50092958D01*
X172044560Y-50092970D01*
X172013799Y-50247613D01*
X146000500Y-50247613D01*
X146000500Y-49845134D01*
X146020185Y-49778095D01*
X146072989Y-49732340D01*
X146142147Y-49722396D01*
X146171950Y-49730572D01*
X146266503Y-49769737D01*
X146374304Y-49791180D01*
X146421153Y-49800499D01*
X146421156Y-49800500D01*
X146421158Y-49800500D01*
X146578844Y-49800500D01*
X146578845Y-49800499D01*
X146733497Y-49769737D01*
X146879179Y-49709394D01*
X147010289Y-49621789D01*
X147121789Y-49510289D01*
X147209394Y-49379179D01*
X147212719Y-49371153D01*
X147241984Y-49300499D01*
X147269737Y-49233497D01*
X147300500Y-49078842D01*
X147300500Y-48921158D01*
X147300500Y-48921155D01*
X147300499Y-48921153D01*
X147282012Y-48828213D01*
X147269737Y-48766503D01*
X147259384Y-48741509D01*
X147209397Y-48620827D01*
X147209390Y-48620814D01*
X147121789Y-48489711D01*
X147121786Y-48489707D01*
X147010292Y-48378213D01*
X147010288Y-48378210D01*
X146879185Y-48290609D01*
X146879172Y-48290602D01*
X146733501Y-48230264D01*
X146733489Y-48230261D01*
X146578845Y-48199500D01*
X146578842Y-48199500D01*
X146421158Y-48199500D01*
X146421155Y-48199500D01*
X146266510Y-48230261D01*
X146266507Y-48230261D01*
X146171952Y-48269427D01*
X146102482Y-48276895D01*
X146040003Y-48245619D01*
X146004351Y-48185530D01*
X146000500Y-48154865D01*
X146000500Y-45671153D01*
X167699500Y-45671153D01*
X167699500Y-45828846D01*
X167730261Y-45983489D01*
X167730264Y-45983501D01*
X167790602Y-46129172D01*
X167790609Y-46129185D01*
X167878210Y-46260288D01*
X167878213Y-46260292D01*
X167989707Y-46371786D01*
X167989711Y-46371789D01*
X168120814Y-46459390D01*
X168120827Y-46459397D01*
X168218853Y-46500000D01*
X168266503Y-46519737D01*
X168421153Y-46550499D01*
X168421156Y-46550500D01*
X168421158Y-46550500D01*
X168578844Y-46550500D01*
X168578845Y-46550499D01*
X168733497Y-46519737D01*
X168879179Y-46459394D01*
X169010289Y-46371789D01*
X169121789Y-46260289D01*
X169209394Y-46129179D01*
X169269737Y-45983497D01*
X169300500Y-45828842D01*
X169300500Y-45671158D01*
X169300500Y-45671155D01*
X169300499Y-45671153D01*
X169275097Y-45543449D01*
X169269737Y-45516503D01*
X169252248Y-45474281D01*
X169209397Y-45370827D01*
X169209390Y-45370814D01*
X169181145Y-45328543D01*
X176034499Y-45328543D01*
X176072947Y-45521829D01*
X176072950Y-45521839D01*
X176134800Y-45671158D01*
X176148368Y-45703914D01*
X176192348Y-45769735D01*
X176209971Y-45796110D01*
X176230848Y-45862787D01*
X176212363Y-45930167D01*
X176209971Y-45933890D01*
X176148366Y-46026089D01*
X176072950Y-46208160D01*
X176072947Y-46208170D01*
X176034500Y-46401456D01*
X176034500Y-46401459D01*
X176034500Y-46598541D01*
X176034500Y-46598543D01*
X176034499Y-46598543D01*
X176072947Y-46791829D01*
X176072950Y-46791839D01*
X176148364Y-46973907D01*
X176148371Y-46973920D01*
X176257860Y-47137781D01*
X176257863Y-47137785D01*
X176397214Y-47277136D01*
X176397218Y-47277139D01*
X176561079Y-47386628D01*
X176561092Y-47386635D01*
X176741794Y-47461483D01*
X176743165Y-47462051D01*
X176743169Y-47462051D01*
X176743170Y-47462052D01*
X176936456Y-47500500D01*
X176936459Y-47500500D01*
X177133543Y-47500500D01*
X177282791Y-47470812D01*
X177326835Y-47462051D01*
X177508914Y-47386632D01*
X177588139Y-47333695D01*
X177601109Y-47325029D01*
X177667786Y-47304151D01*
X177735166Y-47322635D01*
X177738891Y-47325029D01*
X177808872Y-47371789D01*
X177831086Y-47386632D01*
X177831088Y-47386633D01*
X177831092Y-47386635D01*
X178011794Y-47461483D01*
X178013165Y-47462051D01*
X178013169Y-47462051D01*
X178013170Y-47462052D01*
X178206456Y-47500500D01*
X178206459Y-47500500D01*
X178403543Y-47500500D01*
X178552791Y-47470812D01*
X178596835Y-47462051D01*
X178778914Y-47386632D01*
X178858139Y-47333695D01*
X178871109Y-47325029D01*
X178884616Y-47320799D01*
X178895890Y-47312242D01*
X178917295Y-47310566D01*
X178937786Y-47304151D01*
X178952803Y-47307788D01*
X178965547Y-47306791D01*
X178988417Y-47316414D01*
X178998697Y-47318904D01*
X179003946Y-47321725D01*
X179101086Y-47386632D01*
X179204235Y-47429357D01*
X179209722Y-47432306D01*
X179230331Y-47452641D01*
X179252880Y-47470812D01*
X179254900Y-47476883D01*
X179259457Y-47481379D01*
X179265801Y-47509631D01*
X179274946Y-47537106D01*
X179273363Y-47543307D01*
X179274765Y-47549551D01*
X179264828Y-47576748D01*
X179257667Y-47604805D01*
X179251832Y-47612316D01*
X179250787Y-47615178D01*
X179247918Y-47617355D01*
X179238707Y-47629214D01*
X179128210Y-47739711D01*
X179040609Y-47870814D01*
X179040602Y-47870827D01*
X178980264Y-48016498D01*
X178980261Y-48016510D01*
X178949500Y-48171153D01*
X178949500Y-48328846D01*
X178980261Y-48483489D01*
X178980264Y-48483501D01*
X179040602Y-48629172D01*
X179040609Y-48629185D01*
X179128210Y-48760288D01*
X179128213Y-48760292D01*
X179239707Y-48871786D01*
X179239711Y-48871789D01*
X179370814Y-48959390D01*
X179370827Y-48959397D01*
X179513758Y-49018600D01*
X179516503Y-49019737D01*
X179671153Y-49050499D01*
X179671156Y-49050500D01*
X179671158Y-49050500D01*
X179828844Y-49050500D01*
X179828845Y-49050499D01*
X179983497Y-49019737D01*
X180129179Y-48959394D01*
X180186411Y-48921153D01*
X196449500Y-48921153D01*
X196449500Y-49078846D01*
X196480261Y-49233489D01*
X196480264Y-49233501D01*
X196540602Y-49379172D01*
X196540609Y-49379185D01*
X196628210Y-49510288D01*
X196628213Y-49510292D01*
X196739707Y-49621786D01*
X196739711Y-49621789D01*
X196870814Y-49709390D01*
X196870827Y-49709397D01*
X197016498Y-49769735D01*
X197016503Y-49769737D01*
X197124304Y-49791180D01*
X197171153Y-49800499D01*
X197171156Y-49800500D01*
X197171158Y-49800500D01*
X197328844Y-49800500D01*
X197328845Y-49800499D01*
X197483497Y-49769737D01*
X197629179Y-49709394D01*
X197760289Y-49621789D01*
X197871789Y-49510289D01*
X197959394Y-49379179D01*
X197962719Y-49371153D01*
X197991984Y-49300499D01*
X198019737Y-49233497D01*
X198050500Y-49078842D01*
X198050500Y-48921158D01*
X198050500Y-48921155D01*
X198050499Y-48921153D01*
X198032012Y-48828213D01*
X198019737Y-48766503D01*
X198009384Y-48741509D01*
X197959397Y-48620827D01*
X197959390Y-48620814D01*
X197871789Y-48489711D01*
X197871786Y-48489707D01*
X197760292Y-48378213D01*
X197760288Y-48378210D01*
X197670124Y-48317964D01*
X198439682Y-48317964D01*
X198439682Y-48475657D01*
X198470443Y-48630300D01*
X198470446Y-48630312D01*
X198530784Y-48775983D01*
X198530791Y-48775996D01*
X198618392Y-48907099D01*
X198618395Y-48907103D01*
X198727086Y-49015794D01*
X198760571Y-49077117D01*
X198755587Y-49146809D01*
X198727087Y-49191155D01*
X198680917Y-49237325D01*
X198680913Y-49237330D01*
X198593312Y-49368433D01*
X198593305Y-49368446D01*
X198532967Y-49514117D01*
X198532964Y-49514129D01*
X198502203Y-49668772D01*
X198502203Y-49826465D01*
X198532964Y-49981108D01*
X198532967Y-49981120D01*
X198593305Y-50126791D01*
X198593312Y-50126804D01*
X198680913Y-50257907D01*
X198680916Y-50257911D01*
X198792410Y-50369405D01*
X198792414Y-50369408D01*
X198923517Y-50457009D01*
X198923530Y-50457016D01*
X199069201Y-50517354D01*
X199069206Y-50517356D01*
X199223856Y-50548118D01*
X199223859Y-50548119D01*
X199223861Y-50548119D01*
X199381547Y-50548119D01*
X199381548Y-50548118D01*
X199536200Y-50517356D01*
X199648869Y-50470686D01*
X199681875Y-50457016D01*
X199681875Y-50457015D01*
X199681882Y-50457013D01*
X199812992Y-50369408D01*
X199924492Y-50257908D01*
X200012097Y-50126798D01*
X200072440Y-49981116D01*
X200103203Y-49826461D01*
X200103203Y-49668777D01*
X200103203Y-49668774D01*
X200103202Y-49668772D01*
X200093856Y-49621786D01*
X200072440Y-49514122D01*
X200016548Y-49379185D01*
X200012100Y-49368446D01*
X200012093Y-49368433D01*
X199924492Y-49237330D01*
X199924489Y-49237326D01*
X199815798Y-49128635D01*
X199782313Y-49067312D01*
X199787297Y-48997620D01*
X199815799Y-48953272D01*
X199861968Y-48907103D01*
X199861971Y-48907100D01*
X199949576Y-48775990D01*
X200009919Y-48630308D01*
X200040682Y-48475653D01*
X200040682Y-48317969D01*
X200040682Y-48317966D01*
X200040681Y-48317964D01*
X200029208Y-48260288D01*
X200009919Y-48163314D01*
X200006419Y-48154865D01*
X199954365Y-48029193D01*
X199946896Y-47959724D01*
X199978171Y-47897245D01*
X200000033Y-47878641D01*
X200010289Y-47871789D01*
X200121789Y-47760289D01*
X200209394Y-47629179D01*
X200269737Y-47483497D01*
X200300500Y-47328842D01*
X200300500Y-47171158D01*
X200300500Y-47171155D01*
X200288963Y-47113157D01*
X200288963Y-47113156D01*
X200285362Y-47095052D01*
X200873399Y-47095052D01*
X200873399Y-47252745D01*
X200904160Y-47407388D01*
X200904163Y-47407400D01*
X200964501Y-47553071D01*
X200964508Y-47553084D01*
X201052109Y-47684187D01*
X201052112Y-47684191D01*
X201163606Y-47795685D01*
X201163610Y-47795688D01*
X201294713Y-47883289D01*
X201294726Y-47883296D01*
X201440397Y-47943634D01*
X201440402Y-47943636D01*
X201595052Y-47974398D01*
X201595055Y-47974399D01*
X201595057Y-47974399D01*
X201752743Y-47974399D01*
X201752744Y-47974398D01*
X201907396Y-47943636D01*
X202029812Y-47892930D01*
X202053071Y-47883296D01*
X202053071Y-47883295D01*
X202053078Y-47883293D01*
X202071754Y-47870814D01*
X202156609Y-47814116D01*
X202223286Y-47793238D01*
X202290667Y-47811722D01*
X202337357Y-47863701D01*
X202349500Y-47917218D01*
X202349500Y-48050618D01*
X202380261Y-48205261D01*
X202380264Y-48205273D01*
X202428751Y-48322331D01*
X202436220Y-48391800D01*
X202404945Y-48454279D01*
X202361643Y-48484344D01*
X202270824Y-48521962D01*
X202270814Y-48521967D01*
X202139711Y-48609568D01*
X202139707Y-48609571D01*
X202028213Y-48721065D01*
X202028210Y-48721069D01*
X201940609Y-48852172D01*
X201940602Y-48852185D01*
X201880264Y-48997856D01*
X201880261Y-48997868D01*
X201849500Y-49152511D01*
X201849500Y-49310204D01*
X201880261Y-49464847D01*
X201880264Y-49464859D01*
X201940602Y-49610530D01*
X201940609Y-49610542D01*
X201976435Y-49664159D01*
X201997313Y-49730836D01*
X201987895Y-49780501D01*
X201983473Y-49791176D01*
X201983471Y-49791180D01*
X201952710Y-49945828D01*
X201952710Y-50103521D01*
X201983471Y-50258164D01*
X201983474Y-50258176D01*
X202043812Y-50403847D01*
X202043819Y-50403860D01*
X202131420Y-50534963D01*
X202131423Y-50534967D01*
X202242917Y-50646461D01*
X202242921Y-50646464D01*
X202374024Y-50734065D01*
X202374037Y-50734072D01*
X202480537Y-50778185D01*
X202519713Y-50794412D01*
X202674363Y-50825174D01*
X202674366Y-50825175D01*
X202674368Y-50825175D01*
X202832054Y-50825175D01*
X202832055Y-50825174D01*
X202986707Y-50794412D01*
X203132389Y-50734069D01*
X203263499Y-50646464D01*
X203374999Y-50534964D01*
X203462604Y-50403854D01*
X203522947Y-50258172D01*
X203522948Y-50258163D01*
X203524749Y-50253817D01*
X203568590Y-50199414D01*
X203634884Y-50177348D01*
X203686762Y-50186707D01*
X203766503Y-50219737D01*
X203921153Y-50250499D01*
X203921156Y-50250500D01*
X203921158Y-50250500D01*
X204078844Y-50250500D01*
X204078845Y-50250499D01*
X204233497Y-50219737D01*
X204364414Y-50165510D01*
X204379172Y-50159397D01*
X204379172Y-50159396D01*
X204379179Y-50159394D01*
X204510289Y-50071789D01*
X204621789Y-49960289D01*
X204709394Y-49829179D01*
X204769737Y-49683497D01*
X204800500Y-49528842D01*
X204800500Y-49371158D01*
X204800500Y-49371155D01*
X204800499Y-49371153D01*
X204788375Y-49310204D01*
X204769737Y-49216503D01*
X204733341Y-49128635D01*
X204709397Y-49070827D01*
X204709390Y-49070814D01*
X204651354Y-48983957D01*
X204621789Y-48939711D01*
X204621786Y-48939707D01*
X204603232Y-48921153D01*
X208199500Y-48921153D01*
X208199500Y-49078846D01*
X208230261Y-49233489D01*
X208230264Y-49233501D01*
X208290602Y-49379172D01*
X208290609Y-49379185D01*
X208378210Y-49510288D01*
X208378213Y-49510292D01*
X208489707Y-49621786D01*
X208489711Y-49621789D01*
X208620814Y-49709390D01*
X208620827Y-49709397D01*
X208766498Y-49769735D01*
X208766503Y-49769737D01*
X208874304Y-49791180D01*
X208921153Y-49800499D01*
X208921156Y-49800500D01*
X208921158Y-49800500D01*
X209078844Y-49800500D01*
X209078845Y-49800499D01*
X209233497Y-49769737D01*
X209379179Y-49709394D01*
X209510289Y-49621789D01*
X209621789Y-49510289D01*
X209709394Y-49379179D01*
X209712719Y-49371153D01*
X209741984Y-49300499D01*
X209769737Y-49233497D01*
X209800500Y-49078842D01*
X209800500Y-48921158D01*
X209800500Y-48921155D01*
X209800499Y-48921153D01*
X209782012Y-48828213D01*
X209769737Y-48766503D01*
X209759384Y-48741509D01*
X209709397Y-48620827D01*
X209709390Y-48620814D01*
X209621790Y-48489712D01*
X209621784Y-48489705D01*
X209553232Y-48421153D01*
X210199500Y-48421153D01*
X210199500Y-48578846D01*
X210230261Y-48733489D01*
X210230264Y-48733501D01*
X210290602Y-48879172D01*
X210290609Y-48879185D01*
X210378210Y-49010288D01*
X210378213Y-49010292D01*
X210489707Y-49121786D01*
X210489711Y-49121789D01*
X210620814Y-49209390D01*
X210620827Y-49209397D01*
X210694013Y-49239711D01*
X210766503Y-49269737D01*
X210921153Y-49300499D01*
X210921156Y-49300500D01*
X210921158Y-49300500D01*
X211078844Y-49300500D01*
X211078845Y-49300499D01*
X211233497Y-49269737D01*
X211379179Y-49209394D01*
X211510289Y-49121789D01*
X211621789Y-49010289D01*
X211709394Y-48879179D01*
X211769737Y-48733497D01*
X211800500Y-48578842D01*
X211800500Y-48421158D01*
X211800500Y-48421155D01*
X211800499Y-48421153D01*
X211786535Y-48350951D01*
X211769737Y-48266503D01*
X211761087Y-48245619D01*
X211709397Y-48120827D01*
X211709390Y-48120814D01*
X211621789Y-47989711D01*
X211621786Y-47989707D01*
X211510292Y-47878213D01*
X211510288Y-47878210D01*
X211379185Y-47790609D01*
X211379172Y-47790602D01*
X211233501Y-47730264D01*
X211233489Y-47730261D01*
X211078845Y-47699500D01*
X211078842Y-47699500D01*
X210921158Y-47699500D01*
X210921155Y-47699500D01*
X210766510Y-47730261D01*
X210766498Y-47730264D01*
X210620827Y-47790602D01*
X210620814Y-47790609D01*
X210489711Y-47878210D01*
X210489707Y-47878213D01*
X210378213Y-47989707D01*
X210378210Y-47989711D01*
X210290609Y-48120814D01*
X210290602Y-48120827D01*
X210230264Y-48266498D01*
X210230261Y-48266510D01*
X210199500Y-48421153D01*
X209553232Y-48421153D01*
X209510292Y-48378213D01*
X209510288Y-48378210D01*
X209379185Y-48290609D01*
X209379172Y-48290602D01*
X209233501Y-48230264D01*
X209233489Y-48230261D01*
X209078845Y-48199500D01*
X209078842Y-48199500D01*
X208921158Y-48199500D01*
X208921155Y-48199500D01*
X208766510Y-48230261D01*
X208766498Y-48230264D01*
X208620827Y-48290602D01*
X208620814Y-48290609D01*
X208489711Y-48378210D01*
X208489707Y-48378213D01*
X208378213Y-48489707D01*
X208378210Y-48489711D01*
X208290609Y-48620814D01*
X208290602Y-48620827D01*
X208230264Y-48766498D01*
X208230261Y-48766510D01*
X208199500Y-48921153D01*
X204603232Y-48921153D01*
X204510292Y-48828213D01*
X204510288Y-48828210D01*
X204379185Y-48740609D01*
X204379172Y-48740602D01*
X204233501Y-48680264D01*
X204233489Y-48680261D01*
X204078845Y-48649500D01*
X204078842Y-48649500D01*
X203921158Y-48649500D01*
X203921156Y-48649500D01*
X203913473Y-48651028D01*
X203843882Y-48644799D01*
X203788706Y-48601934D01*
X203765463Y-48536044D01*
X203781532Y-48468047D01*
X203786183Y-48460519D01*
X203859390Y-48350957D01*
X203859397Y-48350945D01*
X203896670Y-48260958D01*
X203940510Y-48206554D01*
X204006804Y-48184489D01*
X204074504Y-48201768D01*
X204114334Y-48239520D01*
X204128212Y-48260291D01*
X204239707Y-48371786D01*
X204239711Y-48371789D01*
X204370814Y-48459390D01*
X204370827Y-48459397D01*
X204516498Y-48519735D01*
X204516503Y-48519737D01*
X204671153Y-48550499D01*
X204671156Y-48550500D01*
X204671158Y-48550500D01*
X204828844Y-48550500D01*
X204828845Y-48550499D01*
X204983497Y-48519737D01*
X205129179Y-48459394D01*
X205260289Y-48371789D01*
X205371789Y-48260289D01*
X205459394Y-48129179D01*
X205462854Y-48120827D01*
X205505601Y-48017625D01*
X205519737Y-47983497D01*
X205550500Y-47828842D01*
X205550500Y-47671158D01*
X205550500Y-47671155D01*
X205550499Y-47671153D01*
X205539365Y-47615178D01*
X205519737Y-47516503D01*
X205519204Y-47515217D01*
X205459397Y-47370827D01*
X205459390Y-47370814D01*
X205371789Y-47239711D01*
X205371786Y-47239707D01*
X205260292Y-47128213D01*
X205260288Y-47128210D01*
X205129185Y-47040609D01*
X205129172Y-47040602D01*
X204983501Y-46980264D01*
X204983489Y-46980261D01*
X204828845Y-46949500D01*
X204828842Y-46949500D01*
X204671158Y-46949500D01*
X204671155Y-46949500D01*
X204516510Y-46980261D01*
X204516498Y-46980264D01*
X204370827Y-47040602D01*
X204370814Y-47040609D01*
X204239711Y-47128210D01*
X204239707Y-47128213D01*
X204128213Y-47239707D01*
X204128210Y-47239711D01*
X204040609Y-47370814D01*
X204040604Y-47370824D01*
X204003329Y-47460814D01*
X203959488Y-47515217D01*
X203893193Y-47537282D01*
X203825494Y-47520002D01*
X203785666Y-47482252D01*
X203771789Y-47461483D01*
X203771787Y-47461481D01*
X203771785Y-47461478D01*
X203660292Y-47349985D01*
X203660288Y-47349982D01*
X203529185Y-47262381D01*
X203529172Y-47262374D01*
X203383501Y-47202036D01*
X203383489Y-47202033D01*
X203228845Y-47171272D01*
X203228842Y-47171272D01*
X203071158Y-47171272D01*
X203071155Y-47171272D01*
X202916510Y-47202033D01*
X202916498Y-47202036D01*
X202770827Y-47262374D01*
X202770809Y-47262384D01*
X202667289Y-47331554D01*
X202600612Y-47352432D01*
X202533232Y-47333947D01*
X202486542Y-47281968D01*
X202474399Y-47228452D01*
X202474399Y-47095054D01*
X202474398Y-47095052D01*
X202465004Y-47047827D01*
X202443636Y-46940402D01*
X202443634Y-46940397D01*
X202383296Y-46794726D01*
X202383289Y-46794713D01*
X202295688Y-46663610D01*
X202295685Y-46663606D01*
X202184191Y-46552112D01*
X202184187Y-46552109D01*
X202053084Y-46464508D01*
X202053071Y-46464501D01*
X201907400Y-46404163D01*
X201907388Y-46404160D01*
X201752744Y-46373399D01*
X201752741Y-46373399D01*
X201595057Y-46373399D01*
X201595054Y-46373399D01*
X201440409Y-46404160D01*
X201440397Y-46404163D01*
X201294726Y-46464501D01*
X201294713Y-46464508D01*
X201163610Y-46552109D01*
X201163606Y-46552112D01*
X201052112Y-46663606D01*
X201052109Y-46663610D01*
X200964508Y-46794713D01*
X200964501Y-46794726D01*
X200904163Y-46940397D01*
X200904160Y-46940409D01*
X200873399Y-47095052D01*
X200285362Y-47095052D01*
X200274531Y-47040606D01*
X200269737Y-47016503D01*
X200256062Y-46983489D01*
X200209397Y-46870827D01*
X200209390Y-46870814D01*
X200121789Y-46739711D01*
X200121786Y-46739707D01*
X200010292Y-46628213D01*
X200010288Y-46628210D01*
X199879185Y-46540609D01*
X199879172Y-46540602D01*
X199733501Y-46480264D01*
X199733489Y-46480261D01*
X199578845Y-46449500D01*
X199578842Y-46449500D01*
X199421158Y-46449500D01*
X199421155Y-46449500D01*
X199266510Y-46480261D01*
X199266498Y-46480264D01*
X199120827Y-46540602D01*
X199120814Y-46540609D01*
X198989711Y-46628210D01*
X198989707Y-46628213D01*
X198878213Y-46739707D01*
X198878210Y-46739711D01*
X198790609Y-46870814D01*
X198790602Y-46870827D01*
X198730264Y-47016498D01*
X198730261Y-47016510D01*
X198699500Y-47171153D01*
X198699500Y-47328846D01*
X198730261Y-47483489D01*
X198730264Y-47483501D01*
X198785816Y-47617616D01*
X198793285Y-47687085D01*
X198762010Y-47749564D01*
X198740150Y-47768168D01*
X198729890Y-47775023D01*
X198618395Y-47886518D01*
X198618392Y-47886522D01*
X198530791Y-48017625D01*
X198530784Y-48017638D01*
X198470446Y-48163309D01*
X198470443Y-48163321D01*
X198439682Y-48317964D01*
X197670124Y-48317964D01*
X197629185Y-48290609D01*
X197629172Y-48290602D01*
X197483501Y-48230264D01*
X197483489Y-48230261D01*
X197328845Y-48199500D01*
X197328842Y-48199500D01*
X197171158Y-48199500D01*
X197171155Y-48199500D01*
X197016510Y-48230261D01*
X197016498Y-48230264D01*
X196870827Y-48290602D01*
X196870814Y-48290609D01*
X196739711Y-48378210D01*
X196739707Y-48378213D01*
X196628213Y-48489707D01*
X196628210Y-48489711D01*
X196540609Y-48620814D01*
X196540602Y-48620827D01*
X196480264Y-48766498D01*
X196480261Y-48766510D01*
X196449500Y-48921153D01*
X180186411Y-48921153D01*
X180260289Y-48871789D01*
X180371789Y-48760289D01*
X180459394Y-48629179D01*
X180462854Y-48620827D01*
X180503802Y-48521967D01*
X180519737Y-48483497D01*
X180550500Y-48328842D01*
X180550500Y-48171158D01*
X180550500Y-48171155D01*
X180550499Y-48171153D01*
X180522261Y-48029193D01*
X180519737Y-48016503D01*
X180519735Y-48016498D01*
X180459397Y-47870827D01*
X180459390Y-47870814D01*
X180371789Y-47739711D01*
X180371786Y-47739707D01*
X180260292Y-47628213D01*
X180260288Y-47628210D01*
X180128130Y-47539904D01*
X180107094Y-47514732D01*
X180085160Y-47490311D01*
X180084793Y-47488048D01*
X180083325Y-47486291D01*
X180079236Y-47453739D01*
X180073989Y-47421340D01*
X180074903Y-47419239D01*
X180074618Y-47416966D01*
X180088778Y-47387368D01*
X180101879Y-47357278D01*
X180104152Y-47355236D01*
X180104773Y-47353939D01*
X180128129Y-47333701D01*
X180141116Y-47325023D01*
X180207795Y-47304151D01*
X180275174Y-47322640D01*
X180278891Y-47325029D01*
X180348872Y-47371789D01*
X180371086Y-47386632D01*
X180371088Y-47386633D01*
X180371092Y-47386635D01*
X180551794Y-47461483D01*
X180553165Y-47462051D01*
X180553169Y-47462051D01*
X180553170Y-47462052D01*
X180746456Y-47500500D01*
X180746459Y-47500500D01*
X180943543Y-47500500D01*
X181092791Y-47470812D01*
X181136835Y-47462051D01*
X181318914Y-47386632D01*
X181398139Y-47333695D01*
X181411109Y-47325029D01*
X181477786Y-47304151D01*
X181545166Y-47322635D01*
X181548891Y-47325029D01*
X181618872Y-47371789D01*
X181641086Y-47386632D01*
X181641088Y-47386633D01*
X181641092Y-47386635D01*
X181821794Y-47461483D01*
X181823165Y-47462051D01*
X181823169Y-47462051D01*
X181823170Y-47462052D01*
X182016456Y-47500500D01*
X182016459Y-47500500D01*
X182213543Y-47500500D01*
X182362791Y-47470812D01*
X182406835Y-47462051D01*
X182588914Y-47386632D01*
X182668139Y-47333695D01*
X182681109Y-47325029D01*
X182747786Y-47304151D01*
X182815166Y-47322635D01*
X182818891Y-47325029D01*
X182888872Y-47371789D01*
X182911086Y-47386632D01*
X182911088Y-47386633D01*
X182911092Y-47386635D01*
X183091794Y-47461483D01*
X183093165Y-47462051D01*
X183093169Y-47462051D01*
X183093170Y-47462052D01*
X183286456Y-47500500D01*
X183286459Y-47500500D01*
X183483543Y-47500500D01*
X183632791Y-47470812D01*
X183676835Y-47462051D01*
X183858914Y-47386632D01*
X183938139Y-47333695D01*
X183951109Y-47325029D01*
X184017786Y-47304151D01*
X184085166Y-47322635D01*
X184088891Y-47325029D01*
X184158872Y-47371789D01*
X184181086Y-47386632D01*
X184181088Y-47386633D01*
X184181092Y-47386635D01*
X184361794Y-47461483D01*
X184363165Y-47462051D01*
X184363169Y-47462051D01*
X184363170Y-47462052D01*
X184556456Y-47500500D01*
X184556459Y-47500500D01*
X184753543Y-47500500D01*
X184902791Y-47470812D01*
X184946835Y-47462051D01*
X185128914Y-47386632D01*
X185208139Y-47333695D01*
X185221109Y-47325029D01*
X185287786Y-47304151D01*
X185355166Y-47322635D01*
X185358891Y-47325029D01*
X185428872Y-47371789D01*
X185451086Y-47386632D01*
X185451088Y-47386633D01*
X185451092Y-47386635D01*
X185631794Y-47461483D01*
X185633165Y-47462051D01*
X185633169Y-47462051D01*
X185633170Y-47462052D01*
X185826456Y-47500500D01*
X185826459Y-47500500D01*
X186023543Y-47500500D01*
X186172791Y-47470812D01*
X186216835Y-47462051D01*
X186398914Y-47386632D01*
X186478139Y-47333695D01*
X186491109Y-47325029D01*
X186557786Y-47304151D01*
X186625166Y-47322635D01*
X186628891Y-47325029D01*
X186698872Y-47371789D01*
X186721086Y-47386632D01*
X186721088Y-47386633D01*
X186721092Y-47386635D01*
X186901794Y-47461483D01*
X186903165Y-47462051D01*
X186903169Y-47462051D01*
X186903170Y-47462052D01*
X187096456Y-47500500D01*
X187096459Y-47500500D01*
X187293543Y-47500500D01*
X187442791Y-47470812D01*
X187486835Y-47462051D01*
X187589663Y-47419458D01*
X187659128Y-47411990D01*
X187711422Y-47434753D01*
X187722907Y-47443350D01*
X187857623Y-47493597D01*
X187857627Y-47493598D01*
X187917155Y-47499999D01*
X187917172Y-47500000D01*
X188215000Y-47500000D01*
X188715000Y-47500000D01*
X189012828Y-47500000D01*
X189012844Y-47499999D01*
X189072372Y-47493598D01*
X189072379Y-47493596D01*
X189207086Y-47443354D01*
X189207093Y-47443350D01*
X189322187Y-47357190D01*
X189322190Y-47357187D01*
X189408350Y-47242093D01*
X189408354Y-47242086D01*
X189458596Y-47107379D01*
X189458598Y-47107372D01*
X189464999Y-47047844D01*
X189465000Y-47047827D01*
X189465000Y-46750000D01*
X188715000Y-46750000D01*
X188715000Y-47500000D01*
X188215000Y-47500000D01*
X188215000Y-46744975D01*
X188250095Y-46780070D01*
X188329905Y-46826148D01*
X188418922Y-46850000D01*
X188511078Y-46850000D01*
X188600095Y-46826148D01*
X188679905Y-46780070D01*
X188745070Y-46714905D01*
X188770330Y-46671153D01*
X195449500Y-46671153D01*
X195449500Y-46828846D01*
X195480261Y-46983489D01*
X195480264Y-46983501D01*
X195540602Y-47129172D01*
X195540609Y-47129185D01*
X195628210Y-47260288D01*
X195628213Y-47260292D01*
X195739707Y-47371786D01*
X195739711Y-47371789D01*
X195870814Y-47459390D01*
X195870827Y-47459397D01*
X196008683Y-47516498D01*
X196016503Y-47519737D01*
X196117889Y-47539904D01*
X196171153Y-47550499D01*
X196171156Y-47550500D01*
X196171158Y-47550500D01*
X196328844Y-47550500D01*
X196328845Y-47550499D01*
X196483497Y-47519737D01*
X196622762Y-47462052D01*
X196629172Y-47459397D01*
X196629172Y-47459396D01*
X196629179Y-47459394D01*
X196631110Y-47458103D01*
X196632276Y-47457737D01*
X196634546Y-47456525D01*
X196634776Y-47456955D01*
X196697786Y-47437226D01*
X196765166Y-47455710D01*
X196768850Y-47458077D01*
X196770821Y-47459394D01*
X196770824Y-47459395D01*
X196770827Y-47459397D01*
X196908683Y-47516498D01*
X196916503Y-47519737D01*
X197017889Y-47539904D01*
X197071153Y-47550499D01*
X197071156Y-47550500D01*
X197071158Y-47550500D01*
X197228844Y-47550500D01*
X197228845Y-47550499D01*
X197383497Y-47519737D01*
X197522762Y-47462052D01*
X197529172Y-47459397D01*
X197529172Y-47459396D01*
X197529179Y-47459394D01*
X197660289Y-47371789D01*
X197771789Y-47260289D01*
X197859394Y-47129179D01*
X197866031Y-47113157D01*
X197893091Y-47047827D01*
X197919737Y-46983497D01*
X197950500Y-46828842D01*
X197950500Y-46671158D01*
X197950500Y-46671155D01*
X197950499Y-46671153D01*
X197948998Y-46663606D01*
X197919737Y-46516503D01*
X197912901Y-46500000D01*
X197859397Y-46370827D01*
X197859390Y-46370814D01*
X197771789Y-46239711D01*
X197771786Y-46239707D01*
X197660292Y-46128213D01*
X197660288Y-46128210D01*
X197529185Y-46040609D01*
X197529172Y-46040602D01*
X197383501Y-45980264D01*
X197383489Y-45980261D01*
X197228845Y-45949500D01*
X197228842Y-45949500D01*
X197071158Y-45949500D01*
X197071155Y-45949500D01*
X196916510Y-45980261D01*
X196916498Y-45980264D01*
X196770822Y-46040604D01*
X196770820Y-46040605D01*
X196768885Y-46041899D01*
X196767717Y-46042264D01*
X196765451Y-46043476D01*
X196765221Y-46043045D01*
X196702206Y-46062773D01*
X196634827Y-46044285D01*
X196631115Y-46041899D01*
X196629179Y-46040605D01*
X196629177Y-46040604D01*
X196483501Y-45980264D01*
X196483489Y-45980261D01*
X196328845Y-45949500D01*
X196328842Y-45949500D01*
X196171158Y-45949500D01*
X196171155Y-45949500D01*
X196016510Y-45980261D01*
X196016498Y-45980264D01*
X195870827Y-46040602D01*
X195870814Y-46040609D01*
X195739711Y-46128210D01*
X195739707Y-46128213D01*
X195628213Y-46239707D01*
X195628210Y-46239711D01*
X195540609Y-46370814D01*
X195540602Y-46370827D01*
X195480264Y-46516498D01*
X195480261Y-46516510D01*
X195449500Y-46671153D01*
X188770330Y-46671153D01*
X188791148Y-46635095D01*
X188815000Y-46546078D01*
X188815000Y-46453922D01*
X188791148Y-46364905D01*
X188745070Y-46285095D01*
X188709975Y-46250000D01*
X189465000Y-46250000D01*
X189465000Y-45952172D01*
X189464999Y-45952155D01*
X189458598Y-45892627D01*
X189458597Y-45892623D01*
X189408350Y-45757907D01*
X189399405Y-45745957D01*
X189395467Y-45735399D01*
X189387788Y-45727151D01*
X189383475Y-45703248D01*
X189374988Y-45680492D01*
X189377061Y-45667695D01*
X189375383Y-45658391D01*
X189382904Y-45628924D01*
X204099500Y-45628924D01*
X204099500Y-45786617D01*
X204130261Y-45941260D01*
X204130264Y-45941272D01*
X204190602Y-46086943D01*
X204190609Y-46086956D01*
X204278210Y-46218059D01*
X204278213Y-46218063D01*
X204389707Y-46329557D01*
X204389711Y-46329560D01*
X204520814Y-46417161D01*
X204520827Y-46417168D01*
X204635118Y-46464508D01*
X204666503Y-46477508D01*
X204821153Y-46508270D01*
X204821156Y-46508271D01*
X204821158Y-46508271D01*
X204978844Y-46508271D01*
X204978845Y-46508270D01*
X205133497Y-46477508D01*
X205279179Y-46417165D01*
X205410289Y-46329560D01*
X205521789Y-46218060D01*
X205609394Y-46086950D01*
X205669737Y-45941268D01*
X205700500Y-45786613D01*
X205700500Y-45628929D01*
X205700500Y-45628926D01*
X205700499Y-45628924D01*
X205683497Y-45543449D01*
X205669737Y-45474274D01*
X205657572Y-45444905D01*
X205609397Y-45328598D01*
X205609390Y-45328585D01*
X205521789Y-45197482D01*
X205521786Y-45197478D01*
X205454706Y-45130398D01*
X205421221Y-45069075D01*
X205426205Y-44999383D01*
X205468077Y-44943450D01*
X205510288Y-44922944D01*
X205516972Y-44921153D01*
X206699500Y-44921153D01*
X206699500Y-45078846D01*
X206730261Y-45233489D01*
X206730264Y-45233501D01*
X206790602Y-45379172D01*
X206790609Y-45379185D01*
X206878210Y-45510288D01*
X206878213Y-45510292D01*
X206989707Y-45621786D01*
X206989711Y-45621789D01*
X207120814Y-45709390D01*
X207120827Y-45709397D01*
X207242073Y-45759618D01*
X207266503Y-45769737D01*
X207399088Y-45796110D01*
X207421153Y-45800499D01*
X207421156Y-45800500D01*
X207421158Y-45800500D01*
X207578844Y-45800500D01*
X207578845Y-45800499D01*
X207733497Y-45769737D01*
X207879179Y-45709394D01*
X208010289Y-45621789D01*
X208121789Y-45510289D01*
X208209394Y-45379179D01*
X208212854Y-45370827D01*
X208242982Y-45298089D01*
X208269737Y-45233497D01*
X208300500Y-45078842D01*
X208300500Y-44921158D01*
X208300500Y-44921155D01*
X208300499Y-44921153D01*
X208269738Y-44766510D01*
X208269737Y-44766503D01*
X208269735Y-44766498D01*
X208209397Y-44620827D01*
X208209390Y-44620814D01*
X208121789Y-44489711D01*
X208121786Y-44489707D01*
X208010292Y-44378213D01*
X208010288Y-44378210D01*
X207879185Y-44290609D01*
X207879172Y-44290602D01*
X207733501Y-44230264D01*
X207733489Y-44230261D01*
X207578845Y-44199500D01*
X207578842Y-44199500D01*
X207421158Y-44199500D01*
X207421155Y-44199500D01*
X207266510Y-44230261D01*
X207266498Y-44230264D01*
X207120827Y-44290602D01*
X207120814Y-44290609D01*
X206989711Y-44378210D01*
X206989707Y-44378213D01*
X206878213Y-44489707D01*
X206878210Y-44489711D01*
X206790609Y-44620814D01*
X206790602Y-44620827D01*
X206730264Y-44766498D01*
X206730261Y-44766510D01*
X206699500Y-44921153D01*
X205516972Y-44921153D01*
X205621784Y-44893070D01*
X205758716Y-44814013D01*
X205870520Y-44702209D01*
X205949577Y-44565277D01*
X205990500Y-44412550D01*
X205990500Y-44254436D01*
X205949577Y-44101709D01*
X205914301Y-44040609D01*
X205870524Y-43964783D01*
X205870518Y-43964775D01*
X205758717Y-43852974D01*
X205758709Y-43852968D01*
X205621790Y-43773919D01*
X205621786Y-43773917D01*
X205621784Y-43773916D01*
X205469057Y-43732993D01*
X205310943Y-43732993D01*
X205158216Y-43773916D01*
X205158209Y-43773919D01*
X205021290Y-43852968D01*
X205021282Y-43852974D01*
X204909481Y-43964775D01*
X204909475Y-43964783D01*
X204830426Y-44101702D01*
X204830423Y-44101709D01*
X204789500Y-44254436D01*
X204789500Y-44412550D01*
X204823814Y-44540609D01*
X204830423Y-44565276D01*
X204830426Y-44565283D01*
X204909475Y-44702203D01*
X204913756Y-44707781D01*
X204938953Y-44772949D01*
X204924917Y-44841395D01*
X204876104Y-44891386D01*
X204826978Y-44904237D01*
X204827218Y-44906674D01*
X204821153Y-44907271D01*
X204666510Y-44938032D01*
X204666498Y-44938035D01*
X204520827Y-44998373D01*
X204520814Y-44998380D01*
X204389711Y-45085981D01*
X204389707Y-45085984D01*
X204278213Y-45197478D01*
X204278210Y-45197482D01*
X204190609Y-45328585D01*
X204190602Y-45328598D01*
X204130264Y-45474269D01*
X204130261Y-45474281D01*
X204099500Y-45628924D01*
X189382904Y-45628924D01*
X189384111Y-45624194D01*
X189404329Y-45575384D01*
X189404329Y-45575383D01*
X189426571Y-45521685D01*
X189426572Y-45521681D01*
X189464999Y-45328495D01*
X189465000Y-45328492D01*
X189465000Y-45131508D01*
X189464999Y-45131504D01*
X189426572Y-44938318D01*
X189426569Y-44938306D01*
X189351192Y-44756328D01*
X189327572Y-44720979D01*
X188815000Y-45233551D01*
X188815000Y-45183922D01*
X188791148Y-45094905D01*
X188745070Y-45015095D01*
X188679905Y-44949930D01*
X188600095Y-44903852D01*
X188511078Y-44880000D01*
X188461446Y-44880000D01*
X188974020Y-44367425D01*
X188947059Y-44349411D01*
X188947058Y-44349410D01*
X188938678Y-44343811D01*
X188938673Y-44343808D01*
X188756693Y-44268430D01*
X188756681Y-44268427D01*
X188686343Y-44254436D01*
X199009500Y-44254436D01*
X199009500Y-44412550D01*
X199043814Y-44540609D01*
X199050423Y-44565276D01*
X199050426Y-44565283D01*
X199129475Y-44702202D01*
X199129479Y-44702207D01*
X199129480Y-44702209D01*
X199241284Y-44814013D01*
X199241286Y-44814014D01*
X199241290Y-44814017D01*
X199288711Y-44841395D01*
X199378216Y-44893070D01*
X199530943Y-44933993D01*
X199530945Y-44933993D01*
X199689055Y-44933993D01*
X199689057Y-44933993D01*
X199841784Y-44893070D01*
X199978716Y-44814013D01*
X200090520Y-44702209D01*
X200169577Y-44565277D01*
X200210500Y-44412550D01*
X200210500Y-44254436D01*
X200169577Y-44101709D01*
X200134301Y-44040609D01*
X200090524Y-43964783D01*
X200090518Y-43964775D01*
X199978717Y-43852974D01*
X199978709Y-43852968D01*
X199841790Y-43773919D01*
X199841786Y-43773917D01*
X199841784Y-43773916D01*
X199689057Y-43732993D01*
X199530943Y-43732993D01*
X199378216Y-43773916D01*
X199378209Y-43773919D01*
X199241290Y-43852968D01*
X199241282Y-43852974D01*
X199129481Y-43964775D01*
X199129475Y-43964783D01*
X199050426Y-44101702D01*
X199050423Y-44101709D01*
X199009500Y-44254436D01*
X188686343Y-44254436D01*
X188563495Y-44230000D01*
X188366504Y-44230000D01*
X188173318Y-44268427D01*
X188173306Y-44268430D01*
X187991325Y-44343809D01*
X187899339Y-44405271D01*
X187832661Y-44426148D01*
X187765281Y-44407663D01*
X187761559Y-44405271D01*
X187709990Y-44370814D01*
X187668914Y-44343368D01*
X187668911Y-44343366D01*
X187668910Y-44343366D01*
X187486839Y-44267950D01*
X187486829Y-44267947D01*
X187293543Y-44229500D01*
X187293541Y-44229500D01*
X187096459Y-44229500D01*
X187096457Y-44229500D01*
X186903170Y-44267947D01*
X186903160Y-44267950D01*
X186721089Y-44343366D01*
X186628890Y-44404971D01*
X186562213Y-44425848D01*
X186494833Y-44407363D01*
X186491110Y-44404971D01*
X186439990Y-44370814D01*
X186398914Y-44343368D01*
X186398911Y-44343366D01*
X186398910Y-44343366D01*
X186216839Y-44267950D01*
X186216829Y-44267947D01*
X186023543Y-44229500D01*
X186023541Y-44229500D01*
X185826459Y-44229500D01*
X185826457Y-44229500D01*
X185633170Y-44267947D01*
X185633160Y-44267950D01*
X185451089Y-44343366D01*
X185358890Y-44404971D01*
X185292213Y-44425848D01*
X185224833Y-44407363D01*
X185221110Y-44404971D01*
X185169990Y-44370814D01*
X185128914Y-44343368D01*
X185128911Y-44343366D01*
X185128910Y-44343366D01*
X184946839Y-44267950D01*
X184946829Y-44267947D01*
X184753543Y-44229500D01*
X184753541Y-44229500D01*
X184556459Y-44229500D01*
X184556457Y-44229500D01*
X184363170Y-44267947D01*
X184363160Y-44267950D01*
X184181089Y-44343366D01*
X184088890Y-44404971D01*
X184022213Y-44425848D01*
X183954833Y-44407363D01*
X183951110Y-44404971D01*
X183899990Y-44370814D01*
X183858914Y-44343368D01*
X183858911Y-44343366D01*
X183858910Y-44343366D01*
X183676839Y-44267950D01*
X183676829Y-44267947D01*
X183483543Y-44229500D01*
X183483541Y-44229500D01*
X183286459Y-44229500D01*
X183286457Y-44229500D01*
X183093170Y-44267947D01*
X183093160Y-44267950D01*
X182911089Y-44343366D01*
X182818890Y-44404971D01*
X182752213Y-44425848D01*
X182684833Y-44407363D01*
X182681110Y-44404971D01*
X182629990Y-44370814D01*
X182588914Y-44343368D01*
X182588911Y-44343366D01*
X182588910Y-44343366D01*
X182406839Y-44267950D01*
X182406829Y-44267947D01*
X182213543Y-44229500D01*
X182213541Y-44229500D01*
X182016459Y-44229500D01*
X182016457Y-44229500D01*
X181823170Y-44267947D01*
X181823160Y-44267950D01*
X181641089Y-44343366D01*
X181548890Y-44404971D01*
X181482213Y-44425848D01*
X181414833Y-44407363D01*
X181411110Y-44404971D01*
X181359990Y-44370814D01*
X181318914Y-44343368D01*
X181318911Y-44343366D01*
X181318910Y-44343366D01*
X181136839Y-44267950D01*
X181136829Y-44267947D01*
X180943543Y-44229500D01*
X180943541Y-44229500D01*
X180746459Y-44229500D01*
X180746457Y-44229500D01*
X180553170Y-44267947D01*
X180553160Y-44267950D01*
X180371089Y-44343366D01*
X180278890Y-44404971D01*
X180212213Y-44425848D01*
X180144833Y-44407363D01*
X180141110Y-44404971D01*
X180089990Y-44370814D01*
X180048914Y-44343368D01*
X180048911Y-44343366D01*
X180048910Y-44343366D01*
X179866839Y-44267950D01*
X179866829Y-44267947D01*
X179673543Y-44229500D01*
X179673541Y-44229500D01*
X179476459Y-44229500D01*
X179476457Y-44229500D01*
X179283170Y-44267947D01*
X179283160Y-44267950D01*
X179101089Y-44343366D01*
X179008890Y-44404971D01*
X178942213Y-44425848D01*
X178874833Y-44407363D01*
X178871110Y-44404971D01*
X178819990Y-44370814D01*
X178778914Y-44343368D01*
X178778911Y-44343366D01*
X178778910Y-44343366D01*
X178596839Y-44267950D01*
X178596829Y-44267947D01*
X178403543Y-44229500D01*
X178403541Y-44229500D01*
X178206459Y-44229500D01*
X178206457Y-44229500D01*
X178013170Y-44267947D01*
X178013160Y-44267950D01*
X177831089Y-44343366D01*
X177738890Y-44404971D01*
X177672213Y-44425848D01*
X177604833Y-44407363D01*
X177601110Y-44404971D01*
X177549990Y-44370814D01*
X177508914Y-44343368D01*
X177508911Y-44343366D01*
X177508910Y-44343366D01*
X177326839Y-44267950D01*
X177326829Y-44267947D01*
X177133543Y-44229500D01*
X177133541Y-44229500D01*
X176936459Y-44229500D01*
X176936457Y-44229500D01*
X176743170Y-44267947D01*
X176743160Y-44267950D01*
X176561092Y-44343364D01*
X176561079Y-44343371D01*
X176397218Y-44452860D01*
X176397214Y-44452863D01*
X176257863Y-44592214D01*
X176257860Y-44592218D01*
X176148371Y-44756079D01*
X176148364Y-44756092D01*
X176072950Y-44938160D01*
X176072947Y-44938170D01*
X176034500Y-45131456D01*
X176034500Y-45131459D01*
X176034500Y-45328541D01*
X176034500Y-45328543D01*
X176034499Y-45328543D01*
X169181145Y-45328543D01*
X169121789Y-45239711D01*
X169121786Y-45239707D01*
X169010292Y-45128213D01*
X169010288Y-45128210D01*
X168879185Y-45040609D01*
X168879172Y-45040602D01*
X168733501Y-44980264D01*
X168733489Y-44980261D01*
X168578845Y-44949500D01*
X168578842Y-44949500D01*
X168421158Y-44949500D01*
X168421155Y-44949500D01*
X168266510Y-44980261D01*
X168266498Y-44980264D01*
X168120827Y-45040602D01*
X168120814Y-45040609D01*
X167989711Y-45128210D01*
X167989707Y-45128213D01*
X167878213Y-45239707D01*
X167878210Y-45239711D01*
X167790609Y-45370814D01*
X167790602Y-45370827D01*
X167730264Y-45516498D01*
X167730261Y-45516510D01*
X167699500Y-45671153D01*
X146000500Y-45671153D01*
X146000500Y-44671153D01*
X162199500Y-44671153D01*
X162199500Y-44828846D01*
X162230261Y-44983489D01*
X162230264Y-44983501D01*
X162290602Y-45129172D01*
X162290609Y-45129185D01*
X162378210Y-45260288D01*
X162378213Y-45260292D01*
X162489707Y-45371786D01*
X162489711Y-45371789D01*
X162620814Y-45459390D01*
X162620827Y-45459397D01*
X162747911Y-45512036D01*
X162766503Y-45519737D01*
X162921153Y-45550499D01*
X162921156Y-45550500D01*
X162921158Y-45550500D01*
X163078844Y-45550500D01*
X163078845Y-45550499D01*
X163089179Y-45548443D01*
X163114287Y-45543450D01*
X163114292Y-45543449D01*
X163199800Y-45526439D01*
X163233497Y-45519737D01*
X163379179Y-45459394D01*
X163510289Y-45371789D01*
X163621789Y-45260289D01*
X163709394Y-45129179D01*
X163769737Y-44983497D01*
X163800500Y-44828842D01*
X163800500Y-44671158D01*
X163800500Y-44671155D01*
X163800499Y-44671153D01*
X163779439Y-44565277D01*
X163769737Y-44516503D01*
X163769735Y-44516498D01*
X163709397Y-44370827D01*
X163709390Y-44370814D01*
X163662273Y-44300299D01*
X163641395Y-44233622D01*
X163659879Y-44166242D01*
X163711858Y-44119551D01*
X163741184Y-44109791D01*
X163804592Y-44097177D01*
X163888884Y-44080411D01*
X164034566Y-44020068D01*
X164165676Y-43932463D01*
X164277176Y-43820963D01*
X164364781Y-43689853D01*
X164385582Y-43639635D01*
X212032000Y-43639635D01*
X212032000Y-45785370D01*
X212032001Y-45785376D01*
X212038408Y-45844983D01*
X212088702Y-45979828D01*
X212088706Y-45979835D01*
X212174952Y-46095044D01*
X212174955Y-46095047D01*
X212290164Y-46181293D01*
X212290171Y-46181297D01*
X212425017Y-46231591D01*
X212425016Y-46231591D01*
X212431944Y-46232335D01*
X212484627Y-46238000D01*
X214630372Y-46237999D01*
X214689983Y-46231591D01*
X214824831Y-46181296D01*
X214940046Y-46095046D01*
X215026296Y-45979831D01*
X215076591Y-45844983D01*
X215083000Y-45785373D01*
X215082999Y-43639628D01*
X215076591Y-43580017D01*
X215064990Y-43548914D01*
X215026297Y-43445171D01*
X215026293Y-43445164D01*
X214940047Y-43329955D01*
X214940044Y-43329952D01*
X214824835Y-43243706D01*
X214824828Y-43243702D01*
X214689982Y-43193408D01*
X214689983Y-43193408D01*
X214630383Y-43187001D01*
X214630381Y-43187000D01*
X214630373Y-43187000D01*
X214630364Y-43187000D01*
X212484629Y-43187000D01*
X212484623Y-43187001D01*
X212425016Y-43193408D01*
X212290171Y-43243702D01*
X212290164Y-43243706D01*
X212174955Y-43329952D01*
X212174952Y-43329955D01*
X212088706Y-43445164D01*
X212088702Y-43445171D01*
X212038408Y-43580017D01*
X212032001Y-43639616D01*
X212032001Y-43639623D01*
X212032000Y-43639635D01*
X164385582Y-43639635D01*
X164425124Y-43544171D01*
X164455887Y-43389516D01*
X164455887Y-43231832D01*
X164455887Y-43231829D01*
X164455886Y-43231827D01*
X164425125Y-43077184D01*
X164425124Y-43077177D01*
X164397420Y-43010292D01*
X164364784Y-42931501D01*
X164364777Y-42931488D01*
X164277176Y-42800385D01*
X164277173Y-42800381D01*
X164165679Y-42688887D01*
X164165675Y-42688884D01*
X164034572Y-42601283D01*
X164034559Y-42601276D01*
X163888888Y-42540938D01*
X163888876Y-42540935D01*
X163734232Y-42510174D01*
X163734229Y-42510174D01*
X163576545Y-42510174D01*
X163576542Y-42510174D01*
X163421897Y-42540935D01*
X163421885Y-42540938D01*
X163276214Y-42601276D01*
X163276201Y-42601283D01*
X163145098Y-42688884D01*
X163145094Y-42688887D01*
X163033600Y-42800381D01*
X163033597Y-42800385D01*
X162945996Y-42931488D01*
X162945989Y-42931501D01*
X162885651Y-43077172D01*
X162885648Y-43077184D01*
X162854887Y-43231827D01*
X162854887Y-43389520D01*
X162885648Y-43544163D01*
X162885651Y-43544175D01*
X162945989Y-43689846D01*
X162945996Y-43689859D01*
X162993113Y-43760374D01*
X163013991Y-43827052D01*
X162995506Y-43894432D01*
X162943528Y-43941122D01*
X162914203Y-43950882D01*
X162766508Y-43980261D01*
X162766498Y-43980264D01*
X162620827Y-44040602D01*
X162620814Y-44040609D01*
X162489711Y-44128210D01*
X162489707Y-44128213D01*
X162378213Y-44239707D01*
X162378210Y-44239711D01*
X162290609Y-44370814D01*
X162290602Y-44370827D01*
X162230264Y-44516498D01*
X162230261Y-44516510D01*
X162199500Y-44671153D01*
X146000500Y-44671153D01*
X146000500Y-40643713D01*
X146899500Y-40643713D01*
X146899500Y-40856286D01*
X146919464Y-40982337D01*
X146932754Y-41066243D01*
X146995803Y-41260288D01*
X146998444Y-41268414D01*
X147094951Y-41457820D01*
X147219890Y-41629786D01*
X147370213Y-41780109D01*
X147542179Y-41905048D01*
X147542181Y-41905049D01*
X147542184Y-41905051D01*
X147731588Y-42001557D01*
X147933757Y-42067246D01*
X148143713Y-42100500D01*
X148143714Y-42100500D01*
X148356286Y-42100500D01*
X148356287Y-42100500D01*
X148566243Y-42067246D01*
X148768412Y-42001557D01*
X148957816Y-41905051D01*
X148994760Y-41878210D01*
X149129786Y-41780109D01*
X149129788Y-41780106D01*
X149129792Y-41780104D01*
X149280104Y-41629792D01*
X149280106Y-41629788D01*
X149280109Y-41629786D01*
X149403902Y-41459397D01*
X149405051Y-41457816D01*
X149501557Y-41268412D01*
X149567246Y-41066243D01*
X149600500Y-40856287D01*
X149600500Y-40643713D01*
X149585995Y-40552135D01*
X151599500Y-40552135D01*
X151599500Y-42447870D01*
X151599501Y-42447876D01*
X151605908Y-42507483D01*
X151656202Y-42642328D01*
X151656206Y-42642335D01*
X151742452Y-42757544D01*
X151742455Y-42757547D01*
X151857664Y-42843793D01*
X151857671Y-42843797D01*
X151992517Y-42894091D01*
X151992516Y-42894091D01*
X151999444Y-42894835D01*
X152052127Y-42900500D01*
X153947872Y-42900499D01*
X154007483Y-42894091D01*
X154142331Y-42843796D01*
X154257546Y-42757546D01*
X154343796Y-42642331D01*
X154394091Y-42507483D01*
X154400500Y-42447873D01*
X154400499Y-41389778D01*
X155099500Y-41389778D01*
X155099500Y-41610222D01*
X155099922Y-41612887D01*
X155133985Y-41827952D01*
X155202103Y-42037603D01*
X155202104Y-42037606D01*
X155302187Y-42234025D01*
X155431752Y-42412358D01*
X155431756Y-42412363D01*
X155587636Y-42568243D01*
X155587641Y-42568247D01*
X155633108Y-42601280D01*
X155765978Y-42697815D01*
X155894375Y-42763237D01*
X155962393Y-42797895D01*
X155962396Y-42797896D01*
X156067221Y-42831955D01*
X156172049Y-42866015D01*
X156389778Y-42900500D01*
X156389779Y-42900500D01*
X156610221Y-42900500D01*
X156610222Y-42900500D01*
X156827951Y-42866015D01*
X157037606Y-42797895D01*
X157234022Y-42697815D01*
X157412365Y-42568242D01*
X157559454Y-42421153D01*
X159699500Y-42421153D01*
X159699500Y-42578846D01*
X159730261Y-42733489D01*
X159730264Y-42733501D01*
X159790602Y-42879172D01*
X159790609Y-42879185D01*
X159878210Y-43010288D01*
X159878213Y-43010292D01*
X159989707Y-43121786D01*
X159989711Y-43121789D01*
X160120814Y-43209390D01*
X160120827Y-43209397D01*
X160266498Y-43269735D01*
X160266503Y-43269737D01*
X160412431Y-43298764D01*
X160421153Y-43300499D01*
X160421156Y-43300500D01*
X160421158Y-43300500D01*
X160578844Y-43300500D01*
X160578845Y-43300499D01*
X160733497Y-43269737D01*
X160879179Y-43209394D01*
X161010289Y-43121789D01*
X161121789Y-43010289D01*
X161209394Y-42879179D01*
X161269737Y-42733497D01*
X161300500Y-42578842D01*
X161300500Y-42421158D01*
X161300500Y-42421155D01*
X161300499Y-42421153D01*
X161269738Y-42266510D01*
X161269737Y-42266503D01*
X161256283Y-42234022D01*
X161209397Y-42120827D01*
X161209390Y-42120814D01*
X161121789Y-41989711D01*
X161121786Y-41989707D01*
X161010292Y-41878213D01*
X161010288Y-41878210D01*
X160879185Y-41790609D01*
X160879172Y-41790602D01*
X160733501Y-41730264D01*
X160733489Y-41730261D01*
X160578845Y-41699500D01*
X160578842Y-41699500D01*
X160421158Y-41699500D01*
X160421155Y-41699500D01*
X160266510Y-41730261D01*
X160266498Y-41730264D01*
X160120827Y-41790602D01*
X160120814Y-41790609D01*
X159989711Y-41878210D01*
X159989707Y-41878213D01*
X159878213Y-41989707D01*
X159878210Y-41989711D01*
X159790609Y-42120814D01*
X159790602Y-42120827D01*
X159730264Y-42266498D01*
X159730261Y-42266510D01*
X159699500Y-42421153D01*
X157559454Y-42421153D01*
X157568242Y-42412365D01*
X157697815Y-42234022D01*
X157797895Y-42037606D01*
X157866015Y-41827951D01*
X157900500Y-41610222D01*
X157900500Y-41389778D01*
X157866015Y-41172049D01*
X157804749Y-40983489D01*
X157797896Y-40962396D01*
X157797895Y-40962393D01*
X157743830Y-40856287D01*
X157697815Y-40765978D01*
X157695361Y-40762600D01*
X157677453Y-40737951D01*
X157628922Y-40671153D01*
X158699500Y-40671153D01*
X158699500Y-40828846D01*
X158730261Y-40983489D01*
X158730264Y-40983501D01*
X158790602Y-41129172D01*
X158790609Y-41129185D01*
X158878210Y-41260288D01*
X158878213Y-41260292D01*
X158989707Y-41371786D01*
X158989711Y-41371789D01*
X159120814Y-41459390D01*
X159120827Y-41459397D01*
X159266498Y-41519735D01*
X159266503Y-41519737D01*
X159421153Y-41550499D01*
X159421156Y-41550500D01*
X159421158Y-41550500D01*
X159578844Y-41550500D01*
X159578845Y-41550499D01*
X159733497Y-41519737D01*
X159879179Y-41459394D01*
X160010289Y-41371789D01*
X160121789Y-41260289D01*
X160209394Y-41129179D01*
X160269737Y-40983497D01*
X160282138Y-40921153D01*
X196699500Y-40921153D01*
X196699500Y-41078846D01*
X196730261Y-41233489D01*
X196730264Y-41233501D01*
X196790602Y-41379172D01*
X196790609Y-41379185D01*
X196878210Y-41510288D01*
X196878213Y-41510292D01*
X196989707Y-41621786D01*
X196989711Y-41621789D01*
X197120814Y-41709390D01*
X197120827Y-41709397D01*
X197266498Y-41769735D01*
X197266503Y-41769737D01*
X197421153Y-41800499D01*
X197421156Y-41800500D01*
X197421158Y-41800500D01*
X197578844Y-41800500D01*
X197578845Y-41800499D01*
X197733497Y-41769737D01*
X197879179Y-41709394D01*
X198010289Y-41621789D01*
X198121789Y-41510289D01*
X198209394Y-41379179D01*
X198269737Y-41233497D01*
X198300500Y-41078842D01*
X198300500Y-40921158D01*
X198300500Y-40921155D01*
X198284904Y-40842751D01*
X198284904Y-40842750D01*
X198281303Y-40824646D01*
X206819500Y-40824646D01*
X206819500Y-40982339D01*
X206850261Y-41136982D01*
X206850264Y-41136994D01*
X206910602Y-41282665D01*
X206910609Y-41282678D01*
X206998210Y-41413781D01*
X206998213Y-41413785D01*
X207109707Y-41525279D01*
X207109711Y-41525282D01*
X207240814Y-41612883D01*
X207240827Y-41612890D01*
X207386498Y-41673228D01*
X207386503Y-41673230D01*
X207541153Y-41703992D01*
X207541156Y-41703993D01*
X207541158Y-41703993D01*
X207698844Y-41703993D01*
X207698845Y-41703992D01*
X207853497Y-41673230D01*
X207999179Y-41612887D01*
X208130289Y-41525282D01*
X208241789Y-41413782D01*
X208329394Y-41282672D01*
X208389737Y-41136990D01*
X208420500Y-40982335D01*
X208420500Y-40824651D01*
X208420500Y-40824648D01*
X208420499Y-40824646D01*
X208408935Y-40766510D01*
X208389737Y-40669996D01*
X208378850Y-40643713D01*
X216399500Y-40643713D01*
X216399500Y-40856286D01*
X216419464Y-40982337D01*
X216432754Y-41066243D01*
X216495803Y-41260288D01*
X216498444Y-41268414D01*
X216594951Y-41457820D01*
X216719890Y-41629786D01*
X216870213Y-41780109D01*
X217042179Y-41905048D01*
X217042181Y-41905049D01*
X217042184Y-41905051D01*
X217231588Y-42001557D01*
X217433757Y-42067246D01*
X217643713Y-42100500D01*
X217643714Y-42100500D01*
X217856286Y-42100500D01*
X217856287Y-42100500D01*
X218066243Y-42067246D01*
X218268412Y-42001557D01*
X218457816Y-41905051D01*
X218494760Y-41878210D01*
X218629786Y-41780109D01*
X218629788Y-41780106D01*
X218629792Y-41780104D01*
X218780104Y-41629792D01*
X218780106Y-41629788D01*
X218780109Y-41629786D01*
X218903902Y-41459397D01*
X218905051Y-41457816D01*
X219001557Y-41268412D01*
X219067246Y-41066243D01*
X219100500Y-40856287D01*
X219100500Y-40643713D01*
X219067246Y-40433757D01*
X219001557Y-40231588D01*
X218905051Y-40042184D01*
X218905049Y-40042181D01*
X218905048Y-40042179D01*
X218780109Y-39870213D01*
X218629786Y-39719890D01*
X218457820Y-39594951D01*
X218268414Y-39498444D01*
X218268413Y-39498443D01*
X218268412Y-39498443D01*
X218066243Y-39432754D01*
X218066241Y-39432753D01*
X218066240Y-39432753D01*
X217904957Y-39407208D01*
X217856287Y-39399500D01*
X217643713Y-39399500D01*
X217595042Y-39407208D01*
X217433760Y-39432753D01*
X217231585Y-39498444D01*
X217042179Y-39594951D01*
X216870213Y-39719890D01*
X216719890Y-39870213D01*
X216594951Y-40042179D01*
X216498444Y-40231585D01*
X216432753Y-40433760D01*
X216399500Y-40643713D01*
X208378850Y-40643713D01*
X208369368Y-40620821D01*
X208329397Y-40524320D01*
X208329390Y-40524307D01*
X208241789Y-40393204D01*
X208241786Y-40393200D01*
X208130292Y-40281706D01*
X208130288Y-40281703D01*
X207999185Y-40194102D01*
X207999172Y-40194095D01*
X207853501Y-40133757D01*
X207853489Y-40133754D01*
X207698845Y-40102993D01*
X207698842Y-40102993D01*
X207541158Y-40102993D01*
X207541155Y-40102993D01*
X207386510Y-40133754D01*
X207386498Y-40133757D01*
X207240827Y-40194095D01*
X207240814Y-40194102D01*
X207109711Y-40281703D01*
X207109707Y-40281706D01*
X206998213Y-40393200D01*
X206998210Y-40393204D01*
X206910609Y-40524307D01*
X206910602Y-40524320D01*
X206850264Y-40669991D01*
X206850261Y-40670003D01*
X206819500Y-40824646D01*
X198281303Y-40824646D01*
X198269738Y-40766510D01*
X198269737Y-40766503D01*
X198269518Y-40765974D01*
X198209397Y-40620827D01*
X198209390Y-40620814D01*
X198121789Y-40489711D01*
X198121786Y-40489707D01*
X198010292Y-40378213D01*
X198010288Y-40378210D01*
X197879185Y-40290609D01*
X197879172Y-40290602D01*
X197733501Y-40230264D01*
X197733489Y-40230261D01*
X197578845Y-40199500D01*
X197578842Y-40199500D01*
X197421158Y-40199500D01*
X197421155Y-40199500D01*
X197266510Y-40230261D01*
X197266498Y-40230264D01*
X197120827Y-40290602D01*
X197120814Y-40290609D01*
X196989711Y-40378210D01*
X196989707Y-40378213D01*
X196878213Y-40489707D01*
X196878210Y-40489711D01*
X196790609Y-40620814D01*
X196790602Y-40620827D01*
X196730264Y-40766498D01*
X196730261Y-40766510D01*
X196699500Y-40921153D01*
X160282138Y-40921153D01*
X160295041Y-40856286D01*
X160300500Y-40828844D01*
X160300500Y-40671155D01*
X160300499Y-40671153D01*
X160280021Y-40568203D01*
X160269737Y-40516503D01*
X160259801Y-40492516D01*
X160209397Y-40370827D01*
X160209390Y-40370814D01*
X160121789Y-40239711D01*
X160121786Y-40239707D01*
X160010292Y-40128213D01*
X160010288Y-40128210D01*
X159879185Y-40040609D01*
X159879172Y-40040602D01*
X159733501Y-39980264D01*
X159733489Y-39980261D01*
X159578845Y-39949500D01*
X159578842Y-39949500D01*
X159421158Y-39949500D01*
X159421155Y-39949500D01*
X159266510Y-39980261D01*
X159266498Y-39980264D01*
X159120827Y-40040602D01*
X159120814Y-40040609D01*
X158989711Y-40128210D01*
X158989707Y-40128213D01*
X158878213Y-40239707D01*
X158878210Y-40239711D01*
X158790609Y-40370814D01*
X158790602Y-40370827D01*
X158730264Y-40516498D01*
X158730261Y-40516510D01*
X158699500Y-40671153D01*
X157628922Y-40671153D01*
X157568247Y-40587640D01*
X157412363Y-40431756D01*
X157412358Y-40431752D01*
X157234025Y-40302187D01*
X157234024Y-40302186D01*
X157234022Y-40302185D01*
X157116791Y-40242452D01*
X157037606Y-40202104D01*
X157037603Y-40202103D01*
X156827952Y-40133985D01*
X156719086Y-40116742D01*
X156610222Y-40099500D01*
X156389778Y-40099500D01*
X156317201Y-40110995D01*
X156172047Y-40133985D01*
X155962396Y-40202103D01*
X155962393Y-40202104D01*
X155765974Y-40302187D01*
X155587641Y-40431752D01*
X155587636Y-40431756D01*
X155431756Y-40587636D01*
X155431752Y-40587641D01*
X155302187Y-40765974D01*
X155202104Y-40962393D01*
X155202103Y-40962396D01*
X155133985Y-41172047D01*
X155118722Y-41268414D01*
X155099500Y-41389778D01*
X154400499Y-41389778D01*
X154400499Y-40552128D01*
X154394091Y-40492517D01*
X154393044Y-40489711D01*
X154343797Y-40357671D01*
X154343793Y-40357664D01*
X154257547Y-40242455D01*
X154257544Y-40242452D01*
X154142335Y-40156206D01*
X154142328Y-40156202D01*
X154007482Y-40105908D01*
X154007483Y-40105908D01*
X153947883Y-40099501D01*
X153947881Y-40099500D01*
X153947873Y-40099500D01*
X153947864Y-40099500D01*
X152052129Y-40099500D01*
X152052123Y-40099501D01*
X151992516Y-40105908D01*
X151857671Y-40156202D01*
X151857664Y-40156206D01*
X151742455Y-40242452D01*
X151742452Y-40242455D01*
X151656206Y-40357664D01*
X151656202Y-40357671D01*
X151605908Y-40492517D01*
X151599501Y-40552116D01*
X151599501Y-40552123D01*
X151599500Y-40552135D01*
X149585995Y-40552135D01*
X149567246Y-40433757D01*
X149501557Y-40231588D01*
X149405051Y-40042184D01*
X149405049Y-40042181D01*
X149405048Y-40042179D01*
X149280109Y-39870213D01*
X149129786Y-39719890D01*
X148957820Y-39594951D01*
X148768414Y-39498444D01*
X148768413Y-39498443D01*
X148768412Y-39498443D01*
X148566243Y-39432754D01*
X148566241Y-39432753D01*
X148566240Y-39432753D01*
X148404957Y-39407208D01*
X148356287Y-39399500D01*
X148143713Y-39399500D01*
X148095042Y-39407208D01*
X147933760Y-39432753D01*
X147731585Y-39498444D01*
X147542179Y-39594951D01*
X147370213Y-39719890D01*
X147219890Y-39870213D01*
X147094951Y-40042179D01*
X146998444Y-40231585D01*
X146932753Y-40433760D01*
X146899500Y-40643713D01*
X146000500Y-40643713D01*
X146000500Y-38624500D01*
X146020185Y-38557461D01*
X146072989Y-38511706D01*
X146124500Y-38500500D01*
X162092297Y-38500500D01*
X162159336Y-38520185D01*
G37*
%TD.AperFunction*%
%TD*%
M02*
