%TF.GenerationSoftware,KiCad,Pcbnew,9.0.4*%
%TF.CreationDate,2026-02-27T16:14:11-07:00*%
%TF.ProjectId,Ashurs PCB,41736875-7273-4205-9043-422e6b696361,rev?*%
%TF.SameCoordinates,Original*%
%TF.FileFunction,Copper,L1,Top*%
%TF.FilePolarity,Positive*%
%FSLAX46Y46*%
G04 Gerber Fmt 4.6, Leading zero omitted, Abs format (unit mm)*
G04 Created by KiCad (PCBNEW 9.0.4) date 2026-02-27 16:14:11*
%MOMM*%
%LPD*%
G01*
G04 APERTURE LIST*
G04 Aperture macros list*
%AMRoundRect*
0 Rectangle with rounded corners*
0 $1 Rounding radius*
0 $2 $3 $4 $5 $6 $7 $8 $9 X,Y pos of 4 corners*
0 Add a 4 corners polygon primitive as box body*
4,1,4,$2,$3,$4,$5,$6,$7,$8,$9,$2,$3,0*
0 Add four circle primitives for the rounded corners*
1,1,$1+$1,$2,$3*
1,1,$1+$1,$4,$5*
1,1,$1+$1,$6,$7*
1,1,$1+$1,$8,$9*
0 Add four rect primitives between the rounded corners*
20,1,$1+$1,$2,$3,$4,$5,0*
20,1,$1+$1,$4,$5,$6,$7,0*
20,1,$1+$1,$6,$7,$8,$9,0*
20,1,$1+$1,$8,$9,$2,$3,0*%
G04 Aperture macros list end*
%TA.AperFunction,SMDPad,CuDef*%
%ADD10RoundRect,0.200000X-0.200000X-0.275000X0.200000X-0.275000X0.200000X0.275000X-0.200000X0.275000X0*%
%TD*%
%TA.AperFunction,SMDPad,CuDef*%
%ADD11RoundRect,0.225000X-0.250000X0.225000X-0.250000X-0.225000X0.250000X-0.225000X0.250000X0.225000X0*%
%TD*%
%TA.AperFunction,SMDPad,CuDef*%
%ADD12R,0.300000X0.525000*%
%TD*%
%TA.AperFunction,SMDPad,CuDef*%
%ADD13R,0.425000X0.300000*%
%TD*%
%TA.AperFunction,SMDPad,CuDef*%
%ADD14RoundRect,0.100000X-0.100000X0.130000X-0.100000X-0.130000X0.100000X-0.130000X0.100000X0.130000X0*%
%TD*%
%TA.AperFunction,SMDPad,CuDef*%
%ADD15RoundRect,0.200000X-0.275000X0.200000X-0.275000X-0.200000X0.275000X-0.200000X0.275000X0.200000X0*%
%TD*%
%TA.AperFunction,ComponentPad*%
%ADD16R,1.800000X1.800000*%
%TD*%
%TA.AperFunction,ComponentPad*%
%ADD17C,1.800000*%
%TD*%
%TA.AperFunction,SMDPad,CuDef*%
%ADD18RoundRect,0.200000X0.200000X0.275000X-0.200000X0.275000X-0.200000X-0.275000X0.200000X-0.275000X0*%
%TD*%
%TA.AperFunction,SMDPad,CuDef*%
%ADD19R,0.279400X0.254000*%
%TD*%
%TA.AperFunction,SMDPad,CuDef*%
%ADD20R,0.254000X0.279400*%
%TD*%
%TA.AperFunction,SMDPad,CuDef*%
%ADD21R,1.000000X1.050000*%
%TD*%
%TA.AperFunction,SMDPad,CuDef*%
%ADD22RoundRect,0.225000X0.250000X-0.225000X0.250000X0.225000X-0.250000X0.225000X-0.250000X-0.225000X0*%
%TD*%
%TA.AperFunction,SMDPad,CuDef*%
%ADD23RoundRect,0.225000X0.225000X0.250000X-0.225000X0.250000X-0.225000X-0.250000X0.225000X-0.250000X0*%
%TD*%
%TA.AperFunction,ComponentPad*%
%ADD24R,1.000000X1.000000*%
%TD*%
%TA.AperFunction,ComponentPad*%
%ADD25C,1.000000*%
%TD*%
%TA.AperFunction,SMDPad,CuDef*%
%ADD26R,0.508000X1.473200*%
%TD*%
%TA.AperFunction,SMDPad,CuDef*%
%ADD27R,1.473200X0.508000*%
%TD*%
%TA.AperFunction,SMDPad,CuDef*%
%ADD28RoundRect,0.150000X-0.512500X-0.150000X0.512500X-0.150000X0.512500X0.150000X-0.512500X0.150000X0*%
%TD*%
%TA.AperFunction,SMDPad,CuDef*%
%ADD29RoundRect,0.225000X-0.225000X-0.250000X0.225000X-0.250000X0.225000X0.250000X-0.225000X0.250000X0*%
%TD*%
%TA.AperFunction,SMDPad,CuDef*%
%ADD30RoundRect,0.200000X0.275000X-0.200000X0.275000X0.200000X-0.275000X0.200000X-0.275000X-0.200000X0*%
%TD*%
%TA.AperFunction,SMDPad,CuDef*%
%ADD31RoundRect,0.218750X0.218750X0.256250X-0.218750X0.256250X-0.218750X-0.256250X0.218750X-0.256250X0*%
%TD*%
%TA.AperFunction,SMDPad,CuDef*%
%ADD32RoundRect,0.175000X-0.175000X-0.325000X0.175000X-0.325000X0.175000X0.325000X-0.175000X0.325000X0*%
%TD*%
%TA.AperFunction,SMDPad,CuDef*%
%ADD33RoundRect,0.150000X-0.200000X-0.150000X0.200000X-0.150000X0.200000X0.150000X-0.200000X0.150000X0*%
%TD*%
%TA.AperFunction,SMDPad,CuDef*%
%ADD34RoundRect,0.150000X0.587500X0.150000X-0.587500X0.150000X-0.587500X-0.150000X0.587500X-0.150000X0*%
%TD*%
%TA.AperFunction,SMDPad,CuDef*%
%ADD35R,0.355600X0.355600*%
%TD*%
%TA.AperFunction,SMDPad,CuDef*%
%ADD36R,0.812800X0.254000*%
%TD*%
%TA.AperFunction,SMDPad,CuDef*%
%ADD37R,0.254000X0.812800*%
%TD*%
%TA.AperFunction,SMDPad,CuDef*%
%ADD38R,1.701800X1.701800*%
%TD*%
%TA.AperFunction,ComponentPad*%
%ADD39R,2.050000X2.050000*%
%TD*%
%TA.AperFunction,ComponentPad*%
%ADD40C,2.050000*%
%TD*%
%TA.AperFunction,SMDPad,CuDef*%
%ADD41RoundRect,0.250000X-0.300000X0.300000X-0.300000X-0.300000X0.300000X-0.300000X0.300000X0.300000X0*%
%TD*%
%TA.AperFunction,SMDPad,CuDef*%
%ADD42R,0.600000X1.150000*%
%TD*%
%TA.AperFunction,SMDPad,CuDef*%
%ADD43R,0.300000X1.150000*%
%TD*%
%TA.AperFunction,SMDPad,CuDef*%
%ADD44R,1.500000X1.500000*%
%TD*%
%TA.AperFunction,SMDPad,CuDef*%
%ADD45R,1.460500X0.558800*%
%TD*%
%TA.AperFunction,ComponentPad*%
%ADD46C,1.408000*%
%TD*%
%TA.AperFunction,ViaPad*%
%ADD47C,0.600000*%
%TD*%
%TA.AperFunction,Conductor*%
%ADD48C,0.200000*%
%TD*%
G04 APERTURE END LIST*
D10*
%TO.P,R18,1*%
%TO.N,Net-(D1-K)*%
X208350000Y-53750000D03*
%TO.P,R18,2*%
%TO.N,GND*%
X210000000Y-53750000D03*
%TD*%
D11*
%TO.P,C3,1*%
%TO.N,+3V3*%
X208000000Y-49950000D03*
%TO.P,C3,2*%
%TO.N,GND*%
X208000000Y-51500000D03*
%TD*%
D12*
%TO.P,U1,1*%
%TO.N,N/C*%
X166000000Y-49937500D03*
D13*
%TO.P,U1,2,GND*%
%TO.N,GND*%
X165937500Y-50750000D03*
%TO.P,U1,3,VDD*%
%TO.N,+3V3*%
X165937500Y-51250000D03*
%TO.P,U1,4,NBOOT_LOAD_PIN*%
%TO.N,IMU_nBOOTLOADPIN*%
X165937500Y-51750000D03*
%TO.P,U1,5,PS1*%
%TO.N,GND*%
X165937500Y-52250000D03*
D12*
%TO.P,U1,6,PS0*%
X166000000Y-53062500D03*
%TO.P,U1,7*%
%TO.N,N/C*%
X166500000Y-53062500D03*
%TO.P,U1,8*%
X167000000Y-53062500D03*
%TO.P,U1,9,CAP*%
%TO.N,Net-(U1-CAP)*%
X167500000Y-53062500D03*
%TO.P,U1,10,PIN10*%
%TO.N,IMU_BL_IND*%
X168000000Y-53062500D03*
%TO.P,U1,11,NRESET*%
%TO.N,IMU_nRESET*%
X168500000Y-53062500D03*
%TO.P,U1,12*%
%TO.N,N/C*%
X169000000Y-53062500D03*
%TO.P,U1,13*%
X169500000Y-53062500D03*
%TO.P,U1,14,INT*%
%TO.N,unconnected-(U1-INT-Pad14)*%
X170000000Y-53062500D03*
%TO.P,U1,15*%
%TO.N,N/C*%
X170500000Y-53062500D03*
D13*
%TO.P,U1,16,PIN16*%
%TO.N,unconnected-(U1-PIN16-Pad16)*%
X170562500Y-52250000D03*
%TO.P,U1,17,COM3*%
%TO.N,unconnected-(U1-COM3-Pad17)*%
X170562500Y-51750000D03*
%TO.P,U1,18,COM2*%
%TO.N,GND*%
X170562500Y-51250000D03*
%TO.P,U1,19,COM1*%
%TO.N,Altimeter_SCL*%
X170562500Y-50750000D03*
D12*
%TO.P,U1,20,COM0*%
%TO.N,Altimeter_SDA*%
X170500000Y-49937500D03*
%TO.P,U1,21*%
%TO.N,N/C*%
X170000000Y-49937500D03*
%TO.P,U1,22*%
X169500000Y-49937500D03*
%TO.P,U1,23*%
X169000000Y-49937500D03*
%TO.P,U1,24*%
X168500000Y-49937500D03*
%TO.P,U1,25,GNDIO*%
%TO.N,GND*%
X168000000Y-49937500D03*
%TO.P,U1,26,XOUT32*%
%TO.N,unconnected-(U1-XOUT32-Pad26)*%
X167500000Y-49937500D03*
%TO.P,U1,27,XIN32*%
%TO.N,unconnected-(U1-XIN32-Pad27)*%
X167000000Y-49937500D03*
%TO.P,U1,28,VDDIO*%
%TO.N,+3V3*%
X166500000Y-49937500D03*
%TD*%
D14*
%TO.P,C15,1*%
%TO.N,NRST*%
X186500000Y-61180000D03*
%TO.P,C15,2*%
%TO.N,GND*%
X186500000Y-61820000D03*
%TD*%
D15*
%TO.P,R17,1*%
%TO.N,Altimeter_SCL*%
X193000000Y-58925000D03*
%TO.P,R17,2*%
%TO.N,+3V3*%
X193000000Y-60575000D03*
%TD*%
D14*
%TO.P,D4,1,K*%
%TO.N,Net-(D4-K)*%
X182750000Y-50180000D03*
%TO.P,D4,2,A*%
%TO.N,COOLLED*%
X182750000Y-50820000D03*
%TD*%
D16*
%TO.P,J3,1,1*%
%TO.N,Net-(U6-+)*%
X153000000Y-41500000D03*
D17*
%TO.P,J3,2,2*%
%TO.N,VIN*%
X156500000Y-41500000D03*
%TD*%
D10*
%TO.P,R11,1*%
%TO.N,+3V3*%
X160425000Y-43500000D03*
%TO.P,R11,2*%
%TO.N,Net-(U6--)*%
X162075000Y-43500000D03*
%TD*%
D14*
%TO.P,JP2,1,A*%
%TO.N,NRST*%
X188503115Y-60997372D03*
%TO.P,JP2,2,B*%
%TO.N,GND*%
X188503115Y-61637372D03*
%TD*%
D18*
%TO.P,R12,1*%
%TO.N,Net-(U6--)*%
X162000000Y-41750000D03*
%TO.P,R12,2*%
%TO.N,GND*%
X160350000Y-41750000D03*
%TD*%
%TO.P,R8,1*%
%TO.N,Net-(U5-WAKEUP)*%
X193750000Y-49000000D03*
%TO.P,R8,2*%
%TO.N,+3V3*%
X192100000Y-49000000D03*
%TD*%
D19*
%TO.P,U2,1,ADJ/GND*%
%TO.N,GND*%
X209712600Y-39750000D03*
%TO.P,U2,2,Vout*%
%TO.N,+3V3*%
X209712600Y-40250000D03*
D20*
%TO.P,U2,3,Vin*%
%TO.N,VIN*%
X210000001Y-40787400D03*
%TO.P,U2,4,Vout*%
%TO.N,unconnected-(U2-Vout-Pad4)*%
X210500000Y-40787400D03*
%TO.P,U2,5*%
%TO.N,N/C*%
X210999999Y-40787400D03*
D19*
%TO.P,U2,6*%
X211287400Y-40250000D03*
%TO.P,U2,7*%
X211287400Y-39750000D03*
D20*
%TO.P,U2,8*%
X210999999Y-39212600D03*
%TO.P,U2,9*%
X210500000Y-39212600D03*
%TO.P,U2,10*%
X210000001Y-39212600D03*
%TD*%
D18*
%TO.P,R14,1*%
%TO.N,+3V3*%
X171750000Y-54750000D03*
%TO.P,R14,2*%
%TO.N,IMU_nRESET*%
X170100000Y-54750000D03*
%TD*%
D11*
%TO.P,C4,1*%
%TO.N,VIN*%
X210000000Y-49950000D03*
%TO.P,C4,2*%
%TO.N,GND*%
X210000000Y-51500000D03*
%TD*%
D18*
%TO.P,R10,1*%
%TO.N,+3V3*%
X171150000Y-45750000D03*
%TO.P,R10,2*%
%TO.N,SWITCH*%
X169500000Y-45750000D03*
%TD*%
D21*
%TO.P,Y2,1,OE*%
%TO.N,RCC_OSC_OUT*%
X167700000Y-61675000D03*
%TO.P,Y2,2,GND*%
%TO.N,GND*%
X170300000Y-61675000D03*
%TO.P,Y2,3,OUTPUT*%
%TO.N,RCC_OSC_IN*%
X170300000Y-59825000D03*
%TO.P,Y2,4,SUPPLY_VOLTAGE*%
%TO.N,+3V3*%
X167700000Y-59825000D03*
%TD*%
D22*
%TO.P,C12,1*%
%TO.N,+3V3*%
X175500000Y-60050000D03*
%TO.P,C12,2*%
%TO.N,GND*%
X175500000Y-58500000D03*
%TD*%
D23*
%TO.P,C7,1*%
%TO.N,GND*%
X195000000Y-53026000D03*
%TO.P,C7,2*%
%TO.N,+3V3*%
X193450000Y-53026000D03*
%TD*%
D24*
%TO.P,J1,1,1*%
%TO.N,+3V3*%
X188465000Y-46500000D03*
D25*
%TO.P,J1,2,2*%
X188465000Y-45230000D03*
%TO.P,J1,3,3*%
%TO.N,GND*%
X187195000Y-46500000D03*
%TO.P,J1,4,4*%
X187195000Y-45230000D03*
%TO.P,J1,5,5*%
X185925000Y-46500000D03*
%TO.P,J1,6,6*%
X185925000Y-45230000D03*
%TO.P,J1,7,7*%
%TO.N,PROG_SWDIO*%
X184655000Y-46500000D03*
%TO.P,J1,8,8*%
%TO.N,GND*%
X184655000Y-45230000D03*
%TO.P,J1,9,9*%
%TO.N,PROG_SWCLK*%
X183385000Y-46500000D03*
%TO.P,J1,10,10*%
%TO.N,GND*%
X183385000Y-45230000D03*
%TO.P,J1,11,11*%
%TO.N,unconnected-(J1-Pad11)*%
X182115000Y-46500000D03*
%TO.P,J1,12,12*%
%TO.N,GND*%
X182115000Y-45230000D03*
%TO.P,J1,13,13*%
%TO.N,PROG_SWO*%
X180845000Y-46500000D03*
%TO.P,J1,14,14*%
%TO.N,GND*%
X180845000Y-45230000D03*
%TO.P,J1,15,15*%
%TO.N,NRST*%
X179575000Y-46500000D03*
%TO.P,J1,16,16*%
%TO.N,GND*%
X179575000Y-45230000D03*
%TO.P,J1,17,17*%
%TO.N,unconnected-(J1-Pad17)*%
X178305000Y-46500000D03*
%TO.P,J1,18,18*%
%TO.N,GND*%
X178305000Y-45230000D03*
%TO.P,J1,19,19*%
%TO.N,unconnected-(J1-Pad19)*%
X177035000Y-46500000D03*
%TO.P,J1,20,20*%
%TO.N,GND*%
X177035000Y-45230000D03*
%TD*%
D26*
%TO.P,U7,1,VDD*%
%TO.N,+3V3*%
X179200001Y-60614800D03*
%TO.P,U7,2,PF0-OSC_IN*%
%TO.N,RCC_OSC_IN*%
X179999999Y-60614800D03*
%TO.P,U7,3,PF1-OSC_OUT*%
%TO.N,RCC_OSC_OUT*%
X180800000Y-60614800D03*
%TO.P,U7,4,PG10-NRST*%
%TO.N,NRST*%
X181600001Y-60614800D03*
%TO.P,U7,5,PA0*%
%TO.N,SWITCH*%
X182399999Y-60614800D03*
%TO.P,U7,6,PA1*%
%TO.N,Buzzer*%
X183200000Y-60614800D03*
%TO.P,U7,7,PA2*%
%TO.N,Flash_WP*%
X183999999Y-60614800D03*
%TO.P,U7,8,PA3*%
%TO.N,Flash_Hold*%
X184799999Y-60614800D03*
D27*
%TO.P,U7,9,PA4*%
%TO.N,Flash_CE*%
X186114800Y-59299999D03*
%TO.P,U7,10,PA5*%
%TO.N,Flash_SCK*%
X186114800Y-58500001D03*
%TO.P,U7,11,PA6*%
%TO.N,Flash_SO*%
X186114800Y-57700000D03*
%TO.P,U7,12,PA7*%
%TO.N,Flash_SI*%
X186114800Y-56899999D03*
%TO.P,U7,13,PB0*%
%TO.N,USB_RSTB*%
X186114800Y-56100001D03*
%TO.P,U7,14,VSSA*%
%TO.N,GND*%
X186114800Y-55300000D03*
%TO.P,U7,15,VDDA*%
%TO.N,+3V3*%
X186114800Y-54500001D03*
%TO.P,U7,16,VSS*%
%TO.N,GND*%
X186114800Y-53700001D03*
D26*
%TO.P,U7,17,VDD*%
%TO.N,+3V3*%
X184799999Y-52385200D03*
%TO.P,U7,18,PA8*%
%TO.N,Altimeter_SDA*%
X184000001Y-52385200D03*
%TO.P,U7,19,PA9*%
%TO.N,Altimeter_SCL*%
X183200000Y-52385200D03*
%TO.P,U7,20,PA10*%
%TO.N,COOLLED*%
X182399999Y-52385200D03*
%TO.P,U7,21,PA11*%
%TO.N,PROG_SWO*%
X181600001Y-52385200D03*
%TO.P,U7,22,PA12*%
%TO.N,unconnected-(U7A-PA12-Pad22)*%
X180800000Y-52385200D03*
%TO.P,U7,23,PA13*%
%TO.N,PROG_SWDIO*%
X180000001Y-52385200D03*
%TO.P,U7,24,PA14*%
%TO.N,PROG_SWCLK*%
X179200001Y-52385200D03*
D27*
%TO.P,U7,25,PA15*%
%TO.N,unconnected-(U7A-PA15-Pad25)*%
X177885200Y-53700001D03*
%TO.P,U7,26,PB3*%
%TO.N,USB_TXD*%
X177885200Y-54499999D03*
%TO.P,U7,27,PB4*%
%TO.N,USB_RXD*%
X177885200Y-55300000D03*
%TO.P,U7,28,PB5*%
%TO.N,IMU_BL_IND*%
X177885200Y-56100001D03*
%TO.P,U7,29,PB6*%
%TO.N,IMU_nBOOTLOADPIN*%
X177885200Y-56899999D03*
%TO.P,U7,30,PB7*%
%TO.N,IMU_nRESET*%
X177885200Y-57700000D03*
%TO.P,U7,31,PB8-BOOT0*%
%TO.N,BOOT*%
X177885200Y-58499999D03*
%TO.P,U7,32,VSS*%
%TO.N,GND*%
X177885200Y-59299999D03*
%TD*%
D28*
%TO.P,U6,1,+*%
%TO.N,Net-(U6-+)*%
X165792500Y-40915000D03*
%TO.P,U6,2,-*%
%TO.N,Net-(U6--)*%
X165792500Y-41865000D03*
%TO.P,U6,3,V+*%
%TO.N,VIN*%
X165792500Y-42815000D03*
%TO.P,U6,4,V-*%
%TO.N,GND*%
X168067500Y-42815000D03*
%TO.P,U6,5*%
%TO.N,SWITCH*%
X168067500Y-40915000D03*
%TD*%
D23*
%TO.P,C8,1*%
%TO.N,GND*%
X198275000Y-53026000D03*
%TO.P,C8,2*%
%TO.N,+3V3*%
X196725000Y-53026000D03*
%TD*%
D18*
%TO.P,R6,1*%
%TO.N,GND*%
X201750000Y-49000000D03*
%TO.P,R6,2*%
%TO.N,Net-(U5-VBUS)*%
X200100000Y-49000000D03*
%TD*%
D23*
%TO.P,C2,1*%
%TO.N,Net-(U1-CAP)*%
X168500000Y-54750000D03*
%TO.P,C2,2*%
%TO.N,GND*%
X166950000Y-54750000D03*
%TD*%
D14*
%TO.P,JP1,1,A*%
%TO.N,+3V3*%
X175250000Y-55280000D03*
%TO.P,JP1,2,B*%
%TO.N,BOOT*%
X175250000Y-55920000D03*
%TD*%
D11*
%TO.P,C1,1*%
%TO.N,GND*%
X164250000Y-50225000D03*
%TO.P,C1,2*%
%TO.N,+3V3*%
X164250000Y-51775000D03*
%TD*%
%TO.P,C6,1*%
%TO.N,+3V3*%
X193000000Y-55725000D03*
%TO.P,C6,2*%
%TO.N,GND*%
X193000000Y-57275000D03*
%TD*%
D29*
%TO.P,C11,1*%
%TO.N,+3V3*%
X188250000Y-49750000D03*
%TO.P,C11,2*%
%TO.N,GND*%
X189800000Y-49750000D03*
%TD*%
D30*
%TO.P,R15,1*%
%TO.N,+3V3*%
X165250000Y-56250000D03*
%TO.P,R15,2*%
%TO.N,IMU_nBOOTLOADPIN*%
X165250000Y-54600000D03*
%TD*%
D31*
%TO.P,D1,1,K*%
%TO.N,Net-(D1-K)*%
X209537500Y-47750000D03*
%TO.P,D1,2,A*%
%TO.N,+3V3*%
X207962500Y-47750000D03*
%TD*%
D18*
%TO.P,R4,1*%
%TO.N,+3V3*%
X185569911Y-48740620D03*
%TO.P,R4,2*%
%TO.N,PROG_SWDIO*%
X183919911Y-48740620D03*
%TD*%
D10*
%TO.P,R16,1*%
%TO.N,Altimeter_SDA*%
X194925000Y-60500000D03*
%TO.P,R16,2*%
%TO.N,+3V3*%
X196575000Y-60500000D03*
%TD*%
D29*
%TO.P,C5,1*%
%TO.N,+3V3*%
X194750000Y-56000000D03*
%TO.P,C5,2*%
%TO.N,GND*%
X196300000Y-56000000D03*
%TD*%
D18*
%TO.P,R2,1*%
%TO.N,+3V3*%
X173650000Y-51500000D03*
%TO.P,R2,2*%
%TO.N,Altimeter_SCL*%
X172000000Y-51500000D03*
%TD*%
%TO.P,R1,1*%
%TO.N,+3V3*%
X173650000Y-49750000D03*
%TO.P,R1,2*%
%TO.N,Altimeter_SDA*%
X172000000Y-49750000D03*
%TD*%
D32*
%TO.P,D3,1*%
%TO.N,GND*%
X204000000Y-47750000D03*
D33*
%TO.P,D3,2*%
%TO.N,VBUS*%
X204000000Y-49450000D03*
%TO.P,D3,3*%
%TO.N,Net-(J2-DP1)*%
X206000000Y-49450000D03*
%TO.P,D3,4*%
%TO.N,Net-(J2-DN1)*%
X206000000Y-47550000D03*
%TD*%
D29*
%TO.P,C10,1*%
%TO.N,+3V3*%
X188225000Y-53250000D03*
%TO.P,C10,2*%
%TO.N,GND*%
X189775000Y-53250000D03*
%TD*%
D34*
%TO.P,Q1,1,D*%
%TO.N,Net-(Q1-D)*%
X150000000Y-50000000D03*
%TO.P,Q1,2,G*%
%TO.N,Buzzer*%
X150000000Y-48100000D03*
%TO.P,Q1,3,S*%
%TO.N,GND*%
X148125000Y-49050000D03*
%TD*%
D10*
%TO.P,R13,1*%
%TO.N,Net-(D4-K)*%
X184250000Y-50500000D03*
%TO.P,R13,2*%
%TO.N,GND*%
X185900000Y-50500000D03*
%TD*%
%TO.P,R3,1*%
%TO.N,+3V3*%
X180744690Y-48740620D03*
%TO.P,R3,2*%
%TO.N,PROG_SWCLK*%
X182394690Y-48740620D03*
%TD*%
D29*
%TO.P,C14,1*%
%TO.N,+3V3*%
X166475000Y-48250000D03*
%TO.P,C14,2*%
%TO.N,GND*%
X168025000Y-48250000D03*
%TD*%
D22*
%TO.P,C13,1*%
%TO.N,+3V3*%
X173750000Y-60050000D03*
%TO.P,C13,2*%
%TO.N,GND*%
X173750000Y-58500000D03*
%TD*%
D29*
%TO.P,C9,1*%
%TO.N,+3V3*%
X188250000Y-51500000D03*
%TO.P,C9,2*%
%TO.N,GND*%
X189800000Y-51500000D03*
%TD*%
D35*
%TO.P,U5,1,GPIO.1_/_RS485*%
%TO.N,unconnected-(U5-GPIO.1_{slash}_RS485-Pad1)*%
X198249811Y-50397061D03*
D36*
%TO.P,U5,2,GPIO.0_/CLK*%
%TO.N,unconnected-(U5-GPIO.0_{slash}CLK-Pad2)*%
X198396811Y-49897189D03*
%TO.P,U5,3,GND*%
%TO.N,GND*%
X198396811Y-49397063D03*
%TO.P,U5,4,D+*%
%TO.N,Net-(J2-DP1)*%
X198396811Y-48896937D03*
%TO.P,U5,5,D-*%
%TO.N,Net-(J2-DN1)*%
X198396811Y-48396811D03*
D35*
%TO.P,U5,6,VDD*%
%TO.N,+3V3*%
X198249811Y-47896939D03*
D37*
%TO.P,U5,7,VREGIN*%
%TO.N,VBUS*%
X197750000Y-47750000D03*
%TO.P,U5,8,VBUS*%
%TO.N,Net-(U5-VBUS)*%
X197249874Y-47750000D03*
%TO.P,U5,9,RSTB*%
%TO.N,USB_RSTB*%
X196749748Y-47750000D03*
%TO.P,U5,10,NC*%
%TO.N,unconnected-(U5-NC-Pad10)*%
X196249622Y-47750000D03*
D35*
%TO.P,U5,11,SUSPENDB*%
%TO.N,unconnected-(U5-SUSPENDB-Pad11)*%
X195749811Y-47896939D03*
D36*
%TO.P,U5,12,GND*%
%TO.N,GND*%
X195602811Y-48396811D03*
%TO.P,U5,13,WAKEUP*%
%TO.N,Net-(U5-WAKEUP)*%
X195602811Y-48896937D03*
%TO.P,U5,14,SUSPEND*%
%TO.N,unconnected-(U5-SUSPEND-Pad14)*%
X195602811Y-49397063D03*
%TO.P,U5,15,CTS*%
%TO.N,unconnected-(U5-CTS-Pad15)*%
X195602811Y-49897189D03*
D35*
%TO.P,U5,16,RTS*%
%TO.N,unconnected-(U5-RTS-Pad16)*%
X195749811Y-50397061D03*
D37*
%TO.P,U5,17,RXD*%
%TO.N,USB_TXD*%
X196249622Y-50544000D03*
%TO.P,U5,18,TXD*%
%TO.N,USB_RXD*%
X196749748Y-50544000D03*
%TO.P,U5,19,GPIO.3_/_RXT*%
%TO.N,unconnected-(U5-GPIO.3_{slash}_RXT-Pad19)*%
X197249874Y-50544000D03*
%TO.P,U5,20,GPIO.2_/_TXT*%
%TO.N,unconnected-(U5-GPIO.2_{slash}_TXT-Pad20)*%
X197750000Y-50544000D03*
D38*
%TO.P,U5,21,EPAD*%
%TO.N,GND*%
X196999811Y-49147000D03*
%TD*%
D18*
%TO.P,R9,1*%
%TO.N,Net-(U6-+)*%
X162000000Y-40000000D03*
%TO.P,R9,2*%
%TO.N,GND*%
X160350000Y-40000000D03*
%TD*%
D39*
%TO.P,J4,1,1*%
%TO.N,LIPO_POWER*%
X213557500Y-44712500D03*
D40*
%TO.P,J4,2,2*%
%TO.N,GND*%
X217517500Y-44712500D03*
%TD*%
D41*
%TO.P,D2,1,K*%
%TO.N,VIN*%
X210000000Y-42600000D03*
%TO.P,D2,2,A*%
%TO.N,VBUS*%
X210000000Y-45400000D03*
%TD*%
D19*
%TO.P,U4,1,VDDIO*%
%TO.N,+3V3*%
X194712601Y-57962600D03*
%TO.P,U4,2,SCK*%
%TO.N,Altimeter_SCL*%
X194712601Y-58462600D03*
D20*
%TO.P,U4,3,VSS*%
%TO.N,GND*%
X195000002Y-59000000D03*
%TO.P,U4,4,SDI*%
%TO.N,Altimeter_SDA*%
X195500001Y-59000000D03*
%TO.P,U4,5,SDO*%
%TO.N,+3V3*%
X196000000Y-59000000D03*
D19*
%TO.P,U4,6,CSB*%
X196287401Y-58462600D03*
%TO.P,U4,7,INT*%
%TO.N,unconnected-(U4-INT-Pad7)*%
X196287401Y-57962600D03*
D20*
%TO.P,U4,8,VSS*%
%TO.N,GND*%
X196000000Y-57425200D03*
%TO.P,U4,9,VSS*%
X195500001Y-57425200D03*
%TO.P,U4,10,VDD*%
%TO.N,+3V3*%
X195000002Y-57425200D03*
%TD*%
D41*
%TO.P,D5,1,K*%
%TO.N,VIN*%
X214000000Y-39600000D03*
%TO.P,D5,2,A*%
%TO.N,LIPO_POWER*%
X214000000Y-42400000D03*
%TD*%
D10*
%TO.P,R5,1*%
%TO.N,Net-(U5-VBUS)*%
X200100000Y-47250000D03*
%TO.P,R5,2*%
%TO.N,VBUS*%
X201750000Y-47250000D03*
%TD*%
%TO.P,R7,1*%
%TO.N,Net-(J2-CC1)*%
X200100000Y-50750000D03*
%TO.P,R7,2*%
%TO.N,GND*%
X201750000Y-50750000D03*
%TD*%
D42*
%TO.P,J2,A1_B12,GND_A*%
%TO.N,GND*%
X205700000Y-45408493D03*
%TO.P,J2,A4_B9,VBUS_A*%
%TO.N,VBUS*%
X204900000Y-45408493D03*
D43*
%TO.P,J2,A5,CC1*%
%TO.N,Net-(J2-CC1)*%
X203750000Y-45408493D03*
%TO.P,J2,A6,DP1*%
%TO.N,Net-(J2-DP1)*%
X202750000Y-45408493D03*
%TO.P,J2,A7,DN1*%
%TO.N,Net-(J2-DN1)*%
X202250000Y-45408493D03*
%TO.P,J2,A8,SBU1*%
%TO.N,unconnected-(J2-SBU1-PadA8)*%
X201250000Y-45408493D03*
D42*
%TO.P,J2,B1_A12,GND_B*%
%TO.N,GND*%
X199300000Y-45408493D03*
%TO.P,J2,B4_A9,VBUS_B*%
%TO.N,VBUS*%
X200100000Y-45408493D03*
D43*
%TO.P,J2,B5,CC2*%
%TO.N,Net-(J2-CC1)*%
X200750000Y-45408493D03*
%TO.P,J2,B6,DP2*%
%TO.N,Net-(J2-DP1)*%
X201750000Y-45408493D03*
%TO.P,J2,B7,DN2*%
%TO.N,Net-(J2-DN1)*%
X203250000Y-45408493D03*
%TO.P,J2,B8,SBU2*%
%TO.N,unconnected-(J2-SBU2-PadB8)*%
X204250000Y-45408493D03*
D44*
%TO.P,J2,SH1,SHIELD*%
%TO.N,GND*%
X207620000Y-44833493D03*
%TO.P,J2,SH2,SHIELD__1*%
X197380000Y-44833493D03*
%TO.P,J2,SH3,SHIELD__2*%
X207620000Y-40903493D03*
%TO.P,J2,SH4,SHIELD__3*%
X197380000Y-40903493D03*
%TD*%
D45*
%TO.P,U3,1,\u002ACE*%
%TO.N,Flash_CE*%
X200525850Y-54845000D03*
%TO.P,U3,2,SO*%
%TO.N,Flash_SO*%
X200525850Y-56115000D03*
%TO.P,U3,3,\u002AWP*%
%TO.N,Flash_WP*%
X200525850Y-57385000D03*
%TO.P,U3,4,VSS*%
%TO.N,GND*%
X200525850Y-58655000D03*
%TO.P,U3,5,SI*%
%TO.N,Flash_SI*%
X205974150Y-58655000D03*
%TO.P,U3,6,SCK*%
%TO.N,Flash_SCK*%
X205974150Y-57385000D03*
%TO.P,U3,7,\u002AHOLD*%
%TO.N,Flash_Hold*%
X205974150Y-56115000D03*
%TO.P,U3,8,VDD*%
%TO.N,+3V3*%
X205974150Y-54845000D03*
%TD*%
D46*
%TO.P,LS1,N*%
%TO.N,Net-(Q1-D)*%
X160500000Y-55000000D03*
%TO.P,LS1,P*%
%TO.N,+3V3*%
X152900000Y-55000000D03*
%TD*%
D47*
%TO.N,USB_RXD*%
X193750000Y-51000000D03*
%TO.N,USB_TXD*%
X194498943Y-50399000D03*
%TO.N,GND*%
X160500000Y-42500000D03*
X202753210Y-50024675D03*
X146500000Y-49000000D03*
X200750000Y-60000000D03*
X207620000Y-40903493D03*
X163655387Y-43310674D03*
X197250000Y-49000000D03*
X198750000Y-52026000D03*
X159500000Y-40750000D03*
X197500000Y-41000000D03*
X170750000Y-61750000D03*
X189750000Y-60000000D03*
X204750000Y-47750000D03*
X193750000Y-57250000D03*
X207500000Y-45000000D03*
X172750000Y-58500000D03*
X219250000Y-45250000D03*
X210000000Y-55000000D03*
X185250000Y-49750000D03*
X194264004Y-59156638D03*
%TO.N,+3V3*%
X206500000Y-51250000D03*
X159500000Y-43250000D03*
X191250000Y-51750000D03*
X165374297Y-48874289D03*
X198675734Y-47350000D03*
X205750000Y-41500000D03*
X186500000Y-51750000D03*
X166500000Y-59750000D03*
X179625735Y-49474265D03*
X172000000Y-48500000D03*
X172750000Y-60000000D03*
%TO.N,VIN*%
X163000000Y-44750000D03*
X211000000Y-48500000D03*
%TO.N,NRST*%
X179225375Y-53700377D03*
X178250000Y-52750000D03*
%TO.N,Net-(D1-K)*%
X209000000Y-49000000D03*
X208350000Y-53750000D03*
%TO.N,VBUS*%
X204000000Y-49450000D03*
X201673899Y-47173899D03*
X204900000Y-45707771D03*
%TO.N,Net-(J2-DN1)*%
X199240182Y-48396811D03*
X203150000Y-47971772D03*
%TO.N,Net-(J2-DP1)*%
X199302703Y-49747619D03*
X202650000Y-49231358D03*
X199302703Y-49747619D03*
%TO.N,PROG_SWO*%
X179750000Y-48250000D03*
X181799265Y-50799265D03*
%TO.N,Net-(U6-+)*%
X163000000Y-38800000D03*
%TO.N,Buzzer*%
X164750000Y-59500000D03*
X183250000Y-58250000D03*
%TO.N,Altimeter_SDA*%
X180697404Y-53621802D03*
X188750000Y-55500000D03*
X184000000Y-54750000D03*
X172814299Y-50326460D03*
%TO.N,Altimeter_SCL*%
X183199997Y-54750000D03*
X189750000Y-55750000D03*
X172000000Y-53000000D03*
%TO.N,Net-(U5-VBUS)*%
X199500000Y-47250000D03*
X197150000Y-46750000D03*
%TO.N,SWITCH*%
X168500000Y-45750000D03*
X182500000Y-59250000D03*
%TO.N,IMU_nRESET*%
X174662025Y-57849999D03*
X179000000Y-57849999D03*
%TO.N,IMU_nBOOTLOADPIN*%
X179512149Y-57235421D03*
X171250000Y-57250000D03*
%TO.N,IMU_BL_IND*%
X168000000Y-51750000D03*
X179250000Y-56451000D03*
%TO.N,Flash_SO*%
X198500000Y-57500000D03*
X189000000Y-57956297D03*
%TO.N,Flash_WP*%
X184000000Y-59000000D03*
X199250000Y-60400000D03*
%TO.N,Flash_Hold*%
X184750000Y-59500000D03*
X197750000Y-61000000D03*
%TO.N,Flash_CE*%
X198000000Y-55000000D03*
X188250000Y-59156297D03*
%TO.N,Flash_SCK*%
X189700735Y-58556297D03*
X191850000Y-60000000D03*
%TO.N,USB_RXD*%
X179750000Y-55250000D03*
%TO.N,USB_RSTB*%
X196250000Y-46750000D03*
X188250000Y-56701000D03*
%TO.N,USB_TXD*%
X179250000Y-54500000D03*
%TD*%
D48*
%TO.N,USB_RXD*%
X194026861Y-51276861D02*
X193750000Y-51000000D01*
X196749748Y-51250252D02*
X196723139Y-51276861D01*
X196723139Y-51276861D02*
X194026861Y-51276861D01*
%TO.N,USB_TXD*%
X194975804Y-50875861D02*
X194498943Y-50399000D01*
X196228611Y-50875861D02*
X194975804Y-50875861D01*
X196249622Y-50854850D02*
X196228611Y-50875861D01*
X196249622Y-50544000D02*
X196249622Y-50854850D01*
%TO.N,GND*%
X166000000Y-53062500D02*
X166000000Y-53800000D01*
X160350000Y-40750000D02*
X160350000Y-41750000D01*
X168000000Y-50452000D02*
X168000000Y-49937500D01*
X165937500Y-50750000D02*
X166250000Y-50750000D01*
X187195000Y-47145000D02*
X187195000Y-46500000D01*
X166402000Y-52250000D02*
X165937500Y-52250000D01*
X185900000Y-50400000D02*
X185250000Y-49750000D01*
X170675000Y-61675000D02*
X170750000Y-61750000D01*
X186976000Y-55300000D02*
X186114800Y-55300000D01*
X160350000Y-40000000D02*
X160350000Y-40750000D01*
X187377399Y-54026000D02*
X187051400Y-53700001D01*
X188862628Y-61637372D02*
X189750000Y-60750000D01*
X165937500Y-53000000D02*
X166000000Y-53062500D01*
X165937500Y-50750000D02*
X164775000Y-50750000D01*
X188250000Y-54026000D02*
X186976000Y-55300000D01*
X186647372Y-61967372D02*
X186500000Y-61820000D01*
X200525850Y-59474150D02*
X200525850Y-58655000D01*
X195000000Y-53026000D02*
X195776000Y-52250000D01*
X196300000Y-56000000D02*
X196300000Y-57125200D01*
X164775000Y-50750000D02*
X164250000Y-50225000D01*
X188503115Y-61637372D02*
X188862628Y-61637372D01*
X210000000Y-51500000D02*
X208000000Y-51500000D01*
X189800000Y-49750000D02*
X189800000Y-51500000D01*
X166000000Y-53800000D02*
X166950000Y-54750000D01*
X208773493Y-39750000D02*
X207620000Y-40903493D01*
X209712600Y-39750000D02*
X208773493Y-39750000D01*
X176299999Y-59299999D02*
X177885200Y-59299999D01*
X168067500Y-42815000D02*
X168067500Y-42932500D01*
X166000000Y-45000000D02*
X168025000Y-47025000D01*
X204000000Y-47750000D02*
X204750000Y-47750000D01*
X197380000Y-44833493D02*
X197380000Y-41120000D01*
X160350000Y-41750000D02*
X160350000Y-42350000D01*
X188999000Y-54026000D02*
X188250000Y-54026000D01*
X166250000Y-50750000D02*
X166451000Y-50951000D01*
X198750000Y-52551000D02*
X198275000Y-53026000D01*
X198750000Y-52026000D02*
X198750000Y-52551000D01*
X200750000Y-59698300D02*
X200525850Y-59474150D01*
X202728535Y-50000000D02*
X202753210Y-50024675D01*
X198396811Y-49397063D02*
X197647063Y-49397063D01*
X198275000Y-53251000D02*
X196300000Y-55226000D01*
X189800000Y-49750000D02*
X187195000Y-47145000D01*
X205700000Y-45408493D02*
X207091507Y-45408493D01*
X189775000Y-53250000D02*
X189775000Y-51525000D01*
X193000000Y-57275000D02*
X193725000Y-57275000D01*
X196300000Y-57125200D02*
X196000000Y-57425200D01*
X160350000Y-40750000D02*
X159500000Y-40750000D01*
X146550000Y-49050000D02*
X146500000Y-49000000D01*
X199300000Y-45408493D02*
X197955000Y-45408493D01*
X165937500Y-52250000D02*
X165937500Y-53000000D01*
X201750000Y-50000000D02*
X201750000Y-49000000D01*
X210000000Y-53750000D02*
X210000000Y-55000000D01*
X173750000Y-58500000D02*
X175500000Y-58500000D01*
X197499000Y-52250000D02*
X198275000Y-53026000D01*
X173750000Y-58500000D02*
X172750000Y-58500000D01*
X168000000Y-50452000D02*
X168798000Y-51250000D01*
X196300000Y-55226000D02*
X196300000Y-56000000D01*
X166451000Y-50951000D02*
X166451000Y-52201000D01*
X195000002Y-59000000D02*
X194420642Y-59000000D01*
X148125000Y-49050000D02*
X146550000Y-49050000D01*
X166451000Y-52201000D02*
X166402000Y-52250000D01*
X195500001Y-57425200D02*
X196000000Y-57425200D01*
X189775000Y-53250000D02*
X188999000Y-54026000D01*
X193725000Y-57275000D02*
X193750000Y-57250000D01*
X195602811Y-48396811D02*
X195663400Y-48457400D01*
X168025000Y-47025000D02*
X168025000Y-48250000D01*
X188320487Y-61820000D02*
X186500000Y-61820000D01*
X194420642Y-59000000D02*
X194264004Y-59156638D01*
X187051400Y-53700001D02*
X186114800Y-53700001D01*
X201750000Y-50750000D02*
X201750000Y-50000000D01*
X168798000Y-51250000D02*
X170562500Y-51250000D01*
X167702000Y-50750000D02*
X168000000Y-50452000D01*
X195776000Y-52250000D02*
X197499000Y-52250000D01*
X175500000Y-58500000D02*
X176299999Y-59299999D01*
X164310674Y-43310674D02*
X166000000Y-45000000D01*
X188503115Y-61637372D02*
X188320487Y-61820000D01*
X160350000Y-42350000D02*
X160500000Y-42500000D01*
X163655387Y-43310674D02*
X164310674Y-43310674D01*
X189750000Y-60750000D02*
X189750000Y-60000000D01*
X195663400Y-48457400D02*
X196707400Y-48457400D01*
X188250000Y-54026000D02*
X187377399Y-54026000D01*
X168025000Y-48250000D02*
X168025000Y-49912500D01*
X165937500Y-50750000D02*
X167702000Y-50750000D01*
X168067500Y-42932500D02*
X166000000Y-45000000D01*
X210000000Y-51500000D02*
X210000000Y-53750000D01*
X200750000Y-60000000D02*
X200750000Y-59698300D01*
X201750000Y-50000000D02*
X202728535Y-50000000D01*
%TO.N,+3V3*%
X198249811Y-47896939D02*
X198249811Y-47775923D01*
X173650000Y-51500000D02*
X173650000Y-49750000D01*
X186500000Y-52385200D02*
X186500000Y-51750000D01*
X208000000Y-49950000D02*
X207800000Y-49950000D01*
X196000000Y-59000000D02*
X196000000Y-59925000D01*
X196725000Y-53026000D02*
X195949000Y-53802000D01*
X188250000Y-51500000D02*
X188250000Y-53225000D01*
X173750000Y-60050000D02*
X172800000Y-60050000D01*
X194226000Y-53802000D02*
X194750000Y-54326000D01*
X165250000Y-56250000D02*
X165250000Y-58500000D01*
X164250000Y-51775000D02*
X164250000Y-55250000D01*
X188250000Y-49750000D02*
X186579291Y-49750000D01*
X171150000Y-47650000D02*
X172000000Y-48500000D01*
X196000000Y-59925000D02*
X196575000Y-60500000D01*
X194750000Y-56000000D02*
X193275000Y-56000000D01*
X195949000Y-53802000D02*
X194226000Y-53802000D01*
X171750000Y-54750000D02*
X174720000Y-54750000D01*
X208671000Y-41954493D02*
X206204493Y-41954493D01*
X173650000Y-52850000D02*
X171750000Y-54750000D01*
X159750000Y-43500000D02*
X159500000Y-43250000D01*
X186500000Y-52385200D02*
X184799999Y-52385200D01*
X184799999Y-53977800D02*
X184799999Y-52385200D01*
X196287401Y-58462600D02*
X196287401Y-58712599D01*
X193000000Y-60575000D02*
X193701000Y-61276000D01*
X186114800Y-54500001D02*
X185322200Y-54500001D01*
X194750000Y-54326000D02*
X194750000Y-56000000D01*
X187360200Y-52385200D02*
X186500000Y-52385200D01*
X192100000Y-51676000D02*
X191324000Y-51676000D01*
X165374297Y-48874289D02*
X165374297Y-49124297D01*
X196287401Y-58712599D02*
X196000000Y-59000000D01*
X192100000Y-51676000D02*
X193450000Y-53026000D01*
X172800000Y-60050000D02*
X172750000Y-60000000D01*
X194962600Y-57712600D02*
X195712600Y-58462600D01*
X165250000Y-58500000D02*
X166500000Y-59750000D01*
X180744690Y-48740620D02*
X180359380Y-48740620D01*
X207962500Y-47750000D02*
X207962500Y-49912500D01*
X198249811Y-47775923D02*
X198675734Y-47350000D01*
X195799000Y-61276000D02*
X196575000Y-60500000D01*
X174720000Y-54750000D02*
X175250000Y-55280000D01*
X186579291Y-49750000D02*
X185569911Y-48740620D01*
X176364800Y-60614800D02*
X179200001Y-60614800D01*
X165500000Y-49250000D02*
X166500000Y-49250000D01*
X166500000Y-49937500D02*
X166500000Y-49250000D01*
X180359380Y-48740620D02*
X179625735Y-49474265D01*
X194750000Y-57175198D02*
X195000002Y-57425200D01*
X207224150Y-53845000D02*
X206224150Y-54845000D01*
X195712600Y-58462600D02*
X196287401Y-58462600D01*
X173750000Y-60050000D02*
X175500000Y-60050000D01*
X164250000Y-55250000D02*
X165250000Y-56250000D01*
X194226000Y-53802000D02*
X193450000Y-53026000D01*
X166575000Y-59825000D02*
X166500000Y-59750000D01*
X192100000Y-51676000D02*
X192100000Y-49000000D01*
X207962500Y-49912500D02*
X208000000Y-49950000D01*
X173250000Y-49750000D02*
X172000000Y-48500000D01*
X207224150Y-51250000D02*
X207224150Y-53845000D01*
X206204493Y-41954493D02*
X205750000Y-41500000D01*
X164250000Y-51775000D02*
X164775000Y-51250000D01*
X171150000Y-45750000D02*
X171150000Y-47650000D01*
X195000002Y-57425200D02*
X195000002Y-57675199D01*
X207224150Y-51250000D02*
X206500000Y-51250000D01*
X193701000Y-61276000D02*
X195799000Y-61276000D01*
X207800000Y-49950000D02*
X206500000Y-51250000D01*
X194962600Y-57712600D02*
X194712601Y-57962600D01*
X160425000Y-43500000D02*
X159750000Y-43500000D01*
X188225000Y-53250000D02*
X187360200Y-52385200D01*
X166500000Y-49250000D02*
X166500000Y-48275000D01*
X194750000Y-56000000D02*
X194750000Y-57175198D01*
X208671000Y-41291600D02*
X208671000Y-41954493D01*
X164775000Y-51250000D02*
X165937500Y-51250000D01*
X209712600Y-40250000D02*
X208671000Y-41291600D01*
X173650000Y-51500000D02*
X173650000Y-52850000D01*
X165374297Y-49124297D02*
X165500000Y-49250000D01*
X167700000Y-59825000D02*
X166575000Y-59825000D01*
X185322200Y-54500001D02*
X184799999Y-53977800D01*
X175800000Y-60050000D02*
X176364800Y-60614800D01*
X188250000Y-49750000D02*
X188250000Y-51500000D01*
X191324000Y-51676000D02*
X191250000Y-51750000D01*
X173650000Y-49750000D02*
X173250000Y-49750000D01*
X195000002Y-57675199D02*
X194962600Y-57712600D01*
%TO.N,Net-(U1-CAP)*%
X167500000Y-53062500D02*
X167500000Y-53750000D01*
X167500000Y-53750000D02*
X168500000Y-54750000D01*
%TO.N,VIN*%
X210000000Y-49500000D02*
X211000000Y-48500000D01*
X165687174Y-42709674D02*
X165792500Y-42815000D01*
X163000000Y-44750000D02*
X163000000Y-42980001D01*
X210000000Y-42600000D02*
X211000000Y-43600000D01*
X210000000Y-42600000D02*
X210000001Y-40787400D01*
X212371900Y-41228100D02*
X214000000Y-39600000D01*
X210000000Y-49950000D02*
X210000000Y-49500000D01*
X210000001Y-40787400D02*
X210000001Y-41156101D01*
X210000001Y-41156101D02*
X210072000Y-41228100D01*
X163000000Y-42980001D02*
X163270327Y-42709674D01*
X210072000Y-41228100D02*
X212371900Y-41228100D01*
X211000000Y-43600000D02*
X211000000Y-48500000D01*
X163270327Y-42709674D02*
X165687174Y-42709674D01*
%TO.N,NRST*%
X185750000Y-61652400D02*
X186222400Y-61180000D01*
X181000000Y-58400000D02*
X181600001Y-59000001D01*
X176648598Y-51148598D02*
X178250000Y-52750000D01*
X179225375Y-53700377D02*
X179450377Y-53700377D01*
X186500000Y-61180000D02*
X186682628Y-60997372D01*
X186222400Y-61180000D02*
X186500000Y-61180000D01*
X181600001Y-60614800D02*
X181600001Y-61407402D01*
X181600001Y-61407402D02*
X181844999Y-61652400D01*
X181844999Y-61652400D02*
X185750000Y-61652400D01*
X186682628Y-60997372D02*
X188503115Y-60997372D01*
X179450377Y-53700377D02*
X181000000Y-55250000D01*
X181600001Y-59000001D02*
X181600001Y-60614800D01*
X181000000Y-55250000D02*
X181000000Y-58400000D01*
X176648598Y-49426402D02*
X176648598Y-51148598D01*
X176648598Y-49426402D02*
X179575000Y-46500000D01*
%TO.N,Net-(D1-K)*%
X209537500Y-48462500D02*
X209000000Y-49000000D01*
X209537500Y-47750000D02*
X209537500Y-48462500D01*
%TO.N,VBUS*%
X205982129Y-42750000D02*
X207638507Y-42750000D01*
X200299000Y-44465393D02*
X201033900Y-43730493D01*
X204689000Y-44043129D02*
X204689000Y-44623857D01*
X205982129Y-42750000D02*
X204991064Y-43741064D01*
X200100000Y-45408493D02*
X200100000Y-46046750D01*
X201033900Y-43730493D02*
X204980493Y-43730493D01*
X200299000Y-45209493D02*
X200299000Y-44465393D01*
X210000000Y-45825000D02*
X210000000Y-46292100D01*
X204991064Y-43741064D02*
X204689000Y-44043129D01*
X197750000Y-46500000D02*
X197750000Y-47750000D01*
X204689000Y-44623857D02*
X204900000Y-44834857D01*
X210000000Y-45111493D02*
X210000000Y-45400000D01*
X200100000Y-46046750D02*
X199646750Y-46500000D01*
X199646750Y-46500000D02*
X197750000Y-46500000D01*
X204980493Y-43730493D02*
X204991064Y-43741064D01*
X207638507Y-42750000D02*
X210000000Y-45111493D01*
X204900000Y-44834857D02*
X204900000Y-45408493D01*
%TO.N,Net-(J2-DN1)*%
X202250000Y-45408493D02*
X202250000Y-44633493D01*
X202250000Y-44633493D02*
X202351000Y-44532493D01*
X203201000Y-46284493D02*
X204734493Y-46284493D01*
X202351000Y-44532493D02*
X203133900Y-44532493D01*
X203250000Y-45408493D02*
X203250000Y-46235493D01*
X199240182Y-48396811D02*
X198396811Y-48396811D01*
X203201000Y-46284493D02*
X203201000Y-47920772D01*
X203250000Y-46235493D02*
X203201000Y-46284493D01*
X203201000Y-47920772D02*
X203150000Y-47971772D01*
X204734493Y-46284493D02*
X206000000Y-47550000D01*
X203250000Y-44648593D02*
X203250000Y-45408493D01*
X203133900Y-44532493D02*
X203250000Y-44648593D01*
%TO.N,Net-(J2-DP1)*%
X198396811Y-48896937D02*
X198890365Y-48896937D01*
X202578285Y-48250000D02*
X202578285Y-49159643D01*
X201750000Y-45408493D02*
X201750000Y-46235493D01*
X198890365Y-48896937D02*
X199302703Y-49309275D01*
X202701000Y-46284493D02*
X202549000Y-46436493D01*
X202578285Y-48250000D02*
X203177285Y-48849000D01*
X201799000Y-46284493D02*
X202701000Y-46284493D01*
X202578285Y-49159643D02*
X202650000Y-49231358D01*
X202750000Y-46235493D02*
X202750000Y-45408493D01*
X202701000Y-46284493D02*
X202750000Y-46235493D01*
X205399000Y-48849000D02*
X206000000Y-49450000D01*
X201750000Y-46235493D02*
X201799000Y-46284493D01*
X202549000Y-46436493D02*
X202549000Y-48220715D01*
X202549000Y-48220715D02*
X202578285Y-48250000D01*
X199302703Y-49309275D02*
X199302703Y-49747619D01*
X203177285Y-48849000D02*
X205399000Y-48849000D01*
%TO.N,Net-(D4-K)*%
X182750000Y-50180000D02*
X183930000Y-50180000D01*
X183930000Y-50180000D02*
X184250000Y-50500000D01*
%TO.N,COOLLED*%
X182399999Y-51170001D02*
X182399999Y-52385200D01*
X182750000Y-50820000D02*
X182399999Y-51170001D01*
%TO.N,LIPO_POWER*%
X213557500Y-44712500D02*
X213557500Y-42832500D01*
%TO.N,PROG_SWDIO*%
X183919911Y-47235089D02*
X184655000Y-46500000D01*
X183143911Y-49516620D02*
X182233380Y-49516620D01*
X183919911Y-48740620D02*
X183143911Y-49516620D01*
X182233380Y-49516620D02*
X180000001Y-51749999D01*
X183919911Y-48740620D02*
X183919911Y-47235089D01*
%TO.N,PROG_SWO*%
X179750000Y-47595000D02*
X179750000Y-48250000D01*
X180845000Y-46500000D02*
X179750000Y-47595000D01*
X181799265Y-50799265D02*
X181799265Y-52185936D01*
X181799265Y-52185936D02*
X181600001Y-52385200D01*
%TO.N,PROG_SWCLK*%
X182394690Y-48740620D02*
X182394690Y-47490310D01*
X181994690Y-48740620D02*
X179200001Y-51535309D01*
X182394690Y-48740620D02*
X181994690Y-48740620D01*
X182394690Y-47490310D02*
X183385000Y-46500000D01*
X179200001Y-51535309D02*
X179200001Y-52385200D01*
%TO.N,Net-(J2-CC1)*%
X200801000Y-50049000D02*
X200100000Y-50750000D01*
X203750000Y-44581493D02*
X203750000Y-45408493D01*
X200750000Y-45408493D02*
X200750000Y-46710936D01*
X200801000Y-46761936D02*
X200801000Y-50049000D01*
X203300000Y-44131493D02*
X203750000Y-44581493D01*
X201200000Y-44131493D02*
X203300000Y-44131493D01*
X200750000Y-45408493D02*
X200750000Y-44581493D01*
X200750000Y-44581493D02*
X201200000Y-44131493D01*
X200750000Y-46710936D02*
X200801000Y-46761936D01*
%TO.N,Net-(U6-+)*%
X163000000Y-38800000D02*
X163000000Y-40000000D01*
X163000000Y-40000000D02*
X164877500Y-40000000D01*
X163000000Y-40000000D02*
X162000000Y-40000000D01*
X164877500Y-40000000D02*
X165792500Y-40915000D01*
%TO.N,BOOT*%
X177885200Y-58499999D02*
X176799999Y-58499999D01*
X176799999Y-58499999D02*
X175250000Y-56950000D01*
X175250000Y-56950000D02*
X175250000Y-55920000D01*
%TO.N,Net-(Q1-D)*%
X155500000Y-50000000D02*
X160500000Y-55000000D01*
X150000000Y-50000000D02*
X155500000Y-50000000D01*
%TO.N,Buzzer*%
X155021285Y-48100000D02*
X164750000Y-57828715D01*
X150000000Y-48100000D02*
X155021285Y-48100000D01*
X164750000Y-57828715D02*
X164750000Y-59500000D01*
X183200000Y-58800000D02*
X183200000Y-60614800D01*
X183250000Y-58750000D02*
X183200000Y-58800000D01*
X183250000Y-58250000D02*
X183250000Y-58750000D01*
%TO.N,Altimeter_SDA*%
X195500001Y-59924999D02*
X194925000Y-60500000D01*
X172237839Y-49750000D02*
X172814299Y-50326460D01*
X194925000Y-60500000D02*
X194175000Y-59750000D01*
X192635936Y-59750000D02*
X188750000Y-55864064D01*
X184000000Y-55250000D02*
X183500000Y-55750000D01*
X194175000Y-59750000D02*
X192635936Y-59750000D01*
X182825602Y-55750000D02*
X180697404Y-53621802D01*
X184000000Y-54750000D02*
X184000000Y-55250000D01*
X184000000Y-54750000D02*
X184000001Y-52385200D01*
X195500001Y-59000000D02*
X195500001Y-59924999D01*
X183500000Y-55750000D02*
X182825602Y-55750000D01*
X188750000Y-55864064D02*
X188750000Y-55500000D01*
X170500000Y-49937500D02*
X171812500Y-49937500D01*
%TO.N,Altimeter_SCL*%
X183200000Y-54300000D02*
X183200000Y-52385200D01*
X193000000Y-58925000D02*
X189825000Y-55750000D01*
X171250000Y-50750000D02*
X172000000Y-51500000D01*
X194712601Y-58462600D02*
X193462400Y-58462600D01*
X172000000Y-51500000D02*
X172000000Y-53000000D01*
X189825000Y-55750000D02*
X189750000Y-55750000D01*
X193462400Y-58462600D02*
X193000000Y-58925000D01*
X170562500Y-50750000D02*
X171250000Y-50750000D01*
X183199997Y-54300003D02*
X183200000Y-54300000D01*
X183199997Y-54750000D02*
X183199997Y-54300003D01*
%TO.N,Net-(U5-VBUS)*%
X197150000Y-46750000D02*
X197249874Y-46849874D01*
X197249874Y-46849874D02*
X197249874Y-47750000D01*
X199500000Y-47250000D02*
X200100000Y-47250000D01*
X200100000Y-47250000D02*
X200100000Y-49000000D01*
%TO.N,Net-(U5-WAKEUP)*%
X195602811Y-48896937D02*
X193853063Y-48896937D01*
%TO.N,SWITCH*%
X169500000Y-45750000D02*
X168500000Y-45750000D01*
X182500000Y-59250000D02*
X182500000Y-60514799D01*
X169405000Y-42252500D02*
X169405000Y-45655000D01*
X168067500Y-40915000D02*
X169405000Y-42252500D01*
%TO.N,Net-(U6--)*%
X162075000Y-43500000D02*
X162075000Y-41825000D01*
X162000000Y-41750000D02*
X165677500Y-41750000D01*
X165677500Y-41750000D02*
X165792500Y-41865000D01*
%TO.N,IMU_nRESET*%
X174512026Y-57700000D02*
X174662025Y-57849999D01*
X173050000Y-57700000D02*
X174512026Y-57700000D01*
X168500000Y-53062500D02*
X168500000Y-53577000D01*
X178071529Y-57886329D02*
X177885200Y-57700000D01*
X179000000Y-57849999D02*
X178963670Y-57886329D01*
X169324000Y-53974000D02*
X170100000Y-54750000D01*
X168897000Y-53974000D02*
X169324000Y-53974000D01*
X170100000Y-54750000D02*
X173050000Y-57700000D01*
X178963670Y-57886329D02*
X178071529Y-57886329D01*
X168500000Y-53577000D02*
X168897000Y-53974000D01*
%TO.N,IMU_nBOOTLOADPIN*%
X165250000Y-54600000D02*
X167900000Y-57250000D01*
X179512149Y-57235421D02*
X179512149Y-57237851D01*
X179500000Y-57250000D02*
X179171801Y-57250000D01*
X165937500Y-51750000D02*
X165473000Y-51750000D01*
X165250000Y-51973000D02*
X165250000Y-54600000D01*
X178821800Y-56899999D02*
X177885200Y-56899999D01*
X179171801Y-57250000D02*
X178821800Y-56899999D01*
X165473000Y-51750000D02*
X165250000Y-51973000D01*
X179512149Y-57237851D02*
X179500000Y-57250000D01*
X167900000Y-57250000D02*
X171250000Y-57250000D01*
%TO.N,IMU_BL_IND*%
X178899001Y-56100001D02*
X177885200Y-56100001D01*
X168000000Y-53062500D02*
X168000000Y-51750000D01*
X179250000Y-56451000D02*
X178899001Y-56100001D01*
%TO.N,Flash_SO*%
X198970000Y-57220000D02*
X198690000Y-57500000D01*
X186359801Y-57945001D02*
X186114800Y-57700000D01*
X189000000Y-57956297D02*
X188988704Y-57945001D01*
X188988704Y-57945001D02*
X186359801Y-57945001D01*
X198690000Y-57500000D02*
X198500000Y-57500000D01*
X198970000Y-57220000D02*
X198849000Y-57341000D01*
X200075000Y-56115000D02*
X198970000Y-57220000D01*
%TO.N,Flash_WP*%
X199250000Y-58210000D02*
X199250000Y-60400000D01*
X184000000Y-59000000D02*
X183999999Y-60614800D01*
X200075000Y-57385000D02*
X199250000Y-58210000D01*
%TO.N,Flash_SI*%
X191250000Y-62200000D02*
X191250000Y-59250000D01*
X187051400Y-56899999D02*
X186114800Y-56899999D01*
X201550000Y-62200000D02*
X191250000Y-62200000D01*
X189356297Y-57356297D02*
X187507698Y-57356297D01*
X187507698Y-57356297D02*
X187051400Y-56899999D01*
X205095000Y-58655000D02*
X201550000Y-62200000D01*
X191250000Y-59250000D02*
X189356297Y-57356297D01*
X205974150Y-58655000D02*
X205095000Y-58655000D01*
%TO.N,Flash_Hold*%
X200638300Y-61000000D02*
X205523300Y-56115000D01*
X184750000Y-59500000D02*
X184750000Y-60564801D01*
X200638300Y-61000000D02*
X197750000Y-61000000D01*
%TO.N,Flash_CE*%
X188106298Y-59299999D02*
X186114800Y-59299999D01*
X200370850Y-55000000D02*
X198000000Y-55000000D01*
X188250000Y-59156297D02*
X188106298Y-59299999D01*
%TO.N,Flash_SCK*%
X191850000Y-61450000D02*
X192077000Y-61677000D01*
X201505900Y-61677000D02*
X205797900Y-57385000D01*
X189700735Y-58556297D02*
X186171096Y-58556297D01*
X191850000Y-61450000D02*
X191850000Y-60000000D01*
X201505900Y-61677000D02*
X192077000Y-61677000D01*
%TO.N,USB_RXD*%
X179750000Y-55250000D02*
X177935200Y-55250000D01*
%TO.N,USB_RSTB*%
X187649001Y-56100001D02*
X186114800Y-56100001D01*
X196749748Y-47750000D02*
X196749748Y-47249748D01*
X196749748Y-47249748D02*
X196250000Y-46750000D01*
X188250000Y-56701000D02*
X187649001Y-56100001D01*
%TO.N,USB_RXD*%
X196749748Y-50544000D02*
X196749748Y-51250252D01*
%TO.N,USB_TXD*%
X179250000Y-54500000D02*
X177885200Y-54499999D01*
%TO.N,RCC_OSC_IN*%
X171575000Y-59825000D02*
X172250000Y-60500000D01*
X170300000Y-59825000D02*
X171575000Y-59825000D01*
X179999999Y-61500001D02*
X179999999Y-60614800D01*
X172250000Y-61652400D02*
X179847600Y-61652400D01*
X179847600Y-61652400D02*
X179999999Y-61500001D01*
X172250000Y-60500000D02*
X172250000Y-61652400D01*
%TO.N,RCC_OSC_OUT*%
X171849000Y-61818500D02*
X172083900Y-62053400D01*
X167700000Y-61675000D02*
X168776000Y-61675000D01*
X168776000Y-61675000D02*
X169784900Y-60666100D01*
X172083900Y-62053400D02*
X180153999Y-62053400D01*
X180153999Y-62053400D02*
X180800000Y-61407399D01*
X180800000Y-61407399D02*
X180800000Y-60614800D01*
X169784900Y-60666100D02*
X171849000Y-60666100D01*
X171849000Y-60666100D02*
X171849000Y-61818500D01*
%TD*%
M02*
