%TF.GenerationSoftware,KiCad,Pcbnew,9.0.4*%
%TF.CreationDate,2026-02-27T16:14:11-07:00*%
%TF.ProjectId,Ashurs PCB,41736875-7273-4205-9043-422e6b696361,rev?*%
%TF.SameCoordinates,Original*%
%TF.FileFunction,Copper,L4,Bot*%
%TF.FilePolarity,Positive*%
%FSLAX46Y46*%
G04 Gerber Fmt 4.6, Leading zero omitted, Abs format (unit mm)*
G04 Created by KiCad (PCBNEW 9.0.4) date 2026-02-27 16:14:11*
%MOMM*%
%LPD*%
G01*
G04 APERTURE LIST*
%TA.AperFunction,ComponentPad*%
%ADD10R,1.800000X1.800000*%
%TD*%
%TA.AperFunction,ComponentPad*%
%ADD11C,1.800000*%
%TD*%
%TA.AperFunction,ComponentPad*%
%ADD12R,1.000000X1.000000*%
%TD*%
%TA.AperFunction,ComponentPad*%
%ADD13C,1.000000*%
%TD*%
%TA.AperFunction,ComponentPad*%
%ADD14R,2.050000X2.050000*%
%TD*%
%TA.AperFunction,ComponentPad*%
%ADD15C,2.050000*%
%TD*%
%TA.AperFunction,ComponentPad*%
%ADD16C,1.408000*%
%TD*%
%TA.AperFunction,ViaPad*%
%ADD17C,0.600000*%
%TD*%
%TA.AperFunction,Conductor*%
%ADD18C,0.200000*%
%TD*%
G04 APERTURE END LIST*
D10*
%TO.P,J3,1,1*%
%TO.N,Net-(U6-+)*%
X153000000Y-41500000D03*
D11*
%TO.P,J3,2,2*%
%TO.N,VIN*%
X156500000Y-41500000D03*
%TD*%
D12*
%TO.P,J1,1,1*%
%TO.N,+3V3*%
X188465000Y-46500000D03*
D13*
%TO.P,J1,2,2*%
X188465000Y-45230000D03*
%TO.P,J1,3,3*%
%TO.N,GND*%
X187195000Y-46500000D03*
%TO.P,J1,4,4*%
X187195000Y-45230000D03*
%TO.P,J1,5,5*%
X185925000Y-46500000D03*
%TO.P,J1,6,6*%
X185925000Y-45230000D03*
%TO.P,J1,7,7*%
%TO.N,PROG_SWDIO*%
X184655000Y-46500000D03*
%TO.P,J1,8,8*%
%TO.N,GND*%
X184655000Y-45230000D03*
%TO.P,J1,9,9*%
%TO.N,PROG_SWCLK*%
X183385000Y-46500000D03*
%TO.P,J1,10,10*%
%TO.N,GND*%
X183385000Y-45230000D03*
%TO.P,J1,11,11*%
%TO.N,unconnected-(J1-Pad11)*%
X182115000Y-46500000D03*
%TO.P,J1,12,12*%
%TO.N,GND*%
X182115000Y-45230000D03*
%TO.P,J1,13,13*%
%TO.N,PROG_SWO*%
X180845000Y-46500000D03*
%TO.P,J1,14,14*%
%TO.N,GND*%
X180845000Y-45230000D03*
%TO.P,J1,15,15*%
%TO.N,NRST*%
X179575000Y-46500000D03*
%TO.P,J1,16,16*%
%TO.N,GND*%
X179575000Y-45230000D03*
%TO.P,J1,17,17*%
%TO.N,unconnected-(J1-Pad17)*%
X178305000Y-46500000D03*
%TO.P,J1,18,18*%
%TO.N,GND*%
X178305000Y-45230000D03*
%TO.P,J1,19,19*%
%TO.N,unconnected-(J1-Pad19)*%
X177035000Y-46500000D03*
%TO.P,J1,20,20*%
%TO.N,GND*%
X177035000Y-45230000D03*
%TD*%
D14*
%TO.P,J4,1,1*%
%TO.N,LIPO_POWER*%
X213557500Y-44712500D03*
D15*
%TO.P,J4,2,2*%
%TO.N,GND*%
X217517500Y-44712500D03*
%TD*%
D16*
%TO.P,LS1,N*%
%TO.N,Net-(Q1-D)*%
X160500000Y-55000000D03*
%TO.P,LS1,P*%
%TO.N,+3V3*%
X152900000Y-55000000D03*
%TD*%
D17*
%TO.N,USB_RXD*%
X193750000Y-51000000D03*
%TO.N,USB_TXD*%
X194498943Y-50399000D03*
%TO.N,GND*%
X160500000Y-42500000D03*
X202753210Y-50024675D03*
X146500000Y-49000000D03*
X200750000Y-60000000D03*
X207620000Y-40903493D03*
X163655387Y-43310674D03*
X197250000Y-49000000D03*
X198750000Y-52026000D03*
X159500000Y-40750000D03*
X197500000Y-41000000D03*
X170750000Y-61750000D03*
X189750000Y-60000000D03*
X204750000Y-47750000D03*
X193750000Y-57250000D03*
X207500000Y-45000000D03*
X172750000Y-58500000D03*
X219250000Y-45250000D03*
X210000000Y-55000000D03*
X185250000Y-49750000D03*
X194264004Y-59156638D03*
%TO.N,+3V3*%
X206500000Y-51250000D03*
X159500000Y-43250000D03*
X191250000Y-51750000D03*
X165374297Y-48874289D03*
X198675734Y-47350000D03*
X205750000Y-41500000D03*
X186500000Y-51750000D03*
X166500000Y-59750000D03*
X179625735Y-49474265D03*
X172000000Y-48500000D03*
X172750000Y-60000000D03*
%TO.N,VIN*%
X163000000Y-44750000D03*
X211000000Y-48500000D03*
%TO.N,NRST*%
X179225375Y-53700377D03*
X178250000Y-52750000D03*
%TO.N,Net-(D1-K)*%
X209000000Y-49000000D03*
X208350000Y-53750000D03*
%TO.N,VBUS*%
X204000000Y-49450000D03*
X201673899Y-47173899D03*
X204900000Y-45707771D03*
%TO.N,Net-(J2-DN1)*%
X199240182Y-48396811D03*
X203150000Y-47971772D03*
%TO.N,Net-(J2-DP1)*%
X199302703Y-49747619D03*
X202650000Y-49231358D03*
X199302703Y-49747619D03*
%TO.N,PROG_SWO*%
X179750000Y-48250000D03*
X181799265Y-50799265D03*
%TO.N,Net-(U6-+)*%
X163000000Y-38800000D03*
%TO.N,Buzzer*%
X164750000Y-59500000D03*
X183250000Y-58250000D03*
%TO.N,Altimeter_SDA*%
X180697404Y-53621802D03*
X188750000Y-55500000D03*
X184000000Y-54750000D03*
X172814299Y-50326460D03*
%TO.N,Altimeter_SCL*%
X183199997Y-54750000D03*
X189750000Y-55750000D03*
X172000000Y-53000000D03*
%TO.N,Net-(U5-VBUS)*%
X199500000Y-47250000D03*
X197150000Y-46750000D03*
%TO.N,SWITCH*%
X168500000Y-45750000D03*
X182500000Y-59250000D03*
%TO.N,IMU_nRESET*%
X174662025Y-57849999D03*
X179000000Y-57849999D03*
%TO.N,IMU_nBOOTLOADPIN*%
X179512149Y-57235421D03*
X171250000Y-57250000D03*
%TO.N,IMU_BL_IND*%
X168000000Y-51750000D03*
X179250000Y-56451000D03*
%TO.N,Flash_SO*%
X198500000Y-57500000D03*
X189000000Y-57956297D03*
%TO.N,Flash_WP*%
X184000000Y-59000000D03*
X199250000Y-60400000D03*
%TO.N,Flash_Hold*%
X184750000Y-59500000D03*
X197750000Y-61000000D03*
%TO.N,Flash_CE*%
X198000000Y-55000000D03*
X188250000Y-59156297D03*
%TO.N,Flash_SCK*%
X189700735Y-58556297D03*
X191850000Y-60000000D03*
%TO.N,USB_RXD*%
X179750000Y-55250000D03*
%TO.N,USB_RSTB*%
X196250000Y-46750000D03*
X188250000Y-56701000D03*
%TO.N,USB_TXD*%
X179250000Y-54500000D03*
%TD*%
D18*
%TO.N,USB_RXD*%
X193750000Y-51000000D02*
X185250000Y-51000000D01*
%TO.N,GND*%
X160500000Y-42500000D02*
X161310674Y-43310674D01*
X217517500Y-44712500D02*
X218712500Y-44712500D01*
X161310674Y-43310674D02*
X163655387Y-43310674D01*
X218712500Y-44712500D02*
X219250000Y-45250000D01*
%TO.N,+3V3*%
X205750000Y-41500000D02*
X206000000Y-41750000D01*
%TO.N,VIN*%
X205148943Y-45106771D02*
X197943286Y-45106771D01*
X159750000Y-44750000D02*
X163000000Y-44750000D01*
X197943286Y-45106771D02*
X196701517Y-43865002D01*
X196701517Y-43865002D02*
X163884998Y-43865002D01*
X211000000Y-48500000D02*
X209834914Y-47334914D01*
X163884998Y-43865002D02*
X163000000Y-44750000D01*
X209834914Y-47334914D02*
X207377086Y-47334914D01*
X156500000Y-41500000D02*
X159750000Y-44750000D01*
X207377086Y-47334914D02*
X205148943Y-45106771D01*
%TO.N,NRST*%
X178250000Y-52750000D02*
X178274998Y-52750000D01*
X178274998Y-52750000D02*
X179225375Y-53700377D01*
%TO.N,Net-(D1-K)*%
X209000000Y-49000000D02*
X209000000Y-53100000D01*
X209000000Y-53100000D02*
X208350000Y-53750000D01*
%TO.N,VBUS*%
X204000000Y-47546385D02*
X204000000Y-49450000D01*
X202402470Y-46445328D02*
X202898943Y-46445328D01*
X201673899Y-47076101D02*
X201673899Y-47173899D01*
X204900000Y-45707771D02*
X203042229Y-45707771D01*
X202898943Y-46445328D02*
X204000000Y-47546385D01*
X203042229Y-45707771D02*
X201673899Y-47076101D01*
X201673899Y-47173899D02*
X202402470Y-46445328D01*
%TO.N,Net-(J2-DN1)*%
X203150000Y-47971772D02*
X199665221Y-47971772D01*
X199665221Y-47971772D02*
X199240182Y-48396811D01*
%TO.N,Net-(J2-DP1)*%
X199818964Y-49231358D02*
X199302703Y-49747619D01*
X202650000Y-49231358D02*
X199818964Y-49231358D01*
%TO.N,PROG_SWO*%
X179750000Y-48750000D02*
X181799265Y-50799265D01*
X179750000Y-48250000D02*
X179750000Y-48750000D01*
%TO.N,Net-(U6-+)*%
X155700000Y-38800000D02*
X163000000Y-38800000D01*
X153000000Y-41500000D02*
X155700000Y-38800000D01*
%TO.N,Buzzer*%
X165101000Y-59149000D02*
X178601000Y-59149000D01*
X164750000Y-59500000D02*
X165101000Y-59149000D01*
X182250000Y-58250000D02*
X183250000Y-58250000D01*
X181500000Y-59000000D02*
X182250000Y-58250000D01*
X178750000Y-59000000D02*
X181500000Y-59000000D01*
X178601000Y-59149000D02*
X178750000Y-59000000D01*
%TO.N,Altimeter_SDA*%
X179750000Y-52954058D02*
X177122402Y-50326460D01*
X179962574Y-53621802D02*
X179750000Y-53409228D01*
X179750000Y-53409228D02*
X179750000Y-52954058D01*
X177122402Y-50326460D02*
X172814299Y-50326460D01*
X179962574Y-53621802D02*
X180697404Y-53621802D01*
X188750000Y-55500000D02*
X188000000Y-54750000D01*
X188000000Y-54750000D02*
X184000000Y-54750000D01*
%TO.N,Altimeter_SCL*%
X184501057Y-56101000D02*
X183199997Y-54799940D01*
X189750000Y-55750000D02*
X189399000Y-56101000D01*
X172000000Y-53000000D02*
X174851000Y-55851000D01*
X189399000Y-56101000D02*
X184501057Y-56101000D01*
X174851000Y-55851000D02*
X182098997Y-55851000D01*
X182098997Y-55851000D02*
X183199997Y-54750000D01*
X183199997Y-54799940D02*
X183199997Y-54750000D01*
%TO.N,Net-(U5-VBUS)*%
X199000000Y-46750000D02*
X199500000Y-47250000D01*
X197150000Y-46750000D02*
X199000000Y-46750000D01*
%TO.N,SWITCH*%
X166799057Y-62399000D02*
X182351000Y-62399000D01*
X164149000Y-49251057D02*
X164149000Y-59748943D01*
X182351000Y-62399000D02*
X182500000Y-62250000D01*
X164149000Y-59748943D02*
X166799057Y-62399000D01*
X182500000Y-62250000D02*
X182500000Y-59250000D01*
X167650057Y-45750000D02*
X164149000Y-49251057D01*
X168500000Y-45750000D02*
X167650057Y-45750000D01*
%TO.N,IMU_nRESET*%
X179000000Y-57849999D02*
X174662025Y-57849999D01*
%TO.N,IMU_nBOOTLOADPIN*%
X179512149Y-57235421D02*
X179512149Y-57237851D01*
X179500000Y-57250000D02*
X171250000Y-57250000D01*
X179512149Y-57237851D02*
X179500000Y-57250000D01*
%TO.N,IMU_BL_IND*%
X168000000Y-51750000D02*
X168000000Y-56000000D01*
X168000000Y-56000000D02*
X168451000Y-56451000D01*
X168451000Y-56451000D02*
X179250000Y-56451000D01*
%TO.N,Flash_SO*%
X198043703Y-57956297D02*
X189000000Y-57956297D01*
X198500000Y-57500000D02*
X198043703Y-57956297D01*
%TO.N,Flash_WP*%
X199250000Y-60400000D02*
X192299943Y-60400000D01*
X184101000Y-58899000D02*
X184000000Y-59000000D01*
X192299943Y-60400000D02*
X192098943Y-60601000D01*
X186700943Y-60601000D02*
X184998943Y-58899000D01*
X184998943Y-58899000D02*
X184101000Y-58899000D01*
X192098943Y-60601000D02*
X186700943Y-60601000D01*
%TO.N,Flash_Hold*%
X192549000Y-62201000D02*
X193750000Y-61000000D01*
X191701000Y-62201000D02*
X191000000Y-61500000D01*
X191000000Y-61500000D02*
X186750000Y-61500000D01*
X192549000Y-62201000D02*
X191701000Y-62201000D01*
X197750000Y-61000000D02*
X193750000Y-61000000D01*
X186750000Y-61500000D02*
X184750000Y-59500000D01*
%TO.N,Flash_CE*%
X198000000Y-55000000D02*
X192740359Y-55000000D01*
X190385062Y-57355297D02*
X188751057Y-57355297D01*
X188250000Y-57856354D02*
X188250000Y-59156297D01*
X188751057Y-57355297D02*
X188250000Y-57856354D01*
X192740359Y-55000000D02*
X190385062Y-57355297D01*
%TO.N,Flash_SCK*%
X191850000Y-60000000D02*
X191144438Y-60000000D01*
X191144438Y-60000000D02*
X189700735Y-58556297D01*
%TO.N,USB_RXD*%
X181000000Y-55250000D02*
X179750000Y-55250000D01*
X185250000Y-51000000D02*
X181000000Y-55250000D01*
%TO.N,USB_RSTB*%
X196250000Y-50923259D02*
X190472259Y-56701000D01*
X190472259Y-56701000D02*
X188250000Y-56701000D01*
X196250000Y-46750000D02*
X196250000Y-50923259D01*
%TO.N,USB_TXD*%
X185083900Y-50599000D02*
X185151000Y-50599000D01*
X185351000Y-50399000D02*
X194498943Y-50399000D01*
X181182900Y-54500000D02*
X185083900Y-50599000D01*
X179250000Y-54500000D02*
X181182900Y-54500000D01*
X185151000Y-50599000D02*
X185351000Y-50399000D01*
%TD*%
M02*
