%TF.GenerationSoftware,KiCad,Pcbnew,9.0.4*%
%TF.CreationDate,2026-02-27T16:14:11-07:00*%
%TF.ProjectId,Ashurs PCB,41736875-7273-4205-9043-422e6b696361,rev?*%
%TF.SameCoordinates,Original*%
%TF.FileFunction,Legend,Top*%
%TF.FilePolarity,Positive*%
%FSLAX46Y46*%
G04 Gerber Fmt 4.6, Leading zero omitted, Abs format (unit mm)*
G04 Created by KiCad (PCBNEW 9.0.4) date 2026-02-27 16:14:11*
%MOMM*%
%LPD*%
G01*
G04 APERTURE LIST*
%ADD10C,0.150000*%
%ADD11C,0.254000*%
%ADD12C,0.120000*%
%ADD13C,0.127000*%
%ADD14C,0.304800*%
%ADD15C,0.100000*%
%ADD16C,0.200000*%
%ADD17C,0.152400*%
%ADD18C,0.000000*%
G04 APERTURE END LIST*
D10*
X208532142Y-52774819D02*
X208198809Y-52298628D01*
X207960714Y-52774819D02*
X207960714Y-51774819D01*
X207960714Y-51774819D02*
X208341666Y-51774819D01*
X208341666Y-51774819D02*
X208436904Y-51822438D01*
X208436904Y-51822438D02*
X208484523Y-51870057D01*
X208484523Y-51870057D02*
X208532142Y-51965295D01*
X208532142Y-51965295D02*
X208532142Y-52108152D01*
X208532142Y-52108152D02*
X208484523Y-52203390D01*
X208484523Y-52203390D02*
X208436904Y-52251009D01*
X208436904Y-52251009D02*
X208341666Y-52298628D01*
X208341666Y-52298628D02*
X207960714Y-52298628D01*
X209484523Y-52774819D02*
X208913095Y-52774819D01*
X209198809Y-52774819D02*
X209198809Y-51774819D01*
X209198809Y-51774819D02*
X209103571Y-51917676D01*
X209103571Y-51917676D02*
X209008333Y-52012914D01*
X209008333Y-52012914D02*
X208913095Y-52060533D01*
X210055952Y-52203390D02*
X209960714Y-52155771D01*
X209960714Y-52155771D02*
X209913095Y-52108152D01*
X209913095Y-52108152D02*
X209865476Y-52012914D01*
X209865476Y-52012914D02*
X209865476Y-51965295D01*
X209865476Y-51965295D02*
X209913095Y-51870057D01*
X209913095Y-51870057D02*
X209960714Y-51822438D01*
X209960714Y-51822438D02*
X210055952Y-51774819D01*
X210055952Y-51774819D02*
X210246428Y-51774819D01*
X210246428Y-51774819D02*
X210341666Y-51822438D01*
X210341666Y-51822438D02*
X210389285Y-51870057D01*
X210389285Y-51870057D02*
X210436904Y-51965295D01*
X210436904Y-51965295D02*
X210436904Y-52012914D01*
X210436904Y-52012914D02*
X210389285Y-52108152D01*
X210389285Y-52108152D02*
X210341666Y-52155771D01*
X210341666Y-52155771D02*
X210246428Y-52203390D01*
X210246428Y-52203390D02*
X210055952Y-52203390D01*
X210055952Y-52203390D02*
X209960714Y-52251009D01*
X209960714Y-52251009D02*
X209913095Y-52298628D01*
X209913095Y-52298628D02*
X209865476Y-52393866D01*
X209865476Y-52393866D02*
X209865476Y-52584342D01*
X209865476Y-52584342D02*
X209913095Y-52679580D01*
X209913095Y-52679580D02*
X209960714Y-52727200D01*
X209960714Y-52727200D02*
X210055952Y-52774819D01*
X210055952Y-52774819D02*
X210246428Y-52774819D01*
X210246428Y-52774819D02*
X210341666Y-52727200D01*
X210341666Y-52727200D02*
X210389285Y-52679580D01*
X210389285Y-52679580D02*
X210436904Y-52584342D01*
X210436904Y-52584342D02*
X210436904Y-52393866D01*
X210436904Y-52393866D02*
X210389285Y-52298628D01*
X210389285Y-52298628D02*
X210341666Y-52251009D01*
X210341666Y-52251009D02*
X210246428Y-52203390D01*
X207109580Y-50891666D02*
X207157200Y-50939285D01*
X207157200Y-50939285D02*
X207204819Y-51082142D01*
X207204819Y-51082142D02*
X207204819Y-51177380D01*
X207204819Y-51177380D02*
X207157200Y-51320237D01*
X207157200Y-51320237D02*
X207061961Y-51415475D01*
X207061961Y-51415475D02*
X206966723Y-51463094D01*
X206966723Y-51463094D02*
X206776247Y-51510713D01*
X206776247Y-51510713D02*
X206633390Y-51510713D01*
X206633390Y-51510713D02*
X206442914Y-51463094D01*
X206442914Y-51463094D02*
X206347676Y-51415475D01*
X206347676Y-51415475D02*
X206252438Y-51320237D01*
X206252438Y-51320237D02*
X206204819Y-51177380D01*
X206204819Y-51177380D02*
X206204819Y-51082142D01*
X206204819Y-51082142D02*
X206252438Y-50939285D01*
X206252438Y-50939285D02*
X206300057Y-50891666D01*
X206204819Y-50558332D02*
X206204819Y-49939285D01*
X206204819Y-49939285D02*
X206585771Y-50272618D01*
X206585771Y-50272618D02*
X206585771Y-50129761D01*
X206585771Y-50129761D02*
X206633390Y-50034523D01*
X206633390Y-50034523D02*
X206681009Y-49986904D01*
X206681009Y-49986904D02*
X206776247Y-49939285D01*
X206776247Y-49939285D02*
X207014342Y-49939285D01*
X207014342Y-49939285D02*
X207109580Y-49986904D01*
X207109580Y-49986904D02*
X207157200Y-50034523D01*
X207157200Y-50034523D02*
X207204819Y-50129761D01*
X207204819Y-50129761D02*
X207204819Y-50415475D01*
X207204819Y-50415475D02*
X207157200Y-50510713D01*
X207157200Y-50510713D02*
X207109580Y-50558332D01*
X169164017Y-48116428D02*
X169164017Y-48926767D01*
X169164017Y-48926767D02*
X169211684Y-49022101D01*
X169211684Y-49022101D02*
X169259351Y-49069769D01*
X169259351Y-49069769D02*
X169354685Y-49117436D01*
X169354685Y-49117436D02*
X169545353Y-49117436D01*
X169545353Y-49117436D02*
X169640687Y-49069769D01*
X169640687Y-49069769D02*
X169688354Y-49022101D01*
X169688354Y-49022101D02*
X169736021Y-48926767D01*
X169736021Y-48926767D02*
X169736021Y-48116428D01*
X170737029Y-49117436D02*
X170165025Y-49117436D01*
X170451027Y-49117436D02*
X170451027Y-48116428D01*
X170451027Y-48116428D02*
X170355693Y-48259429D01*
X170355693Y-48259429D02*
X170260359Y-48354763D01*
X170260359Y-48354763D02*
X170165025Y-48402430D01*
X147488095Y-57554819D02*
X147488095Y-56554819D01*
X147488095Y-57031009D02*
X148059523Y-57031009D01*
X148059523Y-57554819D02*
X148059523Y-56554819D01*
X148488095Y-56650057D02*
X148535714Y-56602438D01*
X148535714Y-56602438D02*
X148630952Y-56554819D01*
X148630952Y-56554819D02*
X148869047Y-56554819D01*
X148869047Y-56554819D02*
X148964285Y-56602438D01*
X148964285Y-56602438D02*
X149011904Y-56650057D01*
X149011904Y-56650057D02*
X149059523Y-56745295D01*
X149059523Y-56745295D02*
X149059523Y-56840533D01*
X149059523Y-56840533D02*
X149011904Y-56983390D01*
X149011904Y-56983390D02*
X148440476Y-57554819D01*
X148440476Y-57554819D02*
X149059523Y-57554819D01*
X186997030Y-58976848D02*
X187044650Y-59024467D01*
X187044650Y-59024467D02*
X187092269Y-59167324D01*
X187092269Y-59167324D02*
X187092269Y-59262562D01*
X187092269Y-59262562D02*
X187044650Y-59405419D01*
X187044650Y-59405419D02*
X186949411Y-59500657D01*
X186949411Y-59500657D02*
X186854173Y-59548276D01*
X186854173Y-59548276D02*
X186663697Y-59595895D01*
X186663697Y-59595895D02*
X186520840Y-59595895D01*
X186520840Y-59595895D02*
X186330364Y-59548276D01*
X186330364Y-59548276D02*
X186235126Y-59500657D01*
X186235126Y-59500657D02*
X186139888Y-59405419D01*
X186139888Y-59405419D02*
X186092269Y-59262562D01*
X186092269Y-59262562D02*
X186092269Y-59167324D01*
X186092269Y-59167324D02*
X186139888Y-59024467D01*
X186139888Y-59024467D02*
X186187507Y-58976848D01*
X187092269Y-58024467D02*
X187092269Y-58595895D01*
X187092269Y-58310181D02*
X186092269Y-58310181D01*
X186092269Y-58310181D02*
X186235126Y-58405419D01*
X186235126Y-58405419D02*
X186330364Y-58500657D01*
X186330364Y-58500657D02*
X186377983Y-58595895D01*
X186092269Y-57119705D02*
X186092269Y-57595895D01*
X186092269Y-57595895D02*
X186568459Y-57643514D01*
X186568459Y-57643514D02*
X186520840Y-57595895D01*
X186520840Y-57595895D02*
X186473221Y-57500657D01*
X186473221Y-57500657D02*
X186473221Y-57262562D01*
X186473221Y-57262562D02*
X186520840Y-57167324D01*
X186520840Y-57167324D02*
X186568459Y-57119705D01*
X186568459Y-57119705D02*
X186663697Y-57072086D01*
X186663697Y-57072086D02*
X186901792Y-57072086D01*
X186901792Y-57072086D02*
X186997030Y-57119705D01*
X186997030Y-57119705D02*
X187044650Y-57167324D01*
X187044650Y-57167324D02*
X187092269Y-57262562D01*
X187092269Y-57262562D02*
X187092269Y-57500657D01*
X187092269Y-57500657D02*
X187044650Y-57595895D01*
X187044650Y-57595895D02*
X186997030Y-57643514D01*
X194884819Y-60392857D02*
X194408628Y-60726190D01*
X194884819Y-60964285D02*
X193884819Y-60964285D01*
X193884819Y-60964285D02*
X193884819Y-60583333D01*
X193884819Y-60583333D02*
X193932438Y-60488095D01*
X193932438Y-60488095D02*
X193980057Y-60440476D01*
X193980057Y-60440476D02*
X194075295Y-60392857D01*
X194075295Y-60392857D02*
X194218152Y-60392857D01*
X194218152Y-60392857D02*
X194313390Y-60440476D01*
X194313390Y-60440476D02*
X194361009Y-60488095D01*
X194361009Y-60488095D02*
X194408628Y-60583333D01*
X194408628Y-60583333D02*
X194408628Y-60964285D01*
X194884819Y-59440476D02*
X194884819Y-60011904D01*
X194884819Y-59726190D02*
X193884819Y-59726190D01*
X193884819Y-59726190D02*
X194027676Y-59821428D01*
X194027676Y-59821428D02*
X194122914Y-59916666D01*
X194122914Y-59916666D02*
X194170533Y-60011904D01*
X193884819Y-59107142D02*
X193884819Y-58440476D01*
X193884819Y-58440476D02*
X194884819Y-58869047D01*
X182204819Y-51238094D02*
X181204819Y-51238094D01*
X181204819Y-51238094D02*
X181204819Y-50999999D01*
X181204819Y-50999999D02*
X181252438Y-50857142D01*
X181252438Y-50857142D02*
X181347676Y-50761904D01*
X181347676Y-50761904D02*
X181442914Y-50714285D01*
X181442914Y-50714285D02*
X181633390Y-50666666D01*
X181633390Y-50666666D02*
X181776247Y-50666666D01*
X181776247Y-50666666D02*
X181966723Y-50714285D01*
X181966723Y-50714285D02*
X182061961Y-50761904D01*
X182061961Y-50761904D02*
X182157200Y-50857142D01*
X182157200Y-50857142D02*
X182204819Y-50999999D01*
X182204819Y-50999999D02*
X182204819Y-51238094D01*
X181538152Y-49809523D02*
X182204819Y-49809523D01*
X181157200Y-50047618D02*
X181871485Y-50285713D01*
X181871485Y-50285713D02*
X181871485Y-49666666D01*
X154091666Y-36819819D02*
X154091666Y-37534104D01*
X154091666Y-37534104D02*
X154044047Y-37676961D01*
X154044047Y-37676961D02*
X153948809Y-37772200D01*
X153948809Y-37772200D02*
X153805952Y-37819819D01*
X153805952Y-37819819D02*
X153710714Y-37819819D01*
X154472619Y-36819819D02*
X155091666Y-36819819D01*
X155091666Y-36819819D02*
X154758333Y-37200771D01*
X154758333Y-37200771D02*
X154901190Y-37200771D01*
X154901190Y-37200771D02*
X154996428Y-37248390D01*
X154996428Y-37248390D02*
X155044047Y-37296009D01*
X155044047Y-37296009D02*
X155091666Y-37391247D01*
X155091666Y-37391247D02*
X155091666Y-37629342D01*
X155091666Y-37629342D02*
X155044047Y-37724580D01*
X155044047Y-37724580D02*
X154996428Y-37772200D01*
X154996428Y-37772200D02*
X154901190Y-37819819D01*
X154901190Y-37819819D02*
X154615476Y-37819819D01*
X154615476Y-37819819D02*
X154520238Y-37772200D01*
X154520238Y-37772200D02*
X154472619Y-37724580D01*
X160607142Y-47954819D02*
X160273809Y-47478628D01*
X160035714Y-47954819D02*
X160035714Y-46954819D01*
X160035714Y-46954819D02*
X160416666Y-46954819D01*
X160416666Y-46954819D02*
X160511904Y-47002438D01*
X160511904Y-47002438D02*
X160559523Y-47050057D01*
X160559523Y-47050057D02*
X160607142Y-47145295D01*
X160607142Y-47145295D02*
X160607142Y-47288152D01*
X160607142Y-47288152D02*
X160559523Y-47383390D01*
X160559523Y-47383390D02*
X160511904Y-47431009D01*
X160511904Y-47431009D02*
X160416666Y-47478628D01*
X160416666Y-47478628D02*
X160035714Y-47478628D01*
X161559523Y-47954819D02*
X160988095Y-47954819D01*
X161273809Y-47954819D02*
X161273809Y-46954819D01*
X161273809Y-46954819D02*
X161178571Y-47097676D01*
X161178571Y-47097676D02*
X161083333Y-47192914D01*
X161083333Y-47192914D02*
X160988095Y-47240533D01*
X162511904Y-47954819D02*
X161940476Y-47954819D01*
X162226190Y-47954819D02*
X162226190Y-46954819D01*
X162226190Y-46954819D02*
X162130952Y-47097676D01*
X162130952Y-47097676D02*
X162035714Y-47192914D01*
X162035714Y-47192914D02*
X161940476Y-47240533D01*
X215488095Y-62204819D02*
X215488095Y-61204819D01*
X215488095Y-61681009D02*
X216059523Y-61681009D01*
X216059523Y-62204819D02*
X216059523Y-61204819D01*
X216440476Y-61204819D02*
X217059523Y-61204819D01*
X217059523Y-61204819D02*
X216726190Y-61585771D01*
X216726190Y-61585771D02*
X216869047Y-61585771D01*
X216869047Y-61585771D02*
X216964285Y-61633390D01*
X216964285Y-61633390D02*
X217011904Y-61681009D01*
X217011904Y-61681009D02*
X217059523Y-61776247D01*
X217059523Y-61776247D02*
X217059523Y-62014342D01*
X217059523Y-62014342D02*
X217011904Y-62109580D01*
X217011904Y-62109580D02*
X216964285Y-62157200D01*
X216964285Y-62157200D02*
X216869047Y-62204819D01*
X216869047Y-62204819D02*
X216583333Y-62204819D01*
X216583333Y-62204819D02*
X216488095Y-62157200D01*
X216488095Y-62157200D02*
X216440476Y-62109580D01*
X189007934Y-62150705D02*
X189722219Y-62150705D01*
X189722219Y-62150705D02*
X189865076Y-62198324D01*
X189865076Y-62198324D02*
X189960315Y-62293562D01*
X189960315Y-62293562D02*
X190007934Y-62436419D01*
X190007934Y-62436419D02*
X190007934Y-62531657D01*
X190007934Y-61674514D02*
X189007934Y-61674514D01*
X189007934Y-61674514D02*
X189007934Y-61293562D01*
X189007934Y-61293562D02*
X189055553Y-61198324D01*
X189055553Y-61198324D02*
X189103172Y-61150705D01*
X189103172Y-61150705D02*
X189198410Y-61103086D01*
X189198410Y-61103086D02*
X189341267Y-61103086D01*
X189341267Y-61103086D02*
X189436505Y-61150705D01*
X189436505Y-61150705D02*
X189484124Y-61198324D01*
X189484124Y-61198324D02*
X189531743Y-61293562D01*
X189531743Y-61293562D02*
X189531743Y-61674514D01*
X189103172Y-60722133D02*
X189055553Y-60674514D01*
X189055553Y-60674514D02*
X189007934Y-60579276D01*
X189007934Y-60579276D02*
X189007934Y-60341181D01*
X189007934Y-60341181D02*
X189055553Y-60245943D01*
X189055553Y-60245943D02*
X189103172Y-60198324D01*
X189103172Y-60198324D02*
X189198410Y-60150705D01*
X189198410Y-60150705D02*
X189293648Y-60150705D01*
X189293648Y-60150705D02*
X189436505Y-60198324D01*
X189436505Y-60198324D02*
X190007934Y-60769752D01*
X190007934Y-60769752D02*
X190007934Y-60150705D01*
X160607142Y-45454819D02*
X160273809Y-44978628D01*
X160035714Y-45454819D02*
X160035714Y-44454819D01*
X160035714Y-44454819D02*
X160416666Y-44454819D01*
X160416666Y-44454819D02*
X160511904Y-44502438D01*
X160511904Y-44502438D02*
X160559523Y-44550057D01*
X160559523Y-44550057D02*
X160607142Y-44645295D01*
X160607142Y-44645295D02*
X160607142Y-44788152D01*
X160607142Y-44788152D02*
X160559523Y-44883390D01*
X160559523Y-44883390D02*
X160511904Y-44931009D01*
X160511904Y-44931009D02*
X160416666Y-44978628D01*
X160416666Y-44978628D02*
X160035714Y-44978628D01*
X161559523Y-45454819D02*
X160988095Y-45454819D01*
X161273809Y-45454819D02*
X161273809Y-44454819D01*
X161273809Y-44454819D02*
X161178571Y-44597676D01*
X161178571Y-44597676D02*
X161083333Y-44692914D01*
X161083333Y-44692914D02*
X160988095Y-44740533D01*
X161940476Y-44550057D02*
X161988095Y-44502438D01*
X161988095Y-44502438D02*
X162083333Y-44454819D01*
X162083333Y-44454819D02*
X162321428Y-44454819D01*
X162321428Y-44454819D02*
X162416666Y-44502438D01*
X162416666Y-44502438D02*
X162464285Y-44550057D01*
X162464285Y-44550057D02*
X162511904Y-44645295D01*
X162511904Y-44645295D02*
X162511904Y-44740533D01*
X162511904Y-44740533D02*
X162464285Y-44883390D01*
X162464285Y-44883390D02*
X161892857Y-45454819D01*
X161892857Y-45454819D02*
X162511904Y-45454819D01*
X192758333Y-50884819D02*
X192425000Y-50408628D01*
X192186905Y-50884819D02*
X192186905Y-49884819D01*
X192186905Y-49884819D02*
X192567857Y-49884819D01*
X192567857Y-49884819D02*
X192663095Y-49932438D01*
X192663095Y-49932438D02*
X192710714Y-49980057D01*
X192710714Y-49980057D02*
X192758333Y-50075295D01*
X192758333Y-50075295D02*
X192758333Y-50218152D01*
X192758333Y-50218152D02*
X192710714Y-50313390D01*
X192710714Y-50313390D02*
X192663095Y-50361009D01*
X192663095Y-50361009D02*
X192567857Y-50408628D01*
X192567857Y-50408628D02*
X192186905Y-50408628D01*
X193329762Y-50313390D02*
X193234524Y-50265771D01*
X193234524Y-50265771D02*
X193186905Y-50218152D01*
X193186905Y-50218152D02*
X193139286Y-50122914D01*
X193139286Y-50122914D02*
X193139286Y-50075295D01*
X193139286Y-50075295D02*
X193186905Y-49980057D01*
X193186905Y-49980057D02*
X193234524Y-49932438D01*
X193234524Y-49932438D02*
X193329762Y-49884819D01*
X193329762Y-49884819D02*
X193520238Y-49884819D01*
X193520238Y-49884819D02*
X193615476Y-49932438D01*
X193615476Y-49932438D02*
X193663095Y-49980057D01*
X193663095Y-49980057D02*
X193710714Y-50075295D01*
X193710714Y-50075295D02*
X193710714Y-50122914D01*
X193710714Y-50122914D02*
X193663095Y-50218152D01*
X193663095Y-50218152D02*
X193615476Y-50265771D01*
X193615476Y-50265771D02*
X193520238Y-50313390D01*
X193520238Y-50313390D02*
X193329762Y-50313390D01*
X193329762Y-50313390D02*
X193234524Y-50361009D01*
X193234524Y-50361009D02*
X193186905Y-50408628D01*
X193186905Y-50408628D02*
X193139286Y-50503866D01*
X193139286Y-50503866D02*
X193139286Y-50694342D01*
X193139286Y-50694342D02*
X193186905Y-50789580D01*
X193186905Y-50789580D02*
X193234524Y-50837200D01*
X193234524Y-50837200D02*
X193329762Y-50884819D01*
X193329762Y-50884819D02*
X193520238Y-50884819D01*
X193520238Y-50884819D02*
X193615476Y-50837200D01*
X193615476Y-50837200D02*
X193663095Y-50789580D01*
X193663095Y-50789580D02*
X193710714Y-50694342D01*
X193710714Y-50694342D02*
X193710714Y-50503866D01*
X193710714Y-50503866D02*
X193663095Y-50408628D01*
X193663095Y-50408628D02*
X193615476Y-50361009D01*
X193615476Y-50361009D02*
X193520238Y-50313390D01*
X209738095Y-39454819D02*
X209738095Y-40264342D01*
X209738095Y-40264342D02*
X209785714Y-40359580D01*
X209785714Y-40359580D02*
X209833333Y-40407200D01*
X209833333Y-40407200D02*
X209928571Y-40454819D01*
X209928571Y-40454819D02*
X210119047Y-40454819D01*
X210119047Y-40454819D02*
X210214285Y-40407200D01*
X210214285Y-40407200D02*
X210261904Y-40359580D01*
X210261904Y-40359580D02*
X210309523Y-40264342D01*
X210309523Y-40264342D02*
X210309523Y-39454819D01*
X210738095Y-39550057D02*
X210785714Y-39502438D01*
X210785714Y-39502438D02*
X210880952Y-39454819D01*
X210880952Y-39454819D02*
X211119047Y-39454819D01*
X211119047Y-39454819D02*
X211214285Y-39502438D01*
X211214285Y-39502438D02*
X211261904Y-39550057D01*
X211261904Y-39550057D02*
X211309523Y-39645295D01*
X211309523Y-39645295D02*
X211309523Y-39740533D01*
X211309523Y-39740533D02*
X211261904Y-39883390D01*
X211261904Y-39883390D02*
X210690476Y-40454819D01*
X210690476Y-40454819D02*
X211309523Y-40454819D01*
X208785500Y-39204819D02*
X208785500Y-39442914D01*
X208547405Y-39347676D02*
X208785500Y-39442914D01*
X208785500Y-39442914D02*
X209023595Y-39347676D01*
X208642643Y-39633390D02*
X208785500Y-39442914D01*
X208785500Y-39442914D02*
X208928357Y-39633390D01*
X208785500Y-39204819D02*
X208785500Y-39442914D01*
X208547405Y-39347676D02*
X208785500Y-39442914D01*
X208785500Y-39442914D02*
X209023595Y-39347676D01*
X208642643Y-39633390D02*
X208785500Y-39442914D01*
X208785500Y-39442914D02*
X208928357Y-39633390D01*
X170282142Y-56634819D02*
X169948809Y-56158628D01*
X169710714Y-56634819D02*
X169710714Y-55634819D01*
X169710714Y-55634819D02*
X170091666Y-55634819D01*
X170091666Y-55634819D02*
X170186904Y-55682438D01*
X170186904Y-55682438D02*
X170234523Y-55730057D01*
X170234523Y-55730057D02*
X170282142Y-55825295D01*
X170282142Y-55825295D02*
X170282142Y-55968152D01*
X170282142Y-55968152D02*
X170234523Y-56063390D01*
X170234523Y-56063390D02*
X170186904Y-56111009D01*
X170186904Y-56111009D02*
X170091666Y-56158628D01*
X170091666Y-56158628D02*
X169710714Y-56158628D01*
X171234523Y-56634819D02*
X170663095Y-56634819D01*
X170948809Y-56634819D02*
X170948809Y-55634819D01*
X170948809Y-55634819D02*
X170853571Y-55777676D01*
X170853571Y-55777676D02*
X170758333Y-55872914D01*
X170758333Y-55872914D02*
X170663095Y-55920533D01*
X172091666Y-55968152D02*
X172091666Y-56634819D01*
X171853571Y-55587200D02*
X171615476Y-56301485D01*
X171615476Y-56301485D02*
X172234523Y-56301485D01*
X211789580Y-50891666D02*
X211837200Y-50939285D01*
X211837200Y-50939285D02*
X211884819Y-51082142D01*
X211884819Y-51082142D02*
X211884819Y-51177380D01*
X211884819Y-51177380D02*
X211837200Y-51320237D01*
X211837200Y-51320237D02*
X211741961Y-51415475D01*
X211741961Y-51415475D02*
X211646723Y-51463094D01*
X211646723Y-51463094D02*
X211456247Y-51510713D01*
X211456247Y-51510713D02*
X211313390Y-51510713D01*
X211313390Y-51510713D02*
X211122914Y-51463094D01*
X211122914Y-51463094D02*
X211027676Y-51415475D01*
X211027676Y-51415475D02*
X210932438Y-51320237D01*
X210932438Y-51320237D02*
X210884819Y-51177380D01*
X210884819Y-51177380D02*
X210884819Y-51082142D01*
X210884819Y-51082142D02*
X210932438Y-50939285D01*
X210932438Y-50939285D02*
X210980057Y-50891666D01*
X211218152Y-50034523D02*
X211884819Y-50034523D01*
X210837200Y-50272618D02*
X211551485Y-50510713D01*
X211551485Y-50510713D02*
X211551485Y-49891666D01*
X169682142Y-47634819D02*
X169348809Y-47158628D01*
X169110714Y-47634819D02*
X169110714Y-46634819D01*
X169110714Y-46634819D02*
X169491666Y-46634819D01*
X169491666Y-46634819D02*
X169586904Y-46682438D01*
X169586904Y-46682438D02*
X169634523Y-46730057D01*
X169634523Y-46730057D02*
X169682142Y-46825295D01*
X169682142Y-46825295D02*
X169682142Y-46968152D01*
X169682142Y-46968152D02*
X169634523Y-47063390D01*
X169634523Y-47063390D02*
X169586904Y-47111009D01*
X169586904Y-47111009D02*
X169491666Y-47158628D01*
X169491666Y-47158628D02*
X169110714Y-47158628D01*
X170634523Y-47634819D02*
X170063095Y-47634819D01*
X170348809Y-47634819D02*
X170348809Y-46634819D01*
X170348809Y-46634819D02*
X170253571Y-46777676D01*
X170253571Y-46777676D02*
X170158333Y-46872914D01*
X170158333Y-46872914D02*
X170063095Y-46920533D01*
X171253571Y-46634819D02*
X171348809Y-46634819D01*
X171348809Y-46634819D02*
X171444047Y-46682438D01*
X171444047Y-46682438D02*
X171491666Y-46730057D01*
X171491666Y-46730057D02*
X171539285Y-46825295D01*
X171539285Y-46825295D02*
X171586904Y-47015771D01*
X171586904Y-47015771D02*
X171586904Y-47253866D01*
X171586904Y-47253866D02*
X171539285Y-47444342D01*
X171539285Y-47444342D02*
X171491666Y-47539580D01*
X171491666Y-47539580D02*
X171444047Y-47587200D01*
X171444047Y-47587200D02*
X171348809Y-47634819D01*
X171348809Y-47634819D02*
X171253571Y-47634819D01*
X171253571Y-47634819D02*
X171158333Y-47587200D01*
X171158333Y-47587200D02*
X171110714Y-47539580D01*
X171110714Y-47539580D02*
X171063095Y-47444342D01*
X171063095Y-47444342D02*
X171015476Y-47253866D01*
X171015476Y-47253866D02*
X171015476Y-47015771D01*
X171015476Y-47015771D02*
X171063095Y-46825295D01*
X171063095Y-46825295D02*
X171110714Y-46730057D01*
X171110714Y-46730057D02*
X171158333Y-46682438D01*
X171158333Y-46682438D02*
X171253571Y-46634819D01*
X166233514Y-61554761D02*
X166538276Y-61554761D01*
X165898276Y-61768094D02*
X166233514Y-61554761D01*
X166233514Y-61554761D02*
X165898276Y-61341427D01*
X165959228Y-61158571D02*
X165928752Y-61128095D01*
X165928752Y-61128095D02*
X165898276Y-61067142D01*
X165898276Y-61067142D02*
X165898276Y-60914761D01*
X165898276Y-60914761D02*
X165928752Y-60853809D01*
X165928752Y-60853809D02*
X165959228Y-60823333D01*
X165959228Y-60823333D02*
X166020180Y-60792856D01*
X166020180Y-60792856D02*
X166081133Y-60792856D01*
X166081133Y-60792856D02*
X166172561Y-60823333D01*
X166172561Y-60823333D02*
X166538276Y-61189047D01*
X166538276Y-61189047D02*
X166538276Y-60792856D01*
X175357142Y-61859580D02*
X175309523Y-61907200D01*
X175309523Y-61907200D02*
X175166666Y-61954819D01*
X175166666Y-61954819D02*
X175071428Y-61954819D01*
X175071428Y-61954819D02*
X174928571Y-61907200D01*
X174928571Y-61907200D02*
X174833333Y-61811961D01*
X174833333Y-61811961D02*
X174785714Y-61716723D01*
X174785714Y-61716723D02*
X174738095Y-61526247D01*
X174738095Y-61526247D02*
X174738095Y-61383390D01*
X174738095Y-61383390D02*
X174785714Y-61192914D01*
X174785714Y-61192914D02*
X174833333Y-61097676D01*
X174833333Y-61097676D02*
X174928571Y-61002438D01*
X174928571Y-61002438D02*
X175071428Y-60954819D01*
X175071428Y-60954819D02*
X175166666Y-60954819D01*
X175166666Y-60954819D02*
X175309523Y-61002438D01*
X175309523Y-61002438D02*
X175357142Y-61050057D01*
X176309523Y-61954819D02*
X175738095Y-61954819D01*
X176023809Y-61954819D02*
X176023809Y-60954819D01*
X176023809Y-60954819D02*
X175928571Y-61097676D01*
X175928571Y-61097676D02*
X175833333Y-61192914D01*
X175833333Y-61192914D02*
X175738095Y-61240533D01*
X176690476Y-61050057D02*
X176738095Y-61002438D01*
X176738095Y-61002438D02*
X176833333Y-60954819D01*
X176833333Y-60954819D02*
X177071428Y-60954819D01*
X177071428Y-60954819D02*
X177166666Y-61002438D01*
X177166666Y-61002438D02*
X177214285Y-61050057D01*
X177214285Y-61050057D02*
X177261904Y-61145295D01*
X177261904Y-61145295D02*
X177261904Y-61240533D01*
X177261904Y-61240533D02*
X177214285Y-61383390D01*
X177214285Y-61383390D02*
X176642857Y-61954819D01*
X176642857Y-61954819D02*
X177261904Y-61954819D01*
X194058333Y-54815580D02*
X194010714Y-54863200D01*
X194010714Y-54863200D02*
X193867857Y-54910819D01*
X193867857Y-54910819D02*
X193772619Y-54910819D01*
X193772619Y-54910819D02*
X193629762Y-54863200D01*
X193629762Y-54863200D02*
X193534524Y-54767961D01*
X193534524Y-54767961D02*
X193486905Y-54672723D01*
X193486905Y-54672723D02*
X193439286Y-54482247D01*
X193439286Y-54482247D02*
X193439286Y-54339390D01*
X193439286Y-54339390D02*
X193486905Y-54148914D01*
X193486905Y-54148914D02*
X193534524Y-54053676D01*
X193534524Y-54053676D02*
X193629762Y-53958438D01*
X193629762Y-53958438D02*
X193772619Y-53910819D01*
X193772619Y-53910819D02*
X193867857Y-53910819D01*
X193867857Y-53910819D02*
X194010714Y-53958438D01*
X194010714Y-53958438D02*
X194058333Y-54006057D01*
X194391667Y-53910819D02*
X195058333Y-53910819D01*
X195058333Y-53910819D02*
X194629762Y-54910819D01*
D11*
X182326667Y-42304318D02*
X182326667Y-43211461D01*
X182326667Y-43211461D02*
X182266190Y-43392889D01*
X182266190Y-43392889D02*
X182145238Y-43513842D01*
X182145238Y-43513842D02*
X181963809Y-43574318D01*
X181963809Y-43574318D02*
X181842857Y-43574318D01*
X183596667Y-43574318D02*
X182870952Y-43574318D01*
X183233809Y-43574318D02*
X183233809Y-42304318D01*
X183233809Y-42304318D02*
X183112857Y-42485746D01*
X183112857Y-42485746D02*
X182991905Y-42606699D01*
X182991905Y-42606699D02*
X182870952Y-42667175D01*
D10*
X181454819Y-57261904D02*
X182264342Y-57261904D01*
X182264342Y-57261904D02*
X182359580Y-57214285D01*
X182359580Y-57214285D02*
X182407200Y-57166666D01*
X182407200Y-57166666D02*
X182454819Y-57071428D01*
X182454819Y-57071428D02*
X182454819Y-56880952D01*
X182454819Y-56880952D02*
X182407200Y-56785714D01*
X182407200Y-56785714D02*
X182359580Y-56738095D01*
X182359580Y-56738095D02*
X182264342Y-56690476D01*
X182264342Y-56690476D02*
X181454819Y-56690476D01*
X181454819Y-56309523D02*
X181454819Y-55642857D01*
X181454819Y-55642857D02*
X182454819Y-56071428D01*
X177873819Y-61986399D02*
X178111914Y-61986399D01*
X178016676Y-62224494D02*
X178111914Y-61986399D01*
X178111914Y-61986399D02*
X178016676Y-61748304D01*
X178302390Y-62129256D02*
X178111914Y-61986399D01*
X178111914Y-61986399D02*
X178302390Y-61843542D01*
X177873819Y-61986399D02*
X178111914Y-61986399D01*
X178016676Y-62224494D02*
X178111914Y-61986399D01*
X178111914Y-61986399D02*
X178016676Y-61748304D01*
X178302390Y-62129256D02*
X178111914Y-61986399D01*
X178111914Y-61986399D02*
X178302390Y-61843542D01*
X166168095Y-38919819D02*
X166168095Y-39729342D01*
X166168095Y-39729342D02*
X166215714Y-39824580D01*
X166215714Y-39824580D02*
X166263333Y-39872200D01*
X166263333Y-39872200D02*
X166358571Y-39919819D01*
X166358571Y-39919819D02*
X166549047Y-39919819D01*
X166549047Y-39919819D02*
X166644285Y-39872200D01*
X166644285Y-39872200D02*
X166691904Y-39824580D01*
X166691904Y-39824580D02*
X166739523Y-39729342D01*
X166739523Y-39729342D02*
X166739523Y-38919819D01*
X167644285Y-38919819D02*
X167453809Y-38919819D01*
X167453809Y-38919819D02*
X167358571Y-38967438D01*
X167358571Y-38967438D02*
X167310952Y-39015057D01*
X167310952Y-39015057D02*
X167215714Y-39157914D01*
X167215714Y-39157914D02*
X167168095Y-39348390D01*
X167168095Y-39348390D02*
X167168095Y-39729342D01*
X167168095Y-39729342D02*
X167215714Y-39824580D01*
X167215714Y-39824580D02*
X167263333Y-39872200D01*
X167263333Y-39872200D02*
X167358571Y-39919819D01*
X167358571Y-39919819D02*
X167549047Y-39919819D01*
X167549047Y-39919819D02*
X167644285Y-39872200D01*
X167644285Y-39872200D02*
X167691904Y-39824580D01*
X167691904Y-39824580D02*
X167739523Y-39729342D01*
X167739523Y-39729342D02*
X167739523Y-39491247D01*
X167739523Y-39491247D02*
X167691904Y-39396009D01*
X167691904Y-39396009D02*
X167644285Y-39348390D01*
X167644285Y-39348390D02*
X167549047Y-39300771D01*
X167549047Y-39300771D02*
X167358571Y-39300771D01*
X167358571Y-39300771D02*
X167263333Y-39348390D01*
X167263333Y-39348390D02*
X167215714Y-39396009D01*
X167215714Y-39396009D02*
X167168095Y-39491247D01*
X197333333Y-54815580D02*
X197285714Y-54863200D01*
X197285714Y-54863200D02*
X197142857Y-54910819D01*
X197142857Y-54910819D02*
X197047619Y-54910819D01*
X197047619Y-54910819D02*
X196904762Y-54863200D01*
X196904762Y-54863200D02*
X196809524Y-54767961D01*
X196809524Y-54767961D02*
X196761905Y-54672723D01*
X196761905Y-54672723D02*
X196714286Y-54482247D01*
X196714286Y-54482247D02*
X196714286Y-54339390D01*
X196714286Y-54339390D02*
X196761905Y-54148914D01*
X196761905Y-54148914D02*
X196809524Y-54053676D01*
X196809524Y-54053676D02*
X196904762Y-53958438D01*
X196904762Y-53958438D02*
X197047619Y-53910819D01*
X197047619Y-53910819D02*
X197142857Y-53910819D01*
X197142857Y-53910819D02*
X197285714Y-53958438D01*
X197285714Y-53958438D02*
X197333333Y-54006057D01*
X197904762Y-54339390D02*
X197809524Y-54291771D01*
X197809524Y-54291771D02*
X197761905Y-54244152D01*
X197761905Y-54244152D02*
X197714286Y-54148914D01*
X197714286Y-54148914D02*
X197714286Y-54101295D01*
X197714286Y-54101295D02*
X197761905Y-54006057D01*
X197761905Y-54006057D02*
X197809524Y-53958438D01*
X197809524Y-53958438D02*
X197904762Y-53910819D01*
X197904762Y-53910819D02*
X198095238Y-53910819D01*
X198095238Y-53910819D02*
X198190476Y-53958438D01*
X198190476Y-53958438D02*
X198238095Y-54006057D01*
X198238095Y-54006057D02*
X198285714Y-54101295D01*
X198285714Y-54101295D02*
X198285714Y-54148914D01*
X198285714Y-54148914D02*
X198238095Y-54244152D01*
X198238095Y-54244152D02*
X198190476Y-54291771D01*
X198190476Y-54291771D02*
X198095238Y-54339390D01*
X198095238Y-54339390D02*
X197904762Y-54339390D01*
X197904762Y-54339390D02*
X197809524Y-54387009D01*
X197809524Y-54387009D02*
X197761905Y-54434628D01*
X197761905Y-54434628D02*
X197714286Y-54529866D01*
X197714286Y-54529866D02*
X197714286Y-54720342D01*
X197714286Y-54720342D02*
X197761905Y-54815580D01*
X197761905Y-54815580D02*
X197809524Y-54863200D01*
X197809524Y-54863200D02*
X197904762Y-54910819D01*
X197904762Y-54910819D02*
X198095238Y-54910819D01*
X198095238Y-54910819D02*
X198190476Y-54863200D01*
X198190476Y-54863200D02*
X198238095Y-54815580D01*
X198238095Y-54815580D02*
X198285714Y-54720342D01*
X198285714Y-54720342D02*
X198285714Y-54529866D01*
X198285714Y-54529866D02*
X198238095Y-54434628D01*
X198238095Y-54434628D02*
X198190476Y-54387009D01*
X198190476Y-54387009D02*
X198095238Y-54339390D01*
X200758333Y-50884819D02*
X200425000Y-50408628D01*
X200186905Y-50884819D02*
X200186905Y-49884819D01*
X200186905Y-49884819D02*
X200567857Y-49884819D01*
X200567857Y-49884819D02*
X200663095Y-49932438D01*
X200663095Y-49932438D02*
X200710714Y-49980057D01*
X200710714Y-49980057D02*
X200758333Y-50075295D01*
X200758333Y-50075295D02*
X200758333Y-50218152D01*
X200758333Y-50218152D02*
X200710714Y-50313390D01*
X200710714Y-50313390D02*
X200663095Y-50361009D01*
X200663095Y-50361009D02*
X200567857Y-50408628D01*
X200567857Y-50408628D02*
X200186905Y-50408628D01*
X201615476Y-49884819D02*
X201425000Y-49884819D01*
X201425000Y-49884819D02*
X201329762Y-49932438D01*
X201329762Y-49932438D02*
X201282143Y-49980057D01*
X201282143Y-49980057D02*
X201186905Y-50122914D01*
X201186905Y-50122914D02*
X201139286Y-50313390D01*
X201139286Y-50313390D02*
X201139286Y-50694342D01*
X201139286Y-50694342D02*
X201186905Y-50789580D01*
X201186905Y-50789580D02*
X201234524Y-50837200D01*
X201234524Y-50837200D02*
X201329762Y-50884819D01*
X201329762Y-50884819D02*
X201520238Y-50884819D01*
X201520238Y-50884819D02*
X201615476Y-50837200D01*
X201615476Y-50837200D02*
X201663095Y-50789580D01*
X201663095Y-50789580D02*
X201710714Y-50694342D01*
X201710714Y-50694342D02*
X201710714Y-50456247D01*
X201710714Y-50456247D02*
X201663095Y-50361009D01*
X201663095Y-50361009D02*
X201615476Y-50313390D01*
X201615476Y-50313390D02*
X201520238Y-50265771D01*
X201520238Y-50265771D02*
X201329762Y-50265771D01*
X201329762Y-50265771D02*
X201234524Y-50313390D01*
X201234524Y-50313390D02*
X201186905Y-50361009D01*
X201186905Y-50361009D02*
X201139286Y-50456247D01*
X167558333Y-56539580D02*
X167510714Y-56587200D01*
X167510714Y-56587200D02*
X167367857Y-56634819D01*
X167367857Y-56634819D02*
X167272619Y-56634819D01*
X167272619Y-56634819D02*
X167129762Y-56587200D01*
X167129762Y-56587200D02*
X167034524Y-56491961D01*
X167034524Y-56491961D02*
X166986905Y-56396723D01*
X166986905Y-56396723D02*
X166939286Y-56206247D01*
X166939286Y-56206247D02*
X166939286Y-56063390D01*
X166939286Y-56063390D02*
X166986905Y-55872914D01*
X166986905Y-55872914D02*
X167034524Y-55777676D01*
X167034524Y-55777676D02*
X167129762Y-55682438D01*
X167129762Y-55682438D02*
X167272619Y-55634819D01*
X167272619Y-55634819D02*
X167367857Y-55634819D01*
X167367857Y-55634819D02*
X167510714Y-55682438D01*
X167510714Y-55682438D02*
X167558333Y-55730057D01*
X167939286Y-55730057D02*
X167986905Y-55682438D01*
X167986905Y-55682438D02*
X168082143Y-55634819D01*
X168082143Y-55634819D02*
X168320238Y-55634819D01*
X168320238Y-55634819D02*
X168415476Y-55682438D01*
X168415476Y-55682438D02*
X168463095Y-55730057D01*
X168463095Y-55730057D02*
X168510714Y-55825295D01*
X168510714Y-55825295D02*
X168510714Y-55920533D01*
X168510714Y-55920533D02*
X168463095Y-56063390D01*
X168463095Y-56063390D02*
X167891667Y-56634819D01*
X167891667Y-56634819D02*
X168510714Y-56634819D01*
X175754819Y-56433333D02*
X176469104Y-56433333D01*
X176469104Y-56433333D02*
X176611961Y-56480952D01*
X176611961Y-56480952D02*
X176707200Y-56576190D01*
X176707200Y-56576190D02*
X176754819Y-56719047D01*
X176754819Y-56719047D02*
X176754819Y-56814285D01*
X176754819Y-55957142D02*
X175754819Y-55957142D01*
X175754819Y-55957142D02*
X175754819Y-55576190D01*
X175754819Y-55576190D02*
X175802438Y-55480952D01*
X175802438Y-55480952D02*
X175850057Y-55433333D01*
X175850057Y-55433333D02*
X175945295Y-55385714D01*
X175945295Y-55385714D02*
X176088152Y-55385714D01*
X176088152Y-55385714D02*
X176183390Y-55433333D01*
X176183390Y-55433333D02*
X176231009Y-55480952D01*
X176231009Y-55480952D02*
X176278628Y-55576190D01*
X176278628Y-55576190D02*
X176278628Y-55957142D01*
X176754819Y-54433333D02*
X176754819Y-55004761D01*
X176754819Y-54719047D02*
X175754819Y-54719047D01*
X175754819Y-54719047D02*
X175897676Y-54814285D01*
X175897676Y-54814285D02*
X175992914Y-54909523D01*
X175992914Y-54909523D02*
X176040533Y-55004761D01*
X166039580Y-51166666D02*
X166087200Y-51214285D01*
X166087200Y-51214285D02*
X166134819Y-51357142D01*
X166134819Y-51357142D02*
X166134819Y-51452380D01*
X166134819Y-51452380D02*
X166087200Y-51595237D01*
X166087200Y-51595237D02*
X165991961Y-51690475D01*
X165991961Y-51690475D02*
X165896723Y-51738094D01*
X165896723Y-51738094D02*
X165706247Y-51785713D01*
X165706247Y-51785713D02*
X165563390Y-51785713D01*
X165563390Y-51785713D02*
X165372914Y-51738094D01*
X165372914Y-51738094D02*
X165277676Y-51690475D01*
X165277676Y-51690475D02*
X165182438Y-51595237D01*
X165182438Y-51595237D02*
X165134819Y-51452380D01*
X165134819Y-51452380D02*
X165134819Y-51357142D01*
X165134819Y-51357142D02*
X165182438Y-51214285D01*
X165182438Y-51214285D02*
X165230057Y-51166666D01*
X166134819Y-50214285D02*
X166134819Y-50785713D01*
X166134819Y-50499999D02*
X165134819Y-50499999D01*
X165134819Y-50499999D02*
X165277676Y-50595237D01*
X165277676Y-50595237D02*
X165372914Y-50690475D01*
X165372914Y-50690475D02*
X165420533Y-50785713D01*
X194789580Y-56679265D02*
X194837200Y-56726884D01*
X194837200Y-56726884D02*
X194884819Y-56869741D01*
X194884819Y-56869741D02*
X194884819Y-56964979D01*
X194884819Y-56964979D02*
X194837200Y-57107836D01*
X194837200Y-57107836D02*
X194741961Y-57203074D01*
X194741961Y-57203074D02*
X194646723Y-57250693D01*
X194646723Y-57250693D02*
X194456247Y-57298312D01*
X194456247Y-57298312D02*
X194313390Y-57298312D01*
X194313390Y-57298312D02*
X194122914Y-57250693D01*
X194122914Y-57250693D02*
X194027676Y-57203074D01*
X194027676Y-57203074D02*
X193932438Y-57107836D01*
X193932438Y-57107836D02*
X193884819Y-56964979D01*
X193884819Y-56964979D02*
X193884819Y-56869741D01*
X193884819Y-56869741D02*
X193932438Y-56726884D01*
X193932438Y-56726884D02*
X193980057Y-56679265D01*
X193884819Y-55822122D02*
X193884819Y-56012598D01*
X193884819Y-56012598D02*
X193932438Y-56107836D01*
X193932438Y-56107836D02*
X193980057Y-56155455D01*
X193980057Y-56155455D02*
X194122914Y-56250693D01*
X194122914Y-56250693D02*
X194313390Y-56298312D01*
X194313390Y-56298312D02*
X194694342Y-56298312D01*
X194694342Y-56298312D02*
X194789580Y-56250693D01*
X194789580Y-56250693D02*
X194837200Y-56203074D01*
X194837200Y-56203074D02*
X194884819Y-56107836D01*
X194884819Y-56107836D02*
X194884819Y-55917360D01*
X194884819Y-55917360D02*
X194837200Y-55822122D01*
X194837200Y-55822122D02*
X194789580Y-55774503D01*
X194789580Y-55774503D02*
X194694342Y-55726884D01*
X194694342Y-55726884D02*
X194456247Y-55726884D01*
X194456247Y-55726884D02*
X194361009Y-55774503D01*
X194361009Y-55774503D02*
X194313390Y-55822122D01*
X194313390Y-55822122D02*
X194265771Y-55917360D01*
X194265771Y-55917360D02*
X194265771Y-56107836D01*
X194265771Y-56107836D02*
X194313390Y-56203074D01*
X194313390Y-56203074D02*
X194361009Y-56250693D01*
X194361009Y-56250693D02*
X194456247Y-56298312D01*
X188382142Y-48679580D02*
X188334523Y-48727200D01*
X188334523Y-48727200D02*
X188191666Y-48774819D01*
X188191666Y-48774819D02*
X188096428Y-48774819D01*
X188096428Y-48774819D02*
X187953571Y-48727200D01*
X187953571Y-48727200D02*
X187858333Y-48631961D01*
X187858333Y-48631961D02*
X187810714Y-48536723D01*
X187810714Y-48536723D02*
X187763095Y-48346247D01*
X187763095Y-48346247D02*
X187763095Y-48203390D01*
X187763095Y-48203390D02*
X187810714Y-48012914D01*
X187810714Y-48012914D02*
X187858333Y-47917676D01*
X187858333Y-47917676D02*
X187953571Y-47822438D01*
X187953571Y-47822438D02*
X188096428Y-47774819D01*
X188096428Y-47774819D02*
X188191666Y-47774819D01*
X188191666Y-47774819D02*
X188334523Y-47822438D01*
X188334523Y-47822438D02*
X188382142Y-47870057D01*
X189334523Y-48774819D02*
X188763095Y-48774819D01*
X189048809Y-48774819D02*
X189048809Y-47774819D01*
X189048809Y-47774819D02*
X188953571Y-47917676D01*
X188953571Y-47917676D02*
X188858333Y-48012914D01*
X188858333Y-48012914D02*
X188763095Y-48060533D01*
X190286904Y-48774819D02*
X189715476Y-48774819D01*
X190001190Y-48774819D02*
X190001190Y-47774819D01*
X190001190Y-47774819D02*
X189905952Y-47917676D01*
X189905952Y-47917676D02*
X189810714Y-48012914D01*
X189810714Y-48012914D02*
X189715476Y-48060533D01*
X164857142Y-58204819D02*
X164523809Y-57728628D01*
X164285714Y-58204819D02*
X164285714Y-57204819D01*
X164285714Y-57204819D02*
X164666666Y-57204819D01*
X164666666Y-57204819D02*
X164761904Y-57252438D01*
X164761904Y-57252438D02*
X164809523Y-57300057D01*
X164809523Y-57300057D02*
X164857142Y-57395295D01*
X164857142Y-57395295D02*
X164857142Y-57538152D01*
X164857142Y-57538152D02*
X164809523Y-57633390D01*
X164809523Y-57633390D02*
X164761904Y-57681009D01*
X164761904Y-57681009D02*
X164666666Y-57728628D01*
X164666666Y-57728628D02*
X164285714Y-57728628D01*
X165809523Y-58204819D02*
X165238095Y-58204819D01*
X165523809Y-58204819D02*
X165523809Y-57204819D01*
X165523809Y-57204819D02*
X165428571Y-57347676D01*
X165428571Y-57347676D02*
X165333333Y-57442914D01*
X165333333Y-57442914D02*
X165238095Y-57490533D01*
X166714285Y-57204819D02*
X166238095Y-57204819D01*
X166238095Y-57204819D02*
X166190476Y-57681009D01*
X166190476Y-57681009D02*
X166238095Y-57633390D01*
X166238095Y-57633390D02*
X166333333Y-57585771D01*
X166333333Y-57585771D02*
X166571428Y-57585771D01*
X166571428Y-57585771D02*
X166666666Y-57633390D01*
X166666666Y-57633390D02*
X166714285Y-57681009D01*
X166714285Y-57681009D02*
X166761904Y-57776247D01*
X166761904Y-57776247D02*
X166761904Y-58014342D01*
X166761904Y-58014342D02*
X166714285Y-58109580D01*
X166714285Y-58109580D02*
X166666666Y-58157200D01*
X166666666Y-58157200D02*
X166571428Y-58204819D01*
X166571428Y-58204819D02*
X166333333Y-58204819D01*
X166333333Y-58204819D02*
X166238095Y-58157200D01*
X166238095Y-58157200D02*
X166190476Y-58109580D01*
X208011905Y-49634819D02*
X208011905Y-48634819D01*
X208011905Y-48634819D02*
X208250000Y-48634819D01*
X208250000Y-48634819D02*
X208392857Y-48682438D01*
X208392857Y-48682438D02*
X208488095Y-48777676D01*
X208488095Y-48777676D02*
X208535714Y-48872914D01*
X208535714Y-48872914D02*
X208583333Y-49063390D01*
X208583333Y-49063390D02*
X208583333Y-49206247D01*
X208583333Y-49206247D02*
X208535714Y-49396723D01*
X208535714Y-49396723D02*
X208488095Y-49491961D01*
X208488095Y-49491961D02*
X208392857Y-49587200D01*
X208392857Y-49587200D02*
X208250000Y-49634819D01*
X208250000Y-49634819D02*
X208011905Y-49634819D01*
X209535714Y-49634819D02*
X208964286Y-49634819D01*
X209250000Y-49634819D02*
X209250000Y-48634819D01*
X209250000Y-48634819D02*
X209154762Y-48777676D01*
X209154762Y-48777676D02*
X209059524Y-48872914D01*
X209059524Y-48872914D02*
X208964286Y-48920533D01*
X184578244Y-48204819D02*
X184244911Y-47728628D01*
X184006816Y-48204819D02*
X184006816Y-47204819D01*
X184006816Y-47204819D02*
X184387768Y-47204819D01*
X184387768Y-47204819D02*
X184483006Y-47252438D01*
X184483006Y-47252438D02*
X184530625Y-47300057D01*
X184530625Y-47300057D02*
X184578244Y-47395295D01*
X184578244Y-47395295D02*
X184578244Y-47538152D01*
X184578244Y-47538152D02*
X184530625Y-47633390D01*
X184530625Y-47633390D02*
X184483006Y-47681009D01*
X184483006Y-47681009D02*
X184387768Y-47728628D01*
X184387768Y-47728628D02*
X184006816Y-47728628D01*
X185435387Y-47538152D02*
X185435387Y-48204819D01*
X185197292Y-47157200D02*
X184959197Y-47871485D01*
X184959197Y-47871485D02*
X185578244Y-47871485D01*
X195107142Y-59524819D02*
X194773809Y-59048628D01*
X194535714Y-59524819D02*
X194535714Y-58524819D01*
X194535714Y-58524819D02*
X194916666Y-58524819D01*
X194916666Y-58524819D02*
X195011904Y-58572438D01*
X195011904Y-58572438D02*
X195059523Y-58620057D01*
X195059523Y-58620057D02*
X195107142Y-58715295D01*
X195107142Y-58715295D02*
X195107142Y-58858152D01*
X195107142Y-58858152D02*
X195059523Y-58953390D01*
X195059523Y-58953390D02*
X195011904Y-59001009D01*
X195011904Y-59001009D02*
X194916666Y-59048628D01*
X194916666Y-59048628D02*
X194535714Y-59048628D01*
X196059523Y-59524819D02*
X195488095Y-59524819D01*
X195773809Y-59524819D02*
X195773809Y-58524819D01*
X195773809Y-58524819D02*
X195678571Y-58667676D01*
X195678571Y-58667676D02*
X195583333Y-58762914D01*
X195583333Y-58762914D02*
X195488095Y-58810533D01*
X196916666Y-58524819D02*
X196726190Y-58524819D01*
X196726190Y-58524819D02*
X196630952Y-58572438D01*
X196630952Y-58572438D02*
X196583333Y-58620057D01*
X196583333Y-58620057D02*
X196488095Y-58762914D01*
X196488095Y-58762914D02*
X196440476Y-58953390D01*
X196440476Y-58953390D02*
X196440476Y-59334342D01*
X196440476Y-59334342D02*
X196488095Y-59429580D01*
X196488095Y-59429580D02*
X196535714Y-59477200D01*
X196535714Y-59477200D02*
X196630952Y-59524819D01*
X196630952Y-59524819D02*
X196821428Y-59524819D01*
X196821428Y-59524819D02*
X196916666Y-59477200D01*
X196916666Y-59477200D02*
X196964285Y-59429580D01*
X196964285Y-59429580D02*
X197011904Y-59334342D01*
X197011904Y-59334342D02*
X197011904Y-59096247D01*
X197011904Y-59096247D02*
X196964285Y-59001009D01*
X196964285Y-59001009D02*
X196916666Y-58953390D01*
X196916666Y-58953390D02*
X196821428Y-58905771D01*
X196821428Y-58905771D02*
X196630952Y-58905771D01*
X196630952Y-58905771D02*
X196535714Y-58953390D01*
X196535714Y-58953390D02*
X196488095Y-59001009D01*
X196488095Y-59001009D02*
X196440476Y-59096247D01*
X195358333Y-55705580D02*
X195310714Y-55753200D01*
X195310714Y-55753200D02*
X195167857Y-55800819D01*
X195167857Y-55800819D02*
X195072619Y-55800819D01*
X195072619Y-55800819D02*
X194929762Y-55753200D01*
X194929762Y-55753200D02*
X194834524Y-55657961D01*
X194834524Y-55657961D02*
X194786905Y-55562723D01*
X194786905Y-55562723D02*
X194739286Y-55372247D01*
X194739286Y-55372247D02*
X194739286Y-55229390D01*
X194739286Y-55229390D02*
X194786905Y-55038914D01*
X194786905Y-55038914D02*
X194834524Y-54943676D01*
X194834524Y-54943676D02*
X194929762Y-54848438D01*
X194929762Y-54848438D02*
X195072619Y-54800819D01*
X195072619Y-54800819D02*
X195167857Y-54800819D01*
X195167857Y-54800819D02*
X195310714Y-54848438D01*
X195310714Y-54848438D02*
X195358333Y-54896057D01*
X196263095Y-54800819D02*
X195786905Y-54800819D01*
X195786905Y-54800819D02*
X195739286Y-55277009D01*
X195739286Y-55277009D02*
X195786905Y-55229390D01*
X195786905Y-55229390D02*
X195882143Y-55181771D01*
X195882143Y-55181771D02*
X196120238Y-55181771D01*
X196120238Y-55181771D02*
X196215476Y-55229390D01*
X196215476Y-55229390D02*
X196263095Y-55277009D01*
X196263095Y-55277009D02*
X196310714Y-55372247D01*
X196310714Y-55372247D02*
X196310714Y-55610342D01*
X196310714Y-55610342D02*
X196263095Y-55705580D01*
X196263095Y-55705580D02*
X196215476Y-55753200D01*
X196215476Y-55753200D02*
X196120238Y-55800819D01*
X196120238Y-55800819D02*
X195882143Y-55800819D01*
X195882143Y-55800819D02*
X195786905Y-55753200D01*
X195786905Y-55753200D02*
X195739286Y-55705580D01*
X147488095Y-44454819D02*
X147488095Y-43454819D01*
X147488095Y-43931009D02*
X148059523Y-43931009D01*
X148059523Y-44454819D02*
X148059523Y-43454819D01*
X149059523Y-44454819D02*
X148488095Y-44454819D01*
X148773809Y-44454819D02*
X148773809Y-43454819D01*
X148773809Y-43454819D02*
X148678571Y-43597676D01*
X148678571Y-43597676D02*
X148583333Y-43692914D01*
X148583333Y-43692914D02*
X148488095Y-43740533D01*
X172658333Y-53384819D02*
X172325000Y-52908628D01*
X172086905Y-53384819D02*
X172086905Y-52384819D01*
X172086905Y-52384819D02*
X172467857Y-52384819D01*
X172467857Y-52384819D02*
X172563095Y-52432438D01*
X172563095Y-52432438D02*
X172610714Y-52480057D01*
X172610714Y-52480057D02*
X172658333Y-52575295D01*
X172658333Y-52575295D02*
X172658333Y-52718152D01*
X172658333Y-52718152D02*
X172610714Y-52813390D01*
X172610714Y-52813390D02*
X172563095Y-52861009D01*
X172563095Y-52861009D02*
X172467857Y-52908628D01*
X172467857Y-52908628D02*
X172086905Y-52908628D01*
X173039286Y-52480057D02*
X173086905Y-52432438D01*
X173086905Y-52432438D02*
X173182143Y-52384819D01*
X173182143Y-52384819D02*
X173420238Y-52384819D01*
X173420238Y-52384819D02*
X173515476Y-52432438D01*
X173515476Y-52432438D02*
X173563095Y-52480057D01*
X173563095Y-52480057D02*
X173610714Y-52575295D01*
X173610714Y-52575295D02*
X173610714Y-52670533D01*
X173610714Y-52670533D02*
X173563095Y-52813390D01*
X173563095Y-52813390D02*
X172991667Y-53384819D01*
X172991667Y-53384819D02*
X173610714Y-53384819D01*
X172658333Y-51634819D02*
X172325000Y-51158628D01*
X172086905Y-51634819D02*
X172086905Y-50634819D01*
X172086905Y-50634819D02*
X172467857Y-50634819D01*
X172467857Y-50634819D02*
X172563095Y-50682438D01*
X172563095Y-50682438D02*
X172610714Y-50730057D01*
X172610714Y-50730057D02*
X172658333Y-50825295D01*
X172658333Y-50825295D02*
X172658333Y-50968152D01*
X172658333Y-50968152D02*
X172610714Y-51063390D01*
X172610714Y-51063390D02*
X172563095Y-51111009D01*
X172563095Y-51111009D02*
X172467857Y-51158628D01*
X172467857Y-51158628D02*
X172086905Y-51158628D01*
X173610714Y-51634819D02*
X173039286Y-51634819D01*
X173325000Y-51634819D02*
X173325000Y-50634819D01*
X173325000Y-50634819D02*
X173229762Y-50777676D01*
X173229762Y-50777676D02*
X173134524Y-50872914D01*
X173134524Y-50872914D02*
X173039286Y-50920533D01*
X204281905Y-46254819D02*
X204281905Y-45254819D01*
X204281905Y-45254819D02*
X204520000Y-45254819D01*
X204520000Y-45254819D02*
X204662857Y-45302438D01*
X204662857Y-45302438D02*
X204758095Y-45397676D01*
X204758095Y-45397676D02*
X204805714Y-45492914D01*
X204805714Y-45492914D02*
X204853333Y-45683390D01*
X204853333Y-45683390D02*
X204853333Y-45826247D01*
X204853333Y-45826247D02*
X204805714Y-46016723D01*
X204805714Y-46016723D02*
X204758095Y-46111961D01*
X204758095Y-46111961D02*
X204662857Y-46207200D01*
X204662857Y-46207200D02*
X204520000Y-46254819D01*
X204520000Y-46254819D02*
X204281905Y-46254819D01*
X205186667Y-45254819D02*
X205805714Y-45254819D01*
X205805714Y-45254819D02*
X205472381Y-45635771D01*
X205472381Y-45635771D02*
X205615238Y-45635771D01*
X205615238Y-45635771D02*
X205710476Y-45683390D01*
X205710476Y-45683390D02*
X205758095Y-45731009D01*
X205758095Y-45731009D02*
X205805714Y-45826247D01*
X205805714Y-45826247D02*
X205805714Y-46064342D01*
X205805714Y-46064342D02*
X205758095Y-46159580D01*
X205758095Y-46159580D02*
X205710476Y-46207200D01*
X205710476Y-46207200D02*
X205615238Y-46254819D01*
X205615238Y-46254819D02*
X205329524Y-46254819D01*
X205329524Y-46254819D02*
X205234286Y-46207200D01*
X205234286Y-46207200D02*
X205186667Y-46159580D01*
X188357142Y-52179580D02*
X188309523Y-52227200D01*
X188309523Y-52227200D02*
X188166666Y-52274819D01*
X188166666Y-52274819D02*
X188071428Y-52274819D01*
X188071428Y-52274819D02*
X187928571Y-52227200D01*
X187928571Y-52227200D02*
X187833333Y-52131961D01*
X187833333Y-52131961D02*
X187785714Y-52036723D01*
X187785714Y-52036723D02*
X187738095Y-51846247D01*
X187738095Y-51846247D02*
X187738095Y-51703390D01*
X187738095Y-51703390D02*
X187785714Y-51512914D01*
X187785714Y-51512914D02*
X187833333Y-51417676D01*
X187833333Y-51417676D02*
X187928571Y-51322438D01*
X187928571Y-51322438D02*
X188071428Y-51274819D01*
X188071428Y-51274819D02*
X188166666Y-51274819D01*
X188166666Y-51274819D02*
X188309523Y-51322438D01*
X188309523Y-51322438D02*
X188357142Y-51370057D01*
X189309523Y-52274819D02*
X188738095Y-52274819D01*
X189023809Y-52274819D02*
X189023809Y-51274819D01*
X189023809Y-51274819D02*
X188928571Y-51417676D01*
X188928571Y-51417676D02*
X188833333Y-51512914D01*
X188833333Y-51512914D02*
X188738095Y-51560533D01*
X189928571Y-51274819D02*
X190023809Y-51274819D01*
X190023809Y-51274819D02*
X190119047Y-51322438D01*
X190119047Y-51322438D02*
X190166666Y-51370057D01*
X190166666Y-51370057D02*
X190214285Y-51465295D01*
X190214285Y-51465295D02*
X190261904Y-51655771D01*
X190261904Y-51655771D02*
X190261904Y-51893866D01*
X190261904Y-51893866D02*
X190214285Y-52084342D01*
X190214285Y-52084342D02*
X190166666Y-52179580D01*
X190166666Y-52179580D02*
X190119047Y-52227200D01*
X190119047Y-52227200D02*
X190023809Y-52274819D01*
X190023809Y-52274819D02*
X189928571Y-52274819D01*
X189928571Y-52274819D02*
X189833333Y-52227200D01*
X189833333Y-52227200D02*
X189785714Y-52179580D01*
X189785714Y-52179580D02*
X189738095Y-52084342D01*
X189738095Y-52084342D02*
X189690476Y-51893866D01*
X189690476Y-51893866D02*
X189690476Y-51655771D01*
X189690476Y-51655771D02*
X189738095Y-51465295D01*
X189738095Y-51465295D02*
X189785714Y-51370057D01*
X189785714Y-51370057D02*
X189833333Y-51322438D01*
X189833333Y-51322438D02*
X189928571Y-51274819D01*
X148967261Y-52000057D02*
X148872023Y-51952438D01*
X148872023Y-51952438D02*
X148776785Y-51857200D01*
X148776785Y-51857200D02*
X148633928Y-51714342D01*
X148633928Y-51714342D02*
X148538690Y-51666723D01*
X148538690Y-51666723D02*
X148443452Y-51666723D01*
X148491071Y-51904819D02*
X148395833Y-51857200D01*
X148395833Y-51857200D02*
X148300595Y-51761961D01*
X148300595Y-51761961D02*
X148252976Y-51571485D01*
X148252976Y-51571485D02*
X148252976Y-51238152D01*
X148252976Y-51238152D02*
X148300595Y-51047676D01*
X148300595Y-51047676D02*
X148395833Y-50952438D01*
X148395833Y-50952438D02*
X148491071Y-50904819D01*
X148491071Y-50904819D02*
X148681547Y-50904819D01*
X148681547Y-50904819D02*
X148776785Y-50952438D01*
X148776785Y-50952438D02*
X148872023Y-51047676D01*
X148872023Y-51047676D02*
X148919642Y-51238152D01*
X148919642Y-51238152D02*
X148919642Y-51571485D01*
X148919642Y-51571485D02*
X148872023Y-51761961D01*
X148872023Y-51761961D02*
X148776785Y-51857200D01*
X148776785Y-51857200D02*
X148681547Y-51904819D01*
X148681547Y-51904819D02*
X148491071Y-51904819D01*
X149872023Y-51904819D02*
X149300595Y-51904819D01*
X149586309Y-51904819D02*
X149586309Y-50904819D01*
X149586309Y-50904819D02*
X149491071Y-51047676D01*
X149491071Y-51047676D02*
X149395833Y-51142914D01*
X149395833Y-51142914D02*
X149300595Y-51190533D01*
X187454819Y-50392857D02*
X186978628Y-50726190D01*
X187454819Y-50964285D02*
X186454819Y-50964285D01*
X186454819Y-50964285D02*
X186454819Y-50583333D01*
X186454819Y-50583333D02*
X186502438Y-50488095D01*
X186502438Y-50488095D02*
X186550057Y-50440476D01*
X186550057Y-50440476D02*
X186645295Y-50392857D01*
X186645295Y-50392857D02*
X186788152Y-50392857D01*
X186788152Y-50392857D02*
X186883390Y-50440476D01*
X186883390Y-50440476D02*
X186931009Y-50488095D01*
X186931009Y-50488095D02*
X186978628Y-50583333D01*
X186978628Y-50583333D02*
X186978628Y-50964285D01*
X187454819Y-49440476D02*
X187454819Y-50011904D01*
X187454819Y-49726190D02*
X186454819Y-49726190D01*
X186454819Y-49726190D02*
X186597676Y-49821428D01*
X186597676Y-49821428D02*
X186692914Y-49916666D01*
X186692914Y-49916666D02*
X186740533Y-50011904D01*
X186454819Y-49107142D02*
X186454819Y-48488095D01*
X186454819Y-48488095D02*
X186835771Y-48821428D01*
X186835771Y-48821428D02*
X186835771Y-48678571D01*
X186835771Y-48678571D02*
X186883390Y-48583333D01*
X186883390Y-48583333D02*
X186931009Y-48535714D01*
X186931009Y-48535714D02*
X187026247Y-48488095D01*
X187026247Y-48488095D02*
X187264342Y-48488095D01*
X187264342Y-48488095D02*
X187359580Y-48535714D01*
X187359580Y-48535714D02*
X187407200Y-48583333D01*
X187407200Y-48583333D02*
X187454819Y-48678571D01*
X187454819Y-48678571D02*
X187454819Y-48964285D01*
X187454819Y-48964285D02*
X187407200Y-49059523D01*
X187407200Y-49059523D02*
X187359580Y-49107142D01*
X181403023Y-47765439D02*
X181069690Y-47289248D01*
X180831595Y-47765439D02*
X180831595Y-46765439D01*
X180831595Y-46765439D02*
X181212547Y-46765439D01*
X181212547Y-46765439D02*
X181307785Y-46813058D01*
X181307785Y-46813058D02*
X181355404Y-46860677D01*
X181355404Y-46860677D02*
X181403023Y-46955915D01*
X181403023Y-46955915D02*
X181403023Y-47098772D01*
X181403023Y-47098772D02*
X181355404Y-47194010D01*
X181355404Y-47194010D02*
X181307785Y-47241629D01*
X181307785Y-47241629D02*
X181212547Y-47289248D01*
X181212547Y-47289248D02*
X180831595Y-47289248D01*
X181736357Y-46765439D02*
X182355404Y-46765439D01*
X182355404Y-46765439D02*
X182022071Y-47146391D01*
X182022071Y-47146391D02*
X182164928Y-47146391D01*
X182164928Y-47146391D02*
X182260166Y-47194010D01*
X182260166Y-47194010D02*
X182307785Y-47241629D01*
X182307785Y-47241629D02*
X182355404Y-47336867D01*
X182355404Y-47336867D02*
X182355404Y-47574962D01*
X182355404Y-47574962D02*
X182307785Y-47670200D01*
X182307785Y-47670200D02*
X182260166Y-47717820D01*
X182260166Y-47717820D02*
X182164928Y-47765439D01*
X182164928Y-47765439D02*
X181879214Y-47765439D01*
X181879214Y-47765439D02*
X181783976Y-47717820D01*
X181783976Y-47717820D02*
X181736357Y-47670200D01*
X166607142Y-47179580D02*
X166559523Y-47227200D01*
X166559523Y-47227200D02*
X166416666Y-47274819D01*
X166416666Y-47274819D02*
X166321428Y-47274819D01*
X166321428Y-47274819D02*
X166178571Y-47227200D01*
X166178571Y-47227200D02*
X166083333Y-47131961D01*
X166083333Y-47131961D02*
X166035714Y-47036723D01*
X166035714Y-47036723D02*
X165988095Y-46846247D01*
X165988095Y-46846247D02*
X165988095Y-46703390D01*
X165988095Y-46703390D02*
X166035714Y-46512914D01*
X166035714Y-46512914D02*
X166083333Y-46417676D01*
X166083333Y-46417676D02*
X166178571Y-46322438D01*
X166178571Y-46322438D02*
X166321428Y-46274819D01*
X166321428Y-46274819D02*
X166416666Y-46274819D01*
X166416666Y-46274819D02*
X166559523Y-46322438D01*
X166559523Y-46322438D02*
X166607142Y-46370057D01*
X167559523Y-47274819D02*
X166988095Y-47274819D01*
X167273809Y-47274819D02*
X167273809Y-46274819D01*
X167273809Y-46274819D02*
X167178571Y-46417676D01*
X167178571Y-46417676D02*
X167083333Y-46512914D01*
X167083333Y-46512914D02*
X166988095Y-46560533D01*
X168416666Y-46608152D02*
X168416666Y-47274819D01*
X168178571Y-46227200D02*
X167940476Y-46941485D01*
X167940476Y-46941485D02*
X168559523Y-46941485D01*
X216988095Y-42954819D02*
X216988095Y-41954819D01*
X216988095Y-42431009D02*
X217559523Y-42431009D01*
X217559523Y-42954819D02*
X217559523Y-41954819D01*
X218464285Y-42288152D02*
X218464285Y-42954819D01*
X218226190Y-41907200D02*
X217988095Y-42621485D01*
X217988095Y-42621485D02*
X218607142Y-42621485D01*
X172679580Y-59917857D02*
X172727200Y-59965476D01*
X172727200Y-59965476D02*
X172774819Y-60108333D01*
X172774819Y-60108333D02*
X172774819Y-60203571D01*
X172774819Y-60203571D02*
X172727200Y-60346428D01*
X172727200Y-60346428D02*
X172631961Y-60441666D01*
X172631961Y-60441666D02*
X172536723Y-60489285D01*
X172536723Y-60489285D02*
X172346247Y-60536904D01*
X172346247Y-60536904D02*
X172203390Y-60536904D01*
X172203390Y-60536904D02*
X172012914Y-60489285D01*
X172012914Y-60489285D02*
X171917676Y-60441666D01*
X171917676Y-60441666D02*
X171822438Y-60346428D01*
X171822438Y-60346428D02*
X171774819Y-60203571D01*
X171774819Y-60203571D02*
X171774819Y-60108333D01*
X171774819Y-60108333D02*
X171822438Y-59965476D01*
X171822438Y-59965476D02*
X171870057Y-59917857D01*
X172774819Y-58965476D02*
X172774819Y-59536904D01*
X172774819Y-59251190D02*
X171774819Y-59251190D01*
X171774819Y-59251190D02*
X171917676Y-59346428D01*
X171917676Y-59346428D02*
X172012914Y-59441666D01*
X172012914Y-59441666D02*
X172060533Y-59536904D01*
X171774819Y-58632142D02*
X171774819Y-58013095D01*
X171774819Y-58013095D02*
X172155771Y-58346428D01*
X172155771Y-58346428D02*
X172155771Y-58203571D01*
X172155771Y-58203571D02*
X172203390Y-58108333D01*
X172203390Y-58108333D02*
X172251009Y-58060714D01*
X172251009Y-58060714D02*
X172346247Y-58013095D01*
X172346247Y-58013095D02*
X172584342Y-58013095D01*
X172584342Y-58013095D02*
X172679580Y-58060714D01*
X172679580Y-58060714D02*
X172727200Y-58108333D01*
X172727200Y-58108333D02*
X172774819Y-58203571D01*
X172774819Y-58203571D02*
X172774819Y-58489285D01*
X172774819Y-58489285D02*
X172727200Y-58584523D01*
X172727200Y-58584523D02*
X172679580Y-58632142D01*
X188858333Y-50429580D02*
X188810714Y-50477200D01*
X188810714Y-50477200D02*
X188667857Y-50524819D01*
X188667857Y-50524819D02*
X188572619Y-50524819D01*
X188572619Y-50524819D02*
X188429762Y-50477200D01*
X188429762Y-50477200D02*
X188334524Y-50381961D01*
X188334524Y-50381961D02*
X188286905Y-50286723D01*
X188286905Y-50286723D02*
X188239286Y-50096247D01*
X188239286Y-50096247D02*
X188239286Y-49953390D01*
X188239286Y-49953390D02*
X188286905Y-49762914D01*
X188286905Y-49762914D02*
X188334524Y-49667676D01*
X188334524Y-49667676D02*
X188429762Y-49572438D01*
X188429762Y-49572438D02*
X188572619Y-49524819D01*
X188572619Y-49524819D02*
X188667857Y-49524819D01*
X188667857Y-49524819D02*
X188810714Y-49572438D01*
X188810714Y-49572438D02*
X188858333Y-49620057D01*
X189334524Y-50524819D02*
X189525000Y-50524819D01*
X189525000Y-50524819D02*
X189620238Y-50477200D01*
X189620238Y-50477200D02*
X189667857Y-50429580D01*
X189667857Y-50429580D02*
X189763095Y-50286723D01*
X189763095Y-50286723D02*
X189810714Y-50096247D01*
X189810714Y-50096247D02*
X189810714Y-49715295D01*
X189810714Y-49715295D02*
X189763095Y-49620057D01*
X189763095Y-49620057D02*
X189715476Y-49572438D01*
X189715476Y-49572438D02*
X189620238Y-49524819D01*
X189620238Y-49524819D02*
X189429762Y-49524819D01*
X189429762Y-49524819D02*
X189334524Y-49572438D01*
X189334524Y-49572438D02*
X189286905Y-49620057D01*
X189286905Y-49620057D02*
X189239286Y-49715295D01*
X189239286Y-49715295D02*
X189239286Y-49953390D01*
X189239286Y-49953390D02*
X189286905Y-50048628D01*
X189286905Y-50048628D02*
X189334524Y-50096247D01*
X189334524Y-50096247D02*
X189429762Y-50143866D01*
X189429762Y-50143866D02*
X189620238Y-50143866D01*
X189620238Y-50143866D02*
X189715476Y-50096247D01*
X189715476Y-50096247D02*
X189763095Y-50048628D01*
X189763095Y-50048628D02*
X189810714Y-49953390D01*
X197761715Y-49692180D02*
X197761715Y-48882657D01*
X197761715Y-48882657D02*
X197714096Y-48787419D01*
X197714096Y-48787419D02*
X197666477Y-48739800D01*
X197666477Y-48739800D02*
X197571239Y-48692180D01*
X197571239Y-48692180D02*
X197380763Y-48692180D01*
X197380763Y-48692180D02*
X197285525Y-48739800D01*
X197285525Y-48739800D02*
X197237906Y-48787419D01*
X197237906Y-48787419D02*
X197190287Y-48882657D01*
X197190287Y-48882657D02*
X197190287Y-49692180D01*
X196237906Y-49692180D02*
X196714096Y-49692180D01*
X196714096Y-49692180D02*
X196761715Y-49215990D01*
X196761715Y-49215990D02*
X196714096Y-49263609D01*
X196714096Y-49263609D02*
X196618858Y-49311228D01*
X196618858Y-49311228D02*
X196380763Y-49311228D01*
X196380763Y-49311228D02*
X196285525Y-49263609D01*
X196285525Y-49263609D02*
X196237906Y-49215990D01*
X196237906Y-49215990D02*
X196190287Y-49120752D01*
X196190287Y-49120752D02*
X196190287Y-48882657D01*
X196190287Y-48882657D02*
X196237906Y-48787419D01*
X196237906Y-48787419D02*
X196285525Y-48739800D01*
X196285525Y-48739800D02*
X196380763Y-48692180D01*
X196380763Y-48692180D02*
X196618858Y-48692180D01*
X196618858Y-48692180D02*
X196714096Y-48739800D01*
X196714096Y-48739800D02*
X196761715Y-48787419D01*
X199438210Y-51073432D02*
X199438210Y-50835337D01*
X199676305Y-50930575D02*
X199438210Y-50835337D01*
X199438210Y-50835337D02*
X199200115Y-50930575D01*
X199581067Y-50644861D02*
X199438210Y-50835337D01*
X199438210Y-50835337D02*
X199295353Y-50644861D01*
X199438211Y-49983071D02*
X199438211Y-50221166D01*
X199200116Y-50125928D02*
X199438211Y-50221166D01*
X199438211Y-50221166D02*
X199676306Y-50125928D01*
X199295354Y-50411642D02*
X199438211Y-50221166D01*
X199438211Y-50221166D02*
X199581068Y-50411642D01*
X161083333Y-46704819D02*
X160750000Y-46228628D01*
X160511905Y-46704819D02*
X160511905Y-45704819D01*
X160511905Y-45704819D02*
X160892857Y-45704819D01*
X160892857Y-45704819D02*
X160988095Y-45752438D01*
X160988095Y-45752438D02*
X161035714Y-45800057D01*
X161035714Y-45800057D02*
X161083333Y-45895295D01*
X161083333Y-45895295D02*
X161083333Y-46038152D01*
X161083333Y-46038152D02*
X161035714Y-46133390D01*
X161035714Y-46133390D02*
X160988095Y-46181009D01*
X160988095Y-46181009D02*
X160892857Y-46228628D01*
X160892857Y-46228628D02*
X160511905Y-46228628D01*
X161559524Y-46704819D02*
X161750000Y-46704819D01*
X161750000Y-46704819D02*
X161845238Y-46657200D01*
X161845238Y-46657200D02*
X161892857Y-46609580D01*
X161892857Y-46609580D02*
X161988095Y-46466723D01*
X161988095Y-46466723D02*
X162035714Y-46276247D01*
X162035714Y-46276247D02*
X162035714Y-45895295D01*
X162035714Y-45895295D02*
X161988095Y-45800057D01*
X161988095Y-45800057D02*
X161940476Y-45752438D01*
X161940476Y-45752438D02*
X161845238Y-45704819D01*
X161845238Y-45704819D02*
X161654762Y-45704819D01*
X161654762Y-45704819D02*
X161559524Y-45752438D01*
X161559524Y-45752438D02*
X161511905Y-45800057D01*
X161511905Y-45800057D02*
X161464286Y-45895295D01*
X161464286Y-45895295D02*
X161464286Y-46133390D01*
X161464286Y-46133390D02*
X161511905Y-46228628D01*
X161511905Y-46228628D02*
X161559524Y-46276247D01*
X161559524Y-46276247D02*
X161654762Y-46323866D01*
X161654762Y-46323866D02*
X161845238Y-46323866D01*
X161845238Y-46323866D02*
X161940476Y-46276247D01*
X161940476Y-46276247D02*
X161988095Y-46228628D01*
X161988095Y-46228628D02*
X162035714Y-46133390D01*
X213166666Y-46204819D02*
X213166666Y-46919104D01*
X213166666Y-46919104D02*
X213119047Y-47061961D01*
X213119047Y-47061961D02*
X213023809Y-47157200D01*
X213023809Y-47157200D02*
X212880952Y-47204819D01*
X212880952Y-47204819D02*
X212785714Y-47204819D01*
X214071428Y-46538152D02*
X214071428Y-47204819D01*
X213833333Y-46157200D02*
X213595238Y-46871485D01*
X213595238Y-46871485D02*
X214214285Y-46871485D01*
X212359819Y-44611094D02*
X211359819Y-44611094D01*
X211359819Y-44611094D02*
X211359819Y-44372999D01*
X211359819Y-44372999D02*
X211407438Y-44230142D01*
X211407438Y-44230142D02*
X211502676Y-44134904D01*
X211502676Y-44134904D02*
X211597914Y-44087285D01*
X211597914Y-44087285D02*
X211788390Y-44039666D01*
X211788390Y-44039666D02*
X211931247Y-44039666D01*
X211931247Y-44039666D02*
X212121723Y-44087285D01*
X212121723Y-44087285D02*
X212216961Y-44134904D01*
X212216961Y-44134904D02*
X212312200Y-44230142D01*
X212312200Y-44230142D02*
X212359819Y-44372999D01*
X212359819Y-44372999D02*
X212359819Y-44611094D01*
X211455057Y-43658713D02*
X211407438Y-43611094D01*
X211407438Y-43611094D02*
X211359819Y-43515856D01*
X211359819Y-43515856D02*
X211359819Y-43277761D01*
X211359819Y-43277761D02*
X211407438Y-43182523D01*
X211407438Y-43182523D02*
X211455057Y-43134904D01*
X211455057Y-43134904D02*
X211550295Y-43087285D01*
X211550295Y-43087285D02*
X211645533Y-43087285D01*
X211645533Y-43087285D02*
X211788390Y-43134904D01*
X211788390Y-43134904D02*
X212359819Y-43706332D01*
X212359819Y-43706332D02*
X212359819Y-43087285D01*
X194738096Y-57667419D02*
X194738096Y-58476942D01*
X194738096Y-58476942D02*
X194785715Y-58572180D01*
X194785715Y-58572180D02*
X194833334Y-58619800D01*
X194833334Y-58619800D02*
X194928572Y-58667419D01*
X194928572Y-58667419D02*
X195119048Y-58667419D01*
X195119048Y-58667419D02*
X195214286Y-58619800D01*
X195214286Y-58619800D02*
X195261905Y-58572180D01*
X195261905Y-58572180D02*
X195309524Y-58476942D01*
X195309524Y-58476942D02*
X195309524Y-57667419D01*
X196214286Y-58000752D02*
X196214286Y-58667419D01*
X195976191Y-57619800D02*
X195738096Y-58334085D01*
X195738096Y-58334085D02*
X196357143Y-58334085D01*
X193785501Y-57417419D02*
X193785501Y-57655514D01*
X193547406Y-57560276D02*
X193785501Y-57655514D01*
X193785501Y-57655514D02*
X194023596Y-57560276D01*
X193642644Y-57845990D02*
X193785501Y-57655514D01*
X193785501Y-57655514D02*
X193928358Y-57845990D01*
X193785501Y-57417419D02*
X193785501Y-57655514D01*
X193547406Y-57560276D02*
X193785501Y-57655514D01*
X193785501Y-57655514D02*
X194023596Y-57560276D01*
X193642644Y-57845990D02*
X193785501Y-57655514D01*
X193785501Y-57655514D02*
X193928358Y-57845990D01*
X216359819Y-41611094D02*
X215359819Y-41611094D01*
X215359819Y-41611094D02*
X215359819Y-41372999D01*
X215359819Y-41372999D02*
X215407438Y-41230142D01*
X215407438Y-41230142D02*
X215502676Y-41134904D01*
X215502676Y-41134904D02*
X215597914Y-41087285D01*
X215597914Y-41087285D02*
X215788390Y-41039666D01*
X215788390Y-41039666D02*
X215931247Y-41039666D01*
X215931247Y-41039666D02*
X216121723Y-41087285D01*
X216121723Y-41087285D02*
X216216961Y-41134904D01*
X216216961Y-41134904D02*
X216312200Y-41230142D01*
X216312200Y-41230142D02*
X216359819Y-41372999D01*
X216359819Y-41372999D02*
X216359819Y-41611094D01*
X215359819Y-40134904D02*
X215359819Y-40611094D01*
X215359819Y-40611094D02*
X215836009Y-40658713D01*
X215836009Y-40658713D02*
X215788390Y-40611094D01*
X215788390Y-40611094D02*
X215740771Y-40515856D01*
X215740771Y-40515856D02*
X215740771Y-40277761D01*
X215740771Y-40277761D02*
X215788390Y-40182523D01*
X215788390Y-40182523D02*
X215836009Y-40134904D01*
X215836009Y-40134904D02*
X215931247Y-40087285D01*
X215931247Y-40087285D02*
X216169342Y-40087285D01*
X216169342Y-40087285D02*
X216264580Y-40134904D01*
X216264580Y-40134904D02*
X216312200Y-40182523D01*
X216312200Y-40182523D02*
X216359819Y-40277761D01*
X216359819Y-40277761D02*
X216359819Y-40515856D01*
X216359819Y-40515856D02*
X216312200Y-40611094D01*
X216312200Y-40611094D02*
X216264580Y-40658713D01*
X200758333Y-46274819D02*
X200425000Y-45798628D01*
X200186905Y-46274819D02*
X200186905Y-45274819D01*
X200186905Y-45274819D02*
X200567857Y-45274819D01*
X200567857Y-45274819D02*
X200663095Y-45322438D01*
X200663095Y-45322438D02*
X200710714Y-45370057D01*
X200710714Y-45370057D02*
X200758333Y-45465295D01*
X200758333Y-45465295D02*
X200758333Y-45608152D01*
X200758333Y-45608152D02*
X200710714Y-45703390D01*
X200710714Y-45703390D02*
X200663095Y-45751009D01*
X200663095Y-45751009D02*
X200567857Y-45798628D01*
X200567857Y-45798628D02*
X200186905Y-45798628D01*
X201663095Y-45274819D02*
X201186905Y-45274819D01*
X201186905Y-45274819D02*
X201139286Y-45751009D01*
X201139286Y-45751009D02*
X201186905Y-45703390D01*
X201186905Y-45703390D02*
X201282143Y-45655771D01*
X201282143Y-45655771D02*
X201520238Y-45655771D01*
X201520238Y-45655771D02*
X201615476Y-45703390D01*
X201615476Y-45703390D02*
X201663095Y-45751009D01*
X201663095Y-45751009D02*
X201710714Y-45846247D01*
X201710714Y-45846247D02*
X201710714Y-46084342D01*
X201710714Y-46084342D02*
X201663095Y-46179580D01*
X201663095Y-46179580D02*
X201615476Y-46227200D01*
X201615476Y-46227200D02*
X201520238Y-46274819D01*
X201520238Y-46274819D02*
X201282143Y-46274819D01*
X201282143Y-46274819D02*
X201186905Y-46227200D01*
X201186905Y-46227200D02*
X201139286Y-46179580D01*
X200758333Y-49774819D02*
X200425000Y-49298628D01*
X200186905Y-49774819D02*
X200186905Y-48774819D01*
X200186905Y-48774819D02*
X200567857Y-48774819D01*
X200567857Y-48774819D02*
X200663095Y-48822438D01*
X200663095Y-48822438D02*
X200710714Y-48870057D01*
X200710714Y-48870057D02*
X200758333Y-48965295D01*
X200758333Y-48965295D02*
X200758333Y-49108152D01*
X200758333Y-49108152D02*
X200710714Y-49203390D01*
X200710714Y-49203390D02*
X200663095Y-49251009D01*
X200663095Y-49251009D02*
X200567857Y-49298628D01*
X200567857Y-49298628D02*
X200186905Y-49298628D01*
X201091667Y-48774819D02*
X201758333Y-48774819D01*
X201758333Y-48774819D02*
X201329762Y-49774819D01*
X203436666Y-48550812D02*
X203436666Y-49265097D01*
X203436666Y-49265097D02*
X203389047Y-49407954D01*
X203389047Y-49407954D02*
X203293809Y-49503193D01*
X203293809Y-49503193D02*
X203150952Y-49550812D01*
X203150952Y-49550812D02*
X203055714Y-49550812D01*
X203865238Y-48646050D02*
X203912857Y-48598431D01*
X203912857Y-48598431D02*
X204008095Y-48550812D01*
X204008095Y-48550812D02*
X204246190Y-48550812D01*
X204246190Y-48550812D02*
X204341428Y-48598431D01*
X204341428Y-48598431D02*
X204389047Y-48646050D01*
X204389047Y-48646050D02*
X204436666Y-48741288D01*
X204436666Y-48741288D02*
X204436666Y-48836526D01*
X204436666Y-48836526D02*
X204389047Y-48979383D01*
X204389047Y-48979383D02*
X203817619Y-49550812D01*
X203817619Y-49550812D02*
X204436666Y-49550812D01*
X202488095Y-56204819D02*
X202488095Y-57014342D01*
X202488095Y-57014342D02*
X202535714Y-57109580D01*
X202535714Y-57109580D02*
X202583333Y-57157200D01*
X202583333Y-57157200D02*
X202678571Y-57204819D01*
X202678571Y-57204819D02*
X202869047Y-57204819D01*
X202869047Y-57204819D02*
X202964285Y-57157200D01*
X202964285Y-57157200D02*
X203011904Y-57109580D01*
X203011904Y-57109580D02*
X203059523Y-57014342D01*
X203059523Y-57014342D02*
X203059523Y-56204819D01*
X203440476Y-56204819D02*
X204059523Y-56204819D01*
X204059523Y-56204819D02*
X203726190Y-56585771D01*
X203726190Y-56585771D02*
X203869047Y-56585771D01*
X203869047Y-56585771D02*
X203964285Y-56633390D01*
X203964285Y-56633390D02*
X204011904Y-56681009D01*
X204011904Y-56681009D02*
X204059523Y-56776247D01*
X204059523Y-56776247D02*
X204059523Y-57014342D01*
X204059523Y-57014342D02*
X204011904Y-57109580D01*
X204011904Y-57109580D02*
X203964285Y-57157200D01*
X203964285Y-57157200D02*
X203869047Y-57204819D01*
X203869047Y-57204819D02*
X203583333Y-57204819D01*
X203583333Y-57204819D02*
X203488095Y-57157200D01*
X203488095Y-57157200D02*
X203440476Y-57109580D01*
X200271850Y-52598019D02*
X200271850Y-52836114D01*
X200033755Y-52740876D02*
X200271850Y-52836114D01*
X200271850Y-52836114D02*
X200509945Y-52740876D01*
X200128993Y-53026590D02*
X200271850Y-52836114D01*
X200271850Y-52836114D02*
X200414707Y-53026590D01*
X200271850Y-52598019D02*
X200271850Y-52836114D01*
X200033755Y-52740876D02*
X200271850Y-52836114D01*
X200271850Y-52836114D02*
X200509945Y-52740876D01*
X200128993Y-53026590D02*
X200271850Y-52836114D01*
X200271850Y-52836114D02*
X200414707Y-53026590D01*
X155432142Y-46819819D02*
X154955952Y-46819819D01*
X154955952Y-46819819D02*
X154955952Y-45819819D01*
X155717857Y-46772200D02*
X155860714Y-46819819D01*
X155860714Y-46819819D02*
X156098809Y-46819819D01*
X156098809Y-46819819D02*
X156194047Y-46772200D01*
X156194047Y-46772200D02*
X156241666Y-46724580D01*
X156241666Y-46724580D02*
X156289285Y-46629342D01*
X156289285Y-46629342D02*
X156289285Y-46534104D01*
X156289285Y-46534104D02*
X156241666Y-46438866D01*
X156241666Y-46438866D02*
X156194047Y-46391247D01*
X156194047Y-46391247D02*
X156098809Y-46343628D01*
X156098809Y-46343628D02*
X155908333Y-46296009D01*
X155908333Y-46296009D02*
X155813095Y-46248390D01*
X155813095Y-46248390D02*
X155765476Y-46200771D01*
X155765476Y-46200771D02*
X155717857Y-46105533D01*
X155717857Y-46105533D02*
X155717857Y-46010295D01*
X155717857Y-46010295D02*
X155765476Y-45915057D01*
X155765476Y-45915057D02*
X155813095Y-45867438D01*
X155813095Y-45867438D02*
X155908333Y-45819819D01*
X155908333Y-45819819D02*
X156146428Y-45819819D01*
X156146428Y-45819819D02*
X156289285Y-45867438D01*
X157241666Y-46819819D02*
X156670238Y-46819819D01*
X156955952Y-46819819D02*
X156955952Y-45819819D01*
X156955952Y-45819819D02*
X156860714Y-45962676D01*
X156860714Y-45962676D02*
X156765476Y-46057914D01*
X156765476Y-46057914D02*
X156670238Y-46105533D01*
D12*
%TO.C,R18*%
X208937742Y-53227500D02*
X209412258Y-53227500D01*
X208937742Y-54272500D02*
X209412258Y-54272500D01*
%TO.C,C3*%
X207490000Y-50584420D02*
X207490000Y-50865580D01*
X208510000Y-50584420D02*
X208510000Y-50865580D01*
D13*
%TO.C,U1*%
X165650000Y-49600000D02*
X165650000Y-53400000D01*
X165650000Y-53400000D02*
X170850000Y-53400000D01*
X170850000Y-49600000D02*
X165650000Y-49600000D01*
X170850000Y-53400000D02*
X170850000Y-49600000D01*
D14*
X166150000Y-49200000D02*
G75*
G02*
X165950000Y-49200000I-100000J0D01*
G01*
X165950000Y-49200000D02*
G75*
G02*
X166150000Y-49200000I100000J0D01*
G01*
D12*
%TO.C,R17*%
X192477500Y-59512742D02*
X192477500Y-59987258D01*
X193522500Y-59512742D02*
X193522500Y-59987258D01*
D15*
%TO.C,D4*%
X182800000Y-49640000D02*
G75*
G02*
X182700000Y-49640000I-50000J0D01*
G01*
X182700000Y-49640000D02*
G75*
G02*
X182800000Y-49640000I50000J0D01*
G01*
D13*
%TO.C,J3*%
X151250000Y-38450000D02*
X151250000Y-45500000D01*
X151250000Y-38450000D02*
X158250000Y-38450000D01*
X151250000Y-45500000D02*
X158250000Y-45500000D01*
X158250000Y-38450000D02*
X158250000Y-45500000D01*
D16*
X150600000Y-41500000D02*
G75*
G02*
X150400000Y-41500000I-100000J0D01*
G01*
X150400000Y-41500000D02*
G75*
G02*
X150600000Y-41500000I100000J0D01*
G01*
D12*
%TO.C,R11*%
X161012742Y-42977500D02*
X161487258Y-42977500D01*
X161012742Y-44022500D02*
X161487258Y-44022500D01*
%TO.C,R12*%
X161412258Y-41227500D02*
X160937742Y-41227500D01*
X161412258Y-42272500D02*
X160937742Y-42272500D01*
%TO.C,R8*%
X193162258Y-48477500D02*
X192687742Y-48477500D01*
X193162258Y-49522500D02*
X192687742Y-49522500D01*
D17*
%TO.C,U2*%
X209344300Y-38844300D02*
X209344300Y-39381220D01*
X209344300Y-40618780D02*
X209344300Y-41155700D01*
X209344300Y-41155700D02*
X209631220Y-41155700D01*
X209631220Y-38844300D02*
X209344300Y-38844300D01*
X211368780Y-41155700D02*
X211655700Y-41155700D01*
X211655700Y-38844300D02*
X211368780Y-38844300D01*
X211655700Y-39381220D02*
X211655700Y-38844300D01*
X211655700Y-41155700D02*
X211655700Y-40618780D01*
D18*
G36*
X210190501Y-38818900D02*
G01*
X209809501Y-38818900D01*
X209809501Y-38564900D01*
X210190501Y-38564900D01*
X210190501Y-38818900D01*
G37*
D12*
%TO.C,R14*%
X171162258Y-54227500D02*
X170687742Y-54227500D01*
X171162258Y-55272500D02*
X170687742Y-55272500D01*
%TO.C,C4*%
X209490000Y-50584420D02*
X209490000Y-50865580D01*
X210510000Y-50584420D02*
X210510000Y-50865580D01*
%TO.C,R10*%
X170562258Y-45227500D02*
X170087742Y-45227500D01*
X170562258Y-46272500D02*
X170087742Y-46272500D01*
D13*
%TO.C,Y2*%
X168520000Y-59500000D02*
X169480000Y-59500000D01*
X169480000Y-62000000D02*
X168520000Y-62000000D01*
D16*
X167800000Y-62750000D02*
G75*
G02*
X167600000Y-62750000I-100000J0D01*
G01*
X167600000Y-62750000D02*
G75*
G02*
X167800000Y-62750000I100000J0D01*
G01*
D12*
%TO.C,C12*%
X174990000Y-59415580D02*
X174990000Y-59134420D01*
X176010000Y-59415580D02*
X176010000Y-59134420D01*
%TO.C,C7*%
X194365580Y-52516000D02*
X194084420Y-52516000D01*
X194365580Y-53536000D02*
X194084420Y-53536000D01*
D16*
%TO.C,J1*%
X173225000Y-39000000D02*
X192275000Y-39000000D01*
X173225000Y-44400000D02*
X173225000Y-39000000D01*
D15*
X188465000Y-47500000D02*
X188465000Y-47500000D01*
X188465000Y-47600000D02*
X188465000Y-47600000D01*
D16*
X192275000Y-39000000D02*
X192275000Y-44400000D01*
X192275000Y-44400000D02*
X173225000Y-44400000D01*
D15*
X188465000Y-47500000D02*
G75*
G02*
X188465000Y-47600000I0J-50000D01*
G01*
X188465000Y-47600000D02*
G75*
G02*
X188465000Y-47500000I0J50000D01*
G01*
D17*
%TO.C,U7*%
X178367800Y-52867800D02*
X178367800Y-53113261D01*
X178367800Y-59886739D02*
X178367800Y-60132200D01*
X178367800Y-60132200D02*
X178613261Y-60132200D01*
X178613261Y-52867800D02*
X178367800Y-52867800D01*
X185386739Y-60132200D02*
X185632200Y-60132200D01*
X185632200Y-52867800D02*
X185386739Y-52867800D01*
X185632200Y-53113261D02*
X185632200Y-52867800D01*
X185632200Y-60132200D02*
X185632200Y-59886739D01*
D18*
G36*
X176894600Y-57890500D02*
G01*
X176640600Y-57890500D01*
X176640600Y-57509500D01*
X176894600Y-57509500D01*
X176894600Y-57890500D01*
G37*
G36*
X182590499Y-51394600D02*
G01*
X182209499Y-51394600D01*
X182209499Y-51140600D01*
X182590499Y-51140600D01*
X182590499Y-51394600D01*
G37*
G36*
X187359400Y-58690501D02*
G01*
X187105400Y-58690501D01*
X187105400Y-58309501D01*
X187359400Y-58309501D01*
X187359400Y-58690501D01*
G37*
D12*
%TO.C,U6*%
X166930000Y-40305000D02*
X166130000Y-40305000D01*
X166930000Y-40305000D02*
X167730000Y-40305000D01*
X166930000Y-43425000D02*
X166130000Y-43425000D01*
X166930000Y-43425000D02*
X167730000Y-43425000D01*
X165630000Y-40355000D02*
X165390000Y-40025000D01*
X165870000Y-40025000D01*
X165630000Y-40355000D01*
G36*
X165630000Y-40355000D02*
G01*
X165390000Y-40025000D01*
X165870000Y-40025000D01*
X165630000Y-40355000D01*
G37*
%TO.C,C8*%
X197640580Y-52516000D02*
X197359420Y-52516000D01*
X197640580Y-53536000D02*
X197359420Y-53536000D01*
%TO.C,R6*%
X201162258Y-48477500D02*
X200687742Y-48477500D01*
X201162258Y-49522500D02*
X200687742Y-49522500D01*
%TO.C,C2*%
X167865580Y-54240000D02*
X167584420Y-54240000D01*
X167865580Y-55260000D02*
X167584420Y-55260000D01*
%TO.C,C1*%
X163740000Y-50859420D02*
X163740000Y-51140580D01*
X164760000Y-50859420D02*
X164760000Y-51140580D01*
%TO.C,C6*%
X192490000Y-56359420D02*
X192490000Y-56640580D01*
X193510000Y-56359420D02*
X193510000Y-56640580D01*
%TO.C,C11*%
X188884420Y-49240000D02*
X189165580Y-49240000D01*
X188884420Y-50260000D02*
X189165580Y-50260000D01*
%TO.C,R15*%
X164727500Y-55662258D02*
X164727500Y-55187742D01*
X165772500Y-55662258D02*
X165772500Y-55187742D01*
%TO.C,D1*%
X207950000Y-48485000D02*
X210235000Y-48485000D01*
X210235000Y-47015000D02*
X207950000Y-47015000D01*
X210235000Y-48485000D02*
X210235000Y-47015000D01*
%TO.C,R4*%
X184982169Y-48218120D02*
X184507653Y-48218120D01*
X184982169Y-49263120D02*
X184507653Y-49263120D01*
%TO.C,R16*%
X195512742Y-59977500D02*
X195987258Y-59977500D01*
X195512742Y-61022500D02*
X195987258Y-61022500D01*
%TO.C,C5*%
X195384420Y-55490000D02*
X195665580Y-55490000D01*
X195384420Y-56510000D02*
X195665580Y-56510000D01*
%TO.C,R2*%
X173062258Y-50977500D02*
X172587742Y-50977500D01*
X173062258Y-52022500D02*
X172587742Y-52022500D01*
%TO.C,R1*%
X173062258Y-49227500D02*
X172587742Y-49227500D01*
X173062258Y-50272500D02*
X172587742Y-50272500D01*
%TO.C,D3*%
X204350000Y-50060000D02*
X205650000Y-50060000D01*
X205650000Y-46940000D02*
X204380000Y-46940000D01*
X204000000Y-46990000D02*
X203760000Y-46660000D01*
X204240000Y-46660000D01*
X204000000Y-46990000D01*
G36*
X204000000Y-46990000D02*
G01*
X203760000Y-46660000D01*
X204240000Y-46660000D01*
X204000000Y-46990000D01*
G37*
%TO.C,C10*%
X188859420Y-52740000D02*
X189140580Y-52740000D01*
X188859420Y-53760000D02*
X189140580Y-53760000D01*
%TO.C,Q1*%
X149062500Y-47490000D02*
X148412500Y-47490000D01*
X149062500Y-47490000D02*
X149712500Y-47490000D01*
X149062500Y-50610000D02*
X148412500Y-50610000D01*
X149062500Y-50610000D02*
X149712500Y-50610000D01*
X150465000Y-50890000D02*
X149985000Y-50890000D01*
X150225000Y-50560000D01*
X150465000Y-50890000D01*
G36*
X150465000Y-50890000D02*
G01*
X149985000Y-50890000D01*
X150225000Y-50560000D01*
X150465000Y-50890000D01*
G37*
%TO.C,R13*%
X184837742Y-49977500D02*
X185312258Y-49977500D01*
X184837742Y-51022500D02*
X185312258Y-51022500D01*
%TO.C,R3*%
X181332432Y-48218120D02*
X181806948Y-48218120D01*
X181332432Y-49263120D02*
X181806948Y-49263120D01*
%TO.C,C14*%
X167109420Y-47740000D02*
X167390580Y-47740000D01*
X167109420Y-48760000D02*
X167390580Y-48760000D01*
%TO.C,C13*%
X173240000Y-59415580D02*
X173240000Y-59134420D01*
X174260000Y-59415580D02*
X174260000Y-59134420D01*
%TO.C,C9*%
X188884420Y-50990000D02*
X189165580Y-50990000D01*
X188884420Y-52010000D02*
X189165580Y-52010000D01*
D18*
%TO.C,U5*%
G36*
X194942411Y-49087437D02*
G01*
X194688411Y-49087437D01*
X194688411Y-48706437D01*
X194942411Y-48706437D01*
X194942411Y-49087437D01*
G37*
D12*
%TO.C,R9*%
X161412258Y-39477500D02*
X160937742Y-39477500D01*
X161412258Y-40522500D02*
X160937742Y-40522500D01*
D13*
%TO.C,J4*%
X211577500Y-57312500D02*
X211577500Y-47912500D01*
X219497500Y-47912500D02*
X211577500Y-47912500D01*
X219497500Y-47912500D02*
X219497500Y-57312500D01*
X219497500Y-57312500D02*
X211577500Y-57312500D01*
D16*
X211027500Y-44712500D02*
G75*
G02*
X210827500Y-44712500I-100000J0D01*
G01*
X210827500Y-44712500D02*
G75*
G02*
X211027500Y-44712500I100000J0D01*
G01*
D12*
%TO.C,D2*%
X209000000Y-41790000D02*
X209000000Y-45650000D01*
X211000000Y-41790000D02*
X209000000Y-41790000D01*
X211000000Y-41790000D02*
X211000000Y-45650000D01*
D17*
%TO.C,U4*%
X194344301Y-57056900D02*
X194344301Y-57593820D01*
X194344301Y-58831380D02*
X194344301Y-59368300D01*
X194344301Y-59368300D02*
X194631221Y-59368300D01*
X194631221Y-57056900D02*
X194344301Y-57056900D01*
X196368781Y-59368300D02*
X196655701Y-59368300D01*
X196655701Y-57056900D02*
X196368781Y-57056900D01*
X196655701Y-57593820D02*
X196655701Y-57056900D01*
X196655701Y-59368300D02*
X196655701Y-58831380D01*
D18*
G36*
X195190502Y-57031500D02*
G01*
X194809502Y-57031500D01*
X194809502Y-56777500D01*
X195190502Y-56777500D01*
X195190502Y-57031500D01*
G37*
D12*
%TO.C,D5*%
X213000000Y-38790000D02*
X213000000Y-42650000D01*
X215000000Y-38790000D02*
X213000000Y-38790000D01*
X215000000Y-38790000D02*
X215000000Y-42650000D01*
%TO.C,R5*%
X200687742Y-46727500D02*
X201162258Y-46727500D01*
X200687742Y-47772500D02*
X201162258Y-47772500D01*
%TO.C,R7*%
X200687742Y-50227500D02*
X201162258Y-50227500D01*
X200687742Y-51272500D02*
X201162258Y-51272500D01*
D13*
%TO.C,J2*%
X198030000Y-38053493D02*
X198030000Y-39839993D01*
X198030000Y-43769993D02*
X198030000Y-41966993D01*
X206970000Y-38053493D02*
X206970000Y-39839993D01*
X206970000Y-43769993D02*
X206970000Y-41966993D01*
D16*
X205850000Y-46583493D02*
G75*
G02*
X205650000Y-46583493I-100000J0D01*
G01*
X205650000Y-46583493D02*
G75*
G02*
X205850000Y-46583493I100000J0D01*
G01*
D17*
%TO.C,U3*%
X201129100Y-59378900D02*
X205370900Y-59378900D01*
X205370900Y-54121100D02*
X201129100Y-54121100D01*
D13*
%TO.C,LS1*%
X147810000Y-55000000D02*
X149080000Y-55000000D01*
X148445000Y-54365000D02*
X148445000Y-55635000D01*
X164955000Y-55000000D02*
X166225000Y-55000000D01*
X163600000Y-55000000D02*
G75*
G02*
X149800000Y-55000000I-6900000J0D01*
G01*
X149800000Y-55000000D02*
G75*
G02*
X163600000Y-55000000I6900000J0D01*
G01*
%TD*%
M02*
